<?xml version="1.0" standalone="no"?>
<!DOCTYPE svg PUBLIC "-//W3C//DTD SVG 20010904//EN"
 "http://www.w3.org/TR/2001/REC-SVG-20010904/DTD/svg10.dtd">
<svg version="1.0" xmlns="http://www.w3.org/2000/svg"
 width="740.000000pt" height="740.000000pt" viewBox="0 0 740.000000 740.000000"
 preserveAspectRatio="xMidYMid meet">
<metadata>
Created by potrace 1.11, written by Peter Selinger 2001-2013
</metadata>
<g transform="translate(0.000000,740.000000) scale(0.100000,-0.100000)"
fill="#000000" stroke="none">
<path d="M3131 4798 c-92 -21 -166 -141 -141 -229 15 -52 12 -72 -16 -92 -24
-18 -28 -18 -120 2 -118 26 -196 26 -302 1 -46 -11 -85 -20 -88 -20 -2 0 -4
31 -4 68 0 98 -22 162 -69 205 -74 67 -198 72 -278 11 -18 -13 -96 -96 -174
-184 -78 -88 -146 -160 -150 -160 -4 0 -75 76 -158 169 -83 93 -168 180 -189
193 -54 33 -171 33 -225 -1 -51 -31 -84 -85 -93 -148 -5 -45 -11 -54 -43 -75
-26 -17 -47 -45 -78 -108 -24 -46 -43 -98 -43 -114 0 -28 0 -29 -47 -23 -27 3
-72 0 -102 -6 -43 -8 -56 -8 -59 2 -10 30 -64 78 -100 90 -33 11 -49 11 -93 0
-65 -15 -92 -37 -109 -89 -10 -31 -10 -45 0 -69 11 -27 9 -34 -17 -73 -16 -25
-38 -44 -50 -46 -18 -3 -27 -19 -51 -95 -26 -83 -32 -94 -63 -109 -19 -9 -48
-17 -64 -18 -71 -1 -98 -61 -51 -117 12 -15 21 -34 18 -42 -2 -7 -27 -47 -56
-88 -120 -176 -129 -213 -77 -326 27 -59 151 -217 171 -217 5 0 15 -6 22 -13
7 -8 40 -29 73 -48 l60 -34 578 3 c319 1 606 6 639 12 63 10 126 41 183 92
l35 30 34 -25 c54 -42 106 -49 308 -45 171 3 186 5 224 27 32 18 46 21 61 13
29 -16 171 -50 238 -57 123 -13 332 50 419 127 l40 34 62 -47 c95 -71 228
-107 410 -109 101 -2 154 8 183 34 14 13 27 11 103 -9 48 -13 116 -26 150 -30
83 -9 214 10 283 40 31 14 61 25 68 25 7 0 50 26 97 58 47 32 93 61 102 65 17
6 53 -17 148 -95 19 -15 38 -28 43 -28 4 0 40 -15 80 -34 135 -63 161 -68 335
-64 141 3 161 6 200 26 43 23 45 23 64 5 18 -17 39 -18 252 -15 257 4 288 10
316 67 l14 31 47 -32 c25 -17 77 -39 115 -48 84 -21 287 -36 330 -24 30 8 84
52 84 68 0 5 17 0 38 -10 130 -63 360 -66 504 -6 55 23 131 89 166 143 39 61
57 111 72 204 15 87 3 147 -35 185 l-24 24 24 52 c39 88 51 188 32 286 -39
201 -143 314 -332 357 -129 30 -325 13 -420 -38 -29 -15 -31 -15 -61 18 -20
22 -47 38 -77 46 -46 11 -47 12 -47 53 0 23 4 56 9 73 12 42 -3 100 -36 135
-36 38 -92 48 -260 48 -117 -1 -159 -4 -201 -19 -47 -16 -57 -17 -82 -5 -15 8
-53 19 -85 26 -88 17 -203 -10 -261 -63 -20 -18 -22 -18 -118 6 -280 71 -559
-22 -672 -223 -15 -26 -44 -77 -66 -114 -29 -50 -37 -74 -32 -93 13 -53 -23
-20 -91 83 -79 122 -178 187 -337 223 -115 26 -226 22 -343 -13 l-81 -24 -24
23 c-14 13 -38 27 -55 31 -26 7 -29 12 -25 38 7 41 5 114 -3 145 -11 41 -75
98 -131 114 -57 17 -352 19 -425 3z m421 -136 c21 -21 22 -29 20 -152 l-3
-129 55 2 c70 3 96 -19 103 -87 l6 -46 32 28 c46 41 109 69 193 87 92 19 134
19 229 -1 98 -20 163 -53 223 -113 100 -100 120 -182 120 -484 0 -229 -10
-299 -54 -385 -31 -60 -107 -134 -171 -165 -151 -75 -394 -61 -512 29 -17 13
-34 24 -37 24 -3 0 -8 -15 -12 -34 -11 -63 -31 -71 -158 -68 -133 4 -235 24
-291 56 -53 32 -132 117 -152 164 l-15 37 -23 -45 c-50 -96 -161 -176 -278
-200 -157 -32 -314 -2 -423 80 l-51 39 0 -41 c0 -27 -7 -46 -22 -61 -21 -21
-30 -22 -216 -22 -258 0 -238 -19 -236 232 1 103 4 208 7 233 l6 45 -30 -29
c-44 -41 -100 -41 -142 -1 l-31 30 5 -205 c3 -113 6 -218 6 -234 0 -18 -8 -39
-20 -50 -19 -20 -32 -21 -215 -21 -246 0 -242 -3 -237 158 l2 57 45 0 45 0 0
-53 c0 -29 -5 -58 -12 -65 -9 -9 23 -12 148 -12 l159 0 -3 91 c-3 75 0 99 19
143 23 57 21 118 -5 133 -10 6 -15 47 -20 143 l-7 135 43 -45 c24 -25 66 -71
95 -102 l51 -58 91 100 91 100 0 -308 c0 -226 -3 -311 -12 -320 -9 -9 23 -12
148 -12 l159 0 -3 665 c-2 527 -5 665 -15 665 -7 0 -113 -112 -235 -250 l-223
-250 -109 123 c-61 67 -110 131 -110 142 -1 34 -74 128 -126 162 -27 17 -60
40 -74 51 -20 16 -36 19 -78 14 -50 -4 -52 -4 -52 20 0 60 103 95 151 52 12
-11 105 -112 207 -227 102 -114 189 -206 193 -205 4 2 92 98 195 213 103 116
197 215 208 222 37 22 91 16 120 -13 l26 -27 0 -195 0 -195 43 40 c23 21 62
49 87 61 52 25 173 52 231 52 67 0 191 -30 247 -60 36 -20 52 -24 52 -15 0 45
44 85 91 85 20 0 20 5 17 124 -4 178 -7 176 244 173 169 -2 179 -3 200 -25z
m2264 -158 c52 -25 78 -68 78 -131 0 -90 -60 -144 -158 -144 -90 0 -148 43
-161 122 -9 54 26 125 75 151 43 22 121 23 166 2z m-4464 -11 c63 -24 111 -65
140 -120 37 -68 44 -114 21 -135 -41 -36 -177 -51 -250 -28 -46 16 -74 32
-134 82 -55 45 -69 38 -69 -37 0 -46 5 -57 50 -113 27 -34 47 -62 44 -62 -3 0
-29 15 -59 34 -50 33 -54 38 -60 83 -3 26 -7 59 -9 73 -5 33 26 131 54 170 38
53 76 70 157 70 44 0 89 -7 115 -17z m4950 -139 l-3 -156 85 4 86 3 0 -140 0
-140 -85 3 -85 3 0 -222 c0 -215 1 -224 22 -246 18 -20 31 -23 90 -23 l68 0 0
-138 0 -137 -119 6 c-172 10 -251 51 -305 161 l-26 52 0 273 0 273 -55 0 -55
0 0 135 0 135 55 0 56 0 -3 155 -3 155 140 0 140 0 -3 -156z m-937 114 c84
-18 127 -38 120 -57 -4 -9 -23 -61 -42 -116 -20 -55 -38 -103 -42 -107 -4 -4
-28 -1 -55 7 -93 28 -187 15 -229 -33 -10 -11 -21 -38 -24 -59 -8 -61 27 -94
174 -163 142 -68 208 -125 251 -218 22 -48 26 -70 25 -142 -4 -255 -156 -410
-402 -410 -125 0 -338 67 -326 103 2 6 20 66 41 132 20 66 37 121 38 122 1 1
37 -11 79 -27 148 -58 252 -49 282 24 8 20 15 42 15 50 0 30 -52 74 -151 125
-56 30 -111 63 -123 75 -11 11 -23 21 -26 22 -20 3 -39 18 -34 26 3 5 -3 12
-13 14 -22 6 -75 84 -91 134 -31 99 -22 222 24 312 82 162 282 235 509 186z
m-4727 -269 c7 -12 11 -23 8 -26 -7 -7 -25 6 -36 28 -15 27 11 26 28 -2z
m6418 -24 c68 -20 135 -80 165 -147 33 -75 34 -224 2 -284 -47 -88 -140 -145
-320 -199 -83 -25 -93 -31 -93 -52 0 -28 51 -63 93 -63 41 0 86 27 93 55 6 25
6 25 132 25 l125 0 -6 -60 c-9 -85 -41 -153 -95 -201 -60 -52 -130 -72 -252
-72 -151 0 -250 45 -311 141 -45 71 -51 122 -47 397 3 236 4 253 26 301 41 91
128 154 241 174 62 12 184 4 247 -15z m-5559 -32 c-3 -21 -9 -63 -13 -93 -7
-54 -18 -80 -35 -80 -5 0 -9 45 -9 99 0 86 2 100 18 104 41 11 45 8 39 -30z
m4388 -478 l0 -495 -145 0 -145 0 3 495 2 495 143 0 142 0 0 -495z m-5090 465
c-3 -5 -10 -10 -16 -10 -5 0 -9 5 -9 10 0 6 7 10 16 10 8 0 12 -4 9 -10z
m-152 -26 c9 -9 -45 -50 -60 -46 -7 2 -23 -7 -35 -18 l-23 -21 -3 21 c-4 27 8
40 50 56 39 14 62 16 71 8z m65 -63 c10 -6 6 -20 -20 -62 -18 -30 -36 -56 -41
-57 -13 -6 -50 -85 -56 -119 l-6 -32 -58 37 c-54 33 -58 38 -53 65 3 16 6 42
6 56 0 24 6 29 58 45 32 9 78 30 103 46 49 33 49 33 67 21z m-269 -33 c18 -11
18 -13 -10 -41 -17 -16 -39 -48 -51 -71 -41 -81 -56 -96 -98 -96 -44 0 -61 15
-27 24 53 13 103 63 133 130 15 36 30 66 31 66 2 0 12 -5 22 -12z m337 -70
c11 -35 18 -92 19 -164 1 -61 6 -117 10 -125 5 -8 0 -6 -12 4 -13 12 -22 35
-26 69 -4 29 -18 89 -33 135 -25 78 -25 84 -10 108 9 14 21 25 26 25 5 0 17
-24 26 -52z m631 -8 c43 0 66 5 77 16 15 14 16 14 16 -1 0 -9 -11 -27 -25 -40
-20 -21 -34 -25 -85 -25 -47 0 -60 3 -60 15 0 9 -8 28 -17 43 l-18 26 25 -17
c17 -12 44 -17 87 -17z m-147 -59 c0 -26 -113 -121 -144 -121 -4 0 23 34 60
74 66 73 84 83 84 47z m-737 -95 l58 -40 -50 -19 c-80 -29 -142 -96 -186 -199
-32 -73 -36 -90 -25 -103 7 -8 10 -18 6 -22 -11 -12 -19 6 -37 89 -17 77 -17
87 -3 137 13 44 29 68 89 129 40 41 77 73 81 71 5 -2 35 -22 67 -43z m177 -41
c0 -30 -14 -39 -40 -25 -22 12 -28 56 -7 63 21 8 47 -13 47 -38z m587 -7 c-3
-7 -5 -2 -5 12 0 14 2 19 5 13 2 -7 2 -19 0 -25z m-116 -45 c-5 -10 -23 -31
-40 -47 l-30 -29 -73 12 c-50 8 -90 9 -128 2 -60 -10 -97 -1 -40 10 89 18 275
60 279 64 2 3 13 5 23 5 15 0 17 -4 9 -17z m-906 -3 c-3 -5 -13 -10 -21 -10
-8 0 -14 5 -14 10 0 6 9 10 21 10 11 0 17 -4 14 -10z m420 -46 c86 -57 147
-109 161 -136 18 -34 5 -100 -33 -166 -29 -51 -39 -49 -24 5 19 66 15 80 -31
109 -24 14 -62 45 -86 67 l-42 41 -88 -22 c-48 -12 -90 -22 -94 -22 -18 0 -5
35 33 85 41 55 50 59 134 63 18 1 46 -9 70 -24z m710 14 c25 -11 34 -28 14
-28 -17 0 -49 20 -49 30 0 13 4 12 35 -2z m-199 -155 c-2 -3 -37 -9 -77 -14
-85 -11 -113 -27 -213 -129 -38 -38 -71 -68 -73 -66 -2 1 9 24 23 50 15 26 32
66 39 89 7 23 18 41 25 39 26 -6 123 31 149 56 14 15 49 45 76 68 l50 41 3
-64 c2 -36 1 -67 -2 -70z m-1006 82 c-19 -19 -38 -35 -44 -35 -5 0 5 16 24 35
19 19 38 35 44 35 5 0 -5 -16 -24 -35z m775 -10 c19 -15 19 -15 -2 -37 -23
-23 -49 -19 -60 8 -4 11 1 22 12 30 23 17 25 17 50 -1z m358 -22 c-7 -2 -21
-2 -30 0 -10 3 -4 5 12 5 17 0 24 -2 18 -5z m-1158 -43 c-10 -16 -65 -42 -78
-37 -7 3 -3 8 8 11 11 4 31 13 45 21 32 17 32 17 25 5z m250 -45 c-17 -14 -38
-30 -47 -35 -30 -18 -22 15 14 55 28 33 32 35 47 20 14 -14 13 -18 -14 -40z
m55 -40 c0 -12 -79 -90 -113 -112 -56 -35 -124 -25 -98 15 7 11 12 11 28 1 17
-10 28 -8 71 16 28 15 63 40 78 56 28 29 34 33 34 24z"/>
<path d="M3180 4601 c0 -6 5 -13 10 -16 6 -4 10 -65 10 -151 l0 -144 -48 0
c-26 0 -53 5 -60 12 -9 9 -12 -23 -12 -147 0 -124 3 -156 12 -147 7 7 34 12
60 12 l48 0 0 -283 0 -283 33 -54 c36 -61 103 -113 170 -131 23 -6 90 -14 150
-18 l107 -6 0 154 c0 135 -2 152 -15 141 -22 -18 -120 -8 -145 15 -19 17 -20
30 -20 242 l0 223 66 0 c36 0 74 -5 85 -10 18 -10 19 -6 19 145 0 141 -6 176
-25 145 -3 -5 -37 -10 -76 -10 l-69 0 0 144 c0 86 4 147 10 151 31 19 -4 25
-150 25 -93 0 -160 -4 -160 -9z"/>
<path d="M2620 4289 c-120 -20 -211 -86 -259 -188 -26 -55 -26 -61 -29 -304
-3 -228 -2 -254 17 -316 27 -89 80 -149 169 -193 64 -32 72 -33 182 -33 142 0
209 23 280 95 78 77 91 128 98 360 8 307 -15 410 -108 494 -51 46 -111 72
-193 86 -70 11 -81 11 -157 -1z m146 -293 c17 -13 19 -30 22 -203 2 -111 -1
-200 -7 -215 -19 -51 -125 -56 -151 -8 -6 10 -10 104 -10 209 0 178 1 192 20
211 24 24 96 27 126 6z"/>
<path d="M3990 4289 c-120 -20 -211 -86 -259 -188 -26 -55 -26 -61 -29 -304
-3 -228 -2 -254 17 -316 27 -89 80 -149 169 -193 64 -32 72 -33 182 -33 142 0
209 23 280 95 78 77 91 128 98 360 8 307 -15 410 -108 494 -51 46 -111 72
-193 86 -70 11 -81 11 -157 -1z m146 -293 c17 -13 19 -30 22 -203 2 -111 -1
-200 -7 -215 -19 -51 -125 -56 -151 -8 -6 10 -10 104 -10 209 0 178 1 192 20
211 24 24 96 27 126 6z"/>
<path d="M6865 3933 c-43 -11 -55 -33 -55 -100 0 -34 4 -63 8 -63 22 0 130 33
150 46 31 20 31 78 -1 99 -27 17 -73 26 -102 18z"/>
<path d="M4560 3190 c0 -5 4 -10 9 -10 6 0 13 5 16 10 3 6 -1 10 -9 10 -9 0
-16 -4 -16 -10z"/>
<path d="M4540 3030 c-18 -12 -2 -12 25 0 13 6 15 9 5 9 -8 0 -22 -4 -30 -9z"/>
<path d="M4796 3030 c6 -6 28 -13 50 -16 43 -5 24 7 -31 20 -22 5 -27 4 -19
-4z"/>
</g>
</svg>
