<svg xmlns="http://www.w3.org/2000/svg" width="20" height="17" viewBox="0 0 20 17">

  <path d="M202.571,212.427a1.352,1.352,0,0,0-.424-0.994,1.382,1.382,0,0,0-1-.419q-5.145,4.239-10,4.239h-5.357a1.731,1.731,0,0,0-1.262.519,1.694,1.694,0,0,0-.524,1.247v2.12a1.693,1.693,0,0,0,.524,1.247,1.731,1.731,0,0,0,1.262.519h1.361a5.689,5.689,0,0,0-.245,1.22,8.691,8.691,0,0,0-.039,1.087,6.059,6.059,0,0,0,.167,1.115q0.151,0.651.257,0.983c0.07,0.22.19,0.568,0.357,1.043s0.277,0.8.329,0.966a2.787,2.787,0,0,0,1.473.612,4.209,4.209,0,0,0,1.881-.127,1.912,1.912,0,0,0,1.244-.916q-0.423-.332-0.686-0.557a4.9,4.9,0,0,1-.536-0.552,2.052,2.052,0,0,1-.374-0.608,1.484,1.484,0,0,1-.067-0.64,1.691,1.691,0,0,1,.257-0.723,1.489,1.489,0,0,1-.446-1.021,1.756,1.756,0,0,1,.346-1.109,1.938,1.938,0,0,1,1.015-.729q4.408,0.364,9.063,4.195a1.379,1.379,0,0,0,1-.42,1.347,1.347,0,0,0,.424-0.993v-4.239a1.383,1.383,0,0,0,1.01-.414,1.4,1.4,0,0,0,0-2,1.383,1.383,0,0,0-1.01-.414v-4.239Zm-10,7.142v-2.98a17.48,17.48,0,0,0,8.572-3.787v10.531a17.53,17.53,0,0,0-8.572-3.764h0Z" transform="translate(-184 -211)"/>
</svg>
