<?xml version="1.0" encoding="utf-8"?>
<!-- Generator: Adobe Illustrator 21.1.0, SVG Export Plug-In . SVG Version: 6.00 Build 0)  -->
<svg version="1.1" id="Слой_1" xmlns="http://www.w3.org/2000/svg" xmlns:xlink="http://www.w3.org/1999/xlink" x="0px" y="0px"
	 viewBox="0 0 148.1 142.3" enable-background="new 0 0 148.1 142.3" xml:space="preserve">
<g>
	<path d="M147.5,122.1l-6.1-6.4c-0.7-0.7-1.9-0.7-2.6-0.1l-2,1.9L118,97l6.2-5.9c0.7-0.7,0.7-1.9,0.1-2.6l-6.1-6.4
		c-0.7-0.7-1.9-0.7-2.6-0.1l-6,5.7L36.8,8.2L10.3,0l7.6,26.2l76.3,76.1l-5.9,5.6c-0.7,0.7-0.7,1.9-0.1,2.6l6.1,6.4
		c0.7,0.7,1.9,0.7,2.6,0.1l6.1-5.9l19.7,19.6l-2.2,2.1c-0.7,0.7-0.7,1.9-0.1,2.6l6.1,6.4c0.7,0.7,1.9,0.7,2.6,0.1l18.1-17.2
		C148.2,124,148.3,122.9,147.5,122.1z"/>
	<path d="M62.9,79.5l-7.7-7.7L40,87.2l-5.6-5.9c-0.7-0.7-1.9-0.7-2.6-0.1l-6.4,6.1c-0.7,0.7-0.7,1.9-0.1,2.6l5.8,6.1
		l-19.6,19.8l-2-2.1c-0.7-0.7-1.9-0.7-2.6-0.1l-6.4,6.1c-0.7,0.7-0.7,1.9-0.1,2.6l17.3,18.1c0.7,0.7,1.9,0.8,2.6,0l6.4-6.1
		c0.7-0.7,0.7-1.9,0.1-2.6l-1.9-2l20.5-18.8l5.9,6.2c0.7,0.7,1.9,0.7,2.6,0.1l6.4-6.1c0.7-0.7,0.7-1.9,0.1-2.6l-5.7-6l16.2-14.9
		L62.9,79.5z"/>
	<polygon points="96.3,64.2 134,29.6 142.1,3 115.9,10.7 79.9,46.9 87.7,55.2 	"/>
</g>
</svg>
