<svg xmlns="http://www.w3.org/2000/svg" width="23.062" height="25" viewBox="0 0 23.062 25">

  <path d="M576.5,56.874a2.34,2.34,0,0,1-1.724-.718,2.377,2.377,0,0,1-.713-1.737,0.222,0.222,0,1,1,.443,0,1.937,1.937,0,0,0,.589,1.416,1.91,1.91,0,0,0,1.4.593,0.223,0.223,0,0,1,0,.446h0Zm10.258-5.468a11.1,11.1,0,0,1-1.176-1.667,12.628,12.628,0,0,1-1.032-2.211,16.425,16.425,0,0,1-.692-2.874,22.987,22.987,0,0,1-.27-3.627,5.824,5.824,0,0,0-1.62-3.941,6.826,6.826,0,0,0-4.25-2.211,1.393,1.393,0,0,0,.111-0.544,1.3,1.3,0,0,0-.388-0.949,1.33,1.33,0,0,0-1.883,0,1.3,1.3,0,0,0-.387.949,1.393,1.393,0,0,0,.111.544,6.831,6.831,0,0,0-4.251,2.211,5.823,5.823,0,0,0-1.619,3.941,22.987,22.987,0,0,1-.27,3.627,16.329,16.329,0,0,1-.693,2.874,12.553,12.553,0,0,1-1.031,2.211,11.022,11.022,0,0,1-1.177,1.667,12.123,12.123,0,0,1-1.26,1.228,1.723,1.723,0,0,0,.527,1.255,1.693,1.693,0,0,0,1.246.53h6.2a3.455,3.455,0,0,0,1.038,2.525,3.524,3.524,0,0,0,5.012,0,3.455,3.455,0,0,0,1.038-2.525h6.2a1.7,1.7,0,0,0,1.246-.53,1.722,1.722,0,0,0,.526-1.255A12.325,12.325,0,0,1,586.758,51.405Z" transform="translate(-564.969 -33)"/>
</svg>
