<svg xmlns="http://www.w3.org/2000/svg" width="15" height="15" viewBox="0 0 15 15">
  <path d="M1074.29,363.663a2.3,2.3,0,0,1-.5-0.23c-0.1-.076-0.23-0.18-0.39-0.314a2.206,2.206,0,0,0-.43-0.318,0.99,0.99,0,0,0-.46-0.092,1.052,1.052,0,0,0-.48.092,2.206,2.206,0,0,0-.43.318c-0.15.134-.29,0.238-0.39,0.314a2.09,2.09,0,0,1-.5.23,2.213,2.213,0,0,1-1.42,0,1.986,1.986,0,0,1-.49-0.23c-0.11-.076-0.24-0.18-0.4-0.314a1.944,1.944,0,0,0-.43-0.318,1.007,1.007,0,0,0-.47-0.092,1.03,1.03,0,0,0-.36.058,1.016,1.016,0,0,0-.26.126,2.5,2.5,0,0,0-.28.226,4.919,4.919,0,0,1-.4.314,2.278,2.278,0,0,1-.48.226,2.094,2.094,0,0,1-.71.121,2.141,2.141,0,0,1-.72-0.117,1.935,1.935,0,0,1-.49-0.226q-0.15-.11-0.39-0.318a3.012,3.012,0,0,0-.44-0.318,1.007,1.007,0,0,0-.47-0.092,1.035,1.035,0,0,0-.47.092,2.206,2.206,0,0,0-.43.318c-0.16.134-.29,0.238-0.39,0.314a2.3,2.3,0,0,1-.5.23,2.124,2.124,0,0,1-.71.117v3.214h15V363.78A2.124,2.124,0,0,1,1074.29,363.663Zm0.24-3.7a1.546,1.546,0,0,0-1.14-.469h-0.53v-3.75h-2.15v3.75h-2.14v-3.75h-2.14v3.75h-2.14v-3.75h-2.15v3.75h-0.53A1.6,1.6,0,0,0,1060,361.1v1.608a1.02,1.02,0,0,0,.47-0.092,1.986,1.986,0,0,0,.43-0.319c0.17-.139.3-0.245,0.4-0.318a2.052,2.052,0,0,1,.48-0.226,2.226,2.226,0,0,1,.72-0.117,2.378,2.378,0,0,1,1.21.347c0.1,0.076.24,0.18,0.39,0.314a2.261,2.261,0,0,0,.43.319,1.22,1.22,0,0,0,.84.033,1.213,1.213,0,0,0,.26-0.126c0.06-.044.15-0.12,0.27-0.226,0.17-.139.3-0.244,0.4-0.314a2.419,2.419,0,0,1,.49-0.225,2.053,2.053,0,0,1,.71-0.122,2.141,2.141,0,0,1,.72.117,2.4,2.4,0,0,1,.49.226q0.15,0.109.39,0.318a2.261,2.261,0,0,0,.43.319,1.049,1.049,0,0,0,.47.092,1.088,1.088,0,0,0,.37-0.059,1.016,1.016,0,0,0,.26-0.126c0.06-.044.15-0.12,0.28-0.226q0.24-.209.39-0.318a1.971,1.971,0,0,1,.49-0.226,2.141,2.141,0,0,1,.72-0.117,2.167,2.167,0,0,1,.71.117,2.052,2.052,0,0,1,.48.226c0.1,0.073.23,0.179,0.4,0.318a2.276,2.276,0,0,0,.44.319,0.948,0.948,0,0,0,.46.092V361.1A1.561,1.561,0,0,0,1074.53,359.963Zm-10.62-7.349a1.011,1.011,0,0,0-.7-0.62,1.618,1.618,0,0,1-.08.561,0.964,0.964,0,0,1-.19.373c-0.08.086-.17,0.174-0.26,0.263s-0.18.168-.26,0.235a0.842,0.842,0,0,0-.2.284,1.125,1.125,0,0,0-.08.427,1.082,1.082,0,0,0,1.07,1.072,0.961,0.961,0,0,0,.77-0.348,1.424,1.424,0,0,0,.31-0.992A2.406,2.406,0,0,0,1063.91,352.614Zm4.28,0a1.019,1.019,0,0,0-.69-0.62,1.9,1.9,0,0,1-.08.561,0.969,0.969,0,0,1-.2.373,2.37,2.37,0,0,1-.26.263c-0.09.09-.18,0.168-0.26,0.235a0.829,0.829,0,0,0-.19.284,0.961,0.961,0,0,0-.08.427,1.065,1.065,0,0,0,1.07,1.072,0.975,0.975,0,0,0,.77-0.348,1.472,1.472,0,0,0,.3-0.992A2.318,2.318,0,0,0,1068.19,352.614Zm4.29,0a1.019,1.019,0,0,0-.69-0.62,1.9,1.9,0,0,1-.08.561,1.124,1.124,0,0,1-.2.373c-0.08.086-.17,0.174-0.26,0.263s-0.18.168-.26,0.235a0.842,0.842,0,0,0-.2.284,1.125,1.125,0,0,0-.08.427,1.082,1.082,0,0,0,1.08,1.072,0.99,0.99,0,0,0,.77-0.348,1.472,1.472,0,0,0,.3-0.992A2.406,2.406,0,0,0,1072.48,352.614Z" transform="translate(-1060 -352)"/>
</svg>
