<svg xmlns="http://www.w3.org/2000/svg" width="18.969" height="20" viewBox="0 0 18.969 20">

  <path d="M186.46,256.135h16.057v11.428H186.46V256.135Zm4.276-1.886a0.357,0.357,0,0,1-.262.1h-0.73a0.358,0.358,0,0,1-.262-0.1,0.343,0.343,0,0,1-.1-0.257v-3.215a0.342,0.342,0,0,1,.1-0.256,0.359,0.359,0,0,1,.262-0.1h0.73a0.357,0.357,0,0,1,.262.1,0.342,0.342,0,0,1,.1.256v3.215A0.343,0.343,0,0,1,190.736,254.249Zm8.759,0a0.358,0.358,0,0,1-.262.1H198.5a0.357,0.357,0,0,1-.262-0.1,0.343,0.343,0,0,1-.1-0.257v-3.215a0.342,0.342,0,0,1,.1-0.256,0.357,0.357,0,0,1,.262-0.1h0.73a0.359,0.359,0,0,1,.262.1,0.342,0.342,0,0,1,.1.256v3.215A0.343,0.343,0,0,1,199.5,254.249Zm4.049-1.976a1.417,1.417,0,0,0-1.027-.424h-1.459v-1.072a1.7,1.7,0,0,0-.536-1.261,1.78,1.78,0,0,0-1.289-.524H198.5a1.78,1.78,0,0,0-1.289.524,1.7,1.7,0,0,0-.536,1.261v1.072H192.3v-1.072a1.7,1.7,0,0,0-.536-1.261,1.78,1.78,0,0,0-1.289-.524h-0.73a1.776,1.776,0,0,0-1.288.524,1.7,1.7,0,0,0-.536,1.261v1.072h-1.46a1.417,1.417,0,0,0-1.027.424,1.359,1.359,0,0,0-.433,1v14.285a1.359,1.359,0,0,0,.433,1,1.421,1.421,0,0,0,1.027.424h16.057a1.421,1.421,0,0,0,1.027-.424,1.359,1.359,0,0,0,.433-1V253.278A1.359,1.359,0,0,0,203.544,252.273Z" transform="translate(-185 -249)"/>
</svg>
