<svg xmlns="http://www.w3.org/2000/svg" width="17.969" height="20" viewBox="0 0 17.969 20">
  <metadata><?xpacket begin="﻿" id="W5M0MpCehiHzreSzNTczkc9d"?>
<x:xmpmeta xmlns:x="adobe:ns:meta/" x:xmptk="Adobe XMP Core 5.6-c142 79.160924, 2017/07/13-01:06:39        ">
   <rdf:RDF xmlns:rdf="http://www.w3.org/1999/02/22-rdf-syntax-ns#">
      <rdf:Description rdf:about=""/>
   </rdf:RDF>
</x:xmpmeta>
                                                                                                    
                                                                                                    
                                                                                                    
                                                                                                    
                                                                                                    
                                                                                                    
                                                                                                    
                                                                                                    
                                                                                                    
                                                                                                    
                                                                                                    
                                                                                                    
                                                                                                    
                                                                                                    
                                                                                                    
                                                                                                    
                                                                                                    
                                                                                                    
                                                                                                    
                                                                                                    
                           
<?xpacket end="w"?></metadata>
<defs>
    <style>
      .cls-1 {
        fill: #757575;
        fill-rule: evenodd;
      }
    </style>
  </defs>
  <path id="fa-calendar" class="cls-1" d="M896.383,204.349h3.111v3.215h-3.111v-3.215Zm3.8,0h3.457v3.215h-3.457v-3.215Zm-3.8-4.285h3.111v3.571h-3.111v-3.571Zm3.8,0h3.457v3.571h-3.457v-3.571Zm-3.8-3.929h3.111v3.214h-3.111v-3.214Zm7.952,8.214h3.457v3.215h-3.457v-3.215Zm-4.149-8.214h3.457v3.214h-3.457v-3.214Zm8.3,8.214H911.6v3.215h-3.111v-3.215Zm-4.149-4.285h3.457v3.571h-3.457v-3.571Zm-3.906-5.821a0.328,0.328,0,0,1-.243.106h-0.692a0.328,0.328,0,0,1-.243-0.106,0.348,0.348,0,0,1-.1-0.251v-3.214a0.35,0.35,0,0,1,.1-0.251,0.328,0.328,0,0,1,.243-0.106h0.692a0.328,0.328,0,0,1,.243.106,0.351,0.351,0,0,1,.1.251v3.214A0.349,0.349,0,0,1,900.429,194.243Zm8.055,5.821H911.6v3.571h-3.111v-3.571Zm-4.149-3.929h3.457v3.214h-3.457v-3.214Zm4.149,0H911.6v3.214h-3.111v-3.214Zm0.243-1.892a0.328,0.328,0,0,1-.243.106h-0.692a0.325,0.325,0,0,1-.243-0.106,0.349,0.349,0,0,1-.1-0.251v-3.214a0.351,0.351,0,0,1,.1-0.251,0.325,0.325,0,0,1,.243-0.106h0.692a0.328,0.328,0,0,1,.243.106,0.35,0.35,0,0,1,.1.251v3.214A0.348,0.348,0,0,1,908.727,194.243Zm3.841-1.97a1.312,1.312,0,0,0-.973-0.424h-1.383v-1.071a1.75,1.75,0,0,0-.507-1.261,1.639,1.639,0,0,0-1.221-.525h-0.692a1.639,1.639,0,0,0-1.221.525,1.75,1.75,0,0,0-.507,1.261v1.071h-4.149v-1.071a1.751,1.751,0,0,0-.508-1.261,1.639,1.639,0,0,0-1.221-.525h-0.692a1.636,1.636,0,0,0-1.22.525,1.747,1.747,0,0,0-.508,1.261v1.071h-1.383a1.312,1.312,0,0,0-.973.424,1.4,1.4,0,0,0-.41,1v14.286a1.4,1.4,0,0,0,.41,1,1.309,1.309,0,0,0,.973.424H911.6a1.309,1.309,0,0,0,.973-0.424,1.4,1.4,0,0,0,.41-1V193.278A1.4,1.4,0,0,0,912.568,192.273Z" transform="translate(-895 -189)"/>
</svg>
