<svg xmlns="http://www.w3.org/2000/svg" width="20.031" height="18.031" viewBox="0 0 20.031 18.031">

  <path d="M191.007,380.393a3.066,3.066,0,0,0,.881,2.205,2.916,2.916,0,0,0,4.244,0,3.2,3.2,0,0,0,0-4.409,2.916,2.916,0,0,0-4.244,0A3.065,3.065,0,0,0,191.007,380.393Zm8.009-7.627-0.532-1.474a2,2,0,0,0-.725-0.915,1.809,1.809,0,0,0-1.079-.385h-5.339a1.806,1.806,0,0,0-1.079.385,2,2,0,0,0-.725.915l-0.532,1.474h-2.336a2.525,2.525,0,0,0-1.887.812,2.729,2.729,0,0,0-.782,1.961v9.708a2.729,2.729,0,0,0,.782,1.962,2.525,2.525,0,0,0,1.887.812h14.682a2.529,2.529,0,0,0,1.888-.812,2.729,2.729,0,0,0,.782-1.962v-9.708a2.729,2.729,0,0,0-.782-1.961,2.529,2.529,0,0,0-1.888-.812h-2.335Zm-9.677,7.627a4.769,4.769,0,0,1,1.371-3.429,4.535,4.535,0,0,1,6.6,0,4.975,4.975,0,0,1,0,6.859,4.537,4.537,0,0,1-6.6,0A4.769,4.769,0,0,1,189.339,380.393Z" transform="translate(-184 -370)"/>
</svg>
