<svg xmlns="http://www.w3.org/2000/svg" width="20" height="19.969" viewBox="0 0 20 19.969">
  <path d="M1253,48.331a3.338,3.338,0,1,1,2.36-.976A3.2,3.2,0,0,1,1253,48.331Zm9.9-5.052a0.41,0.41,0,0,0-.27-0.163l-2.38-.364a7.5,7.5,0,0,0-.54-1.274c0.16-.217.39-0.522,0.71-0.917s0.53-.683.66-0.864a0.492,0.492,0,0,0,.1-0.3,0.422,0.422,0,0,0-.09-0.286,17.672,17.672,0,0,0-2.15-2.21,0.489,0.489,0,0,0-.32-0.13,0.4,0.4,0,0,0-.31.117l-1.85,1.391a8.154,8.154,0,0,0-1.18-.481l-0.36-2.392a0.393,0.393,0,0,0-.15-0.279,0.5,0.5,0,0,0-.32-0.111h-2.89a0.44,0.44,0,0,0-.47.364,22.029,22.029,0,0,0-.38,2.418,7.247,7.247,0,0,0-1.18.494l-1.8-1.391a0.56,0.56,0,0,0-.34-0.13,3.086,3.086,0,0,0-1.23.93,12.176,12.176,0,0,0-1.28,1.4,0.541,0.541,0,0,0-.12.3,0.471,0.471,0,0,0,.13.312c0.58,0.7,1.05,1.3,1.39,1.794a7.686,7.686,0,0,0-.51,1.2l-2.42.364a0.414,0.414,0,0,0-.25.169,0.49,0.49,0,0,0-.1.3v2.887a0.483,0.483,0,0,0,.1.306,0.411,0.411,0,0,0,.28.163l2.38,0.351a6.066,6.066,0,0,0,.54,1.287c-0.16.217-.4,0.522-0.71,0.917s-0.53.683-.66,0.865a0.5,0.5,0,0,0-.11.3,0.513,0.513,0,0,0,.09.3,17.622,17.622,0,0,0,2.15,2.184,0.468,0.468,0,0,0,.33.143,0.487,0.487,0,0,0,.33-0.117l1.83-1.391a8.505,8.505,0,0,0,1.17.481l0.37,2.392a0.394,0.394,0,0,0,.15.28,0.5,0.5,0,0,0,.32.11h2.89a0.44,0.44,0,0,0,.47-0.364,22.028,22.028,0,0,0,.38-2.418,7.6,7.6,0,0,0,1.18-.494l1.8,1.4a0.623,0.623,0,0,0,.34.117,3.011,3.011,0,0,0,1.22-.923,12.276,12.276,0,0,0,1.29-1.4,0.428,0.428,0,0,0,.12-0.3,0.485,0.485,0,0,0-.13-0.325c-0.63-.763-1.09-1.361-1.39-1.794a8.2,8.2,0,0,0,.5-1.183l2.41-.364a0.384,0.384,0,0,0,.26-0.169,0.5,0.5,0,0,0,.11-0.3V43.585A0.494,0.494,0,0,0,1262.9,43.279Z" transform="translate(-1243 -35.031)"/>
</svg>
