<svg xmlns="http://www.w3.org/2000/svg" width="31" height="24.031" viewBox="0 0 31 24.031">

  <path d="M530.292,34.151a16.6,16.6,0,0,0-12.232,0,10.98,10.98,0,0,0-4.438,3.18A6.829,6.829,0,0,0,512,41.714a6.632,6.632,0,0,0,1.228,3.82,10.055,10.055,0,0,0,3.374,3.018q-0.174.409-.355,0.75a4.226,4.226,0,0,1-.433.657q-0.25.316-.389,0.494a6.682,6.682,0,0,1-.45.5q-0.311.324-.4,0.427l-0.069.077a1.1,1.1,0,0,1-.078.085,0.866,0.866,0,0,0-.069.085,0.728,0.728,0,0,0-.06.094l-0.044.085a0.343,0.343,0,0,0-.034.1,0.641,0.641,0,0,0-.009.111,0.358,0.358,0,0,0,.017.111,0.564,0.564,0,0,0,.2.358,0.546,0.546,0,0,0,.355.136h0.052a13.952,13.952,0,0,0,6.3-2.456,17.624,17.624,0,0,0,3.045.273,15.786,15.786,0,0,0,6.116-1.168A10.984,10.984,0,0,0,534.73,46.1a6.719,6.719,0,0,0,0-8.765A10.993,10.993,0,0,0,530.292,34.151Zm11.41,8.006a10.207,10.207,0,0,0-3.529-3.036,8.658,8.658,0,0,1-.762,6.924,11.468,11.468,0,0,1-3.321,3.615,15.423,15.423,0,0,1-4.568,2.2,18.521,18.521,0,0,1-5.346.767q-0.519,0-1.523-.068a14.7,14.7,0,0,0,8.167,2.251,17.642,17.642,0,0,0,3.045-.273,13.942,13.942,0,0,0,6.3,2.455,0.529,0.529,0,0,0,.381-0.119,0.636,0.636,0,0,0,.225-0.375,0.357,0.357,0,0,0,.017-0.111,0.762,0.762,0,0,0-.008-0.111,0.378,0.378,0,0,0-.035-0.1L540.7,56.09A0.747,0.747,0,0,0,540.638,56a0.707,0.707,0,0,0-.069-0.086c-0.017-.017-0.043-0.046-0.078-0.085s-0.058-.066-0.069-0.077c-0.058-.068-0.19-0.211-0.4-0.426a6.6,6.6,0,0,1-.45-0.5q-0.138-.179-0.389-0.494a4.243,4.243,0,0,1-.433-0.657q-0.181-.341-0.354-0.75a10.1,10.1,0,0,0,3.373-3.01A6.576,6.576,0,0,0,541.7,42.158Z" transform="translate(-512 -32.969)"/>
</svg>
