<svg xmlns="http://www.w3.org/2000/svg" width="20" height="18.343" viewBox="0 0 20 18.343">
  <path d="M471.322,407.725a0.346,0.346,0,0,1-.251.1h-2.143a0.359,0.359,0,0,1-.357-0.363v-2.093a0.352,0.352,0,0,1,.106-0.258,0.346,0.346,0,0,1,.251-0.105h2.143a0.343,0.343,0,0,1,.251.105,0.348,0.348,0,0,1,.106.258v2.093A0.348,0.348,0,0,1,471.322,407.725Zm-0.033-4.2a0.456,0.456,0,0,1-.262.072h-2.065a0.483,0.483,0,0,1-.268-0.072,0.212,0.212,0,0,1-.112-0.181l-0.189-5.033a0.264,0.264,0,0,1,.111-0.231,0.433,0.433,0,0,1,.268-0.121h2.456a0.431,0.431,0,0,1,.267.121,0.241,0.241,0,0,1,.112.209l-0.2,5.055A0.242,0.242,0,0,1,471.289,403.529Zm-0.564-11a1.428,1.428,0,0,0-1.975.539l-8.572,15.5a1.3,1.3,0,0,0,.023,1.387,1.388,1.388,0,0,0,.519.507,1.414,1.414,0,0,0,.708.187h17.143a1.418,1.418,0,0,0,.709-0.187,1.388,1.388,0,0,0,.519-0.507,1.3,1.3,0,0,0,.023-1.387l-8.572-15.5A1.415,1.415,0,0,0,470.725,392.524Z" transform="translate(-460 -392.313)"/>
</svg>
