<svg xmlns="http://www.w3.org/2000/svg" width="20" height="19.5" viewBox="0 0 20 19.5">
  <path d="M473,178.5l-0.745-.745,6.316-6.315,0.744,0.744L473,178.5m2.259-6.688v-1.053H480v1.053h-4.737m3.684-1.053H480v4.211h-1.053v-4.211m-6.6,11.585-0.759.759,6.437,6.436,0.758-.758-6.436-6.437m2.3,6.816v1.073h4.828v-1.073h-4.828m3.755,1.073h1.073v-4.291H478.4v4.291M467,178.5l0.745-.745-6.316-6.315-0.744.744L467,178.5m-2.259-6.688v-1.053H460v1.053h4.737m-3.684-1.053H460v4.211h1.053v-4.211m6.6,11.585,0.759,0.759-6.437,6.436-0.758-.758,6.436-6.437m-2.3,6.816v1.073h-4.828v-1.073h4.828m-3.755,1.073h-1.073v-4.291H461.6v4.291" transform="translate(-460 -170.75)"/>
</svg>
