<svg xmlns="http://www.w3.org/2000/svg" width="15" height="10" viewBox="0 0 15 10">
  <path d="M706.137,700.835a6.8,6.8,0,0,1-7.274,0A8.8,8.8,0,0,1,696.071,698a8.359,8.359,0,0,1,3.19-3.063,3.893,3.893,0,0,0-.511,1.952,3.813,3.813,0,0,0,1.1,2.746,3.646,3.646,0,0,0,5.3,0,3.813,3.813,0,0,0,1.1-2.746,3.893,3.893,0,0,0-.511-1.952,8.359,8.359,0,0,1,3.19,3.063A8.8,8.8,0,0,1,706.137,700.835Zm-3.637-5.747a1.645,1.645,0,0,0-1.23.529,1.769,1.769,0,0,0-.511,1.275,0.409,0.409,0,0,1-.117.295,0.393,0.393,0,0,1-.569,0,0.406,0.406,0,0,1-.118-0.295,2.588,2.588,0,0,1,.749-1.861,2.41,2.41,0,0,1,1.8-.776,0.382,0.382,0,0,1,.285.121,0.43,0.43,0,0,1,0,.59,0.383,0.383,0,0,1-.285.122h0Zm7.333,2.316a9.109,9.109,0,0,0-3.152-3.193,7.85,7.85,0,0,0-8.362,0,9.109,9.109,0,0,0-3.152,3.193,1.156,1.156,0,0,0,0,1.2,9.1,9.1,0,0,0,3.152,3.193,7.861,7.861,0,0,0,8.362,0,9.038,9.038,0,0,0,3.152-3.2,1.156,1.156,0,0,0,0-1.2h0Z" transform="translate(-695 -693)"/>
</svg>
