<svg xmlns="http://www.w3.org/2000/svg" width="18" height="18.031" viewBox="0 0 18 18.031">

  <path d="M190.127,462.114v0.657h1.125V463.9h0.657l0.609-.609-1.782-1.783Zm5.111-5.147-3.411,3.412q-0.2.2-.035,0.352t0.351-.036l3.412-3.411c0.133-.133.144-0.25,0.035-0.352s-0.219-.1-0.352.035h0ZM189,465.022v-3.377l6.378-6.378,3.376,3.377-6.377,6.378H189Zm7.128-10.5,1.079-1.079a1.132,1.132,0,0,1,1.594,0l1.782,1.782a1.131,1.131,0,0,1,0,1.595l-1.078,1.078Zm6.888-3.511a3.25,3.25,0,0,0-2.386-.991H189.376A3.384,3.384,0,0,0,186,453.392v11.254a3.384,3.384,0,0,0,3.376,3.377h11.255a3.384,3.384,0,0,0,3.377-3.377V453.392A3.249,3.249,0,0,0,203.017,451.006Z" transform="translate(-186 -450)"/>
</svg>
