<svg xmlns="http://www.w3.org/2000/svg" width="12" height="10.281" viewBox="0 0 12 10.281">
  <path d="M758.3,897.736l4.171-4.018A4.374,4.374,0,0,0,764,890.705a3.069,3.069,0,0,0-.851-2.3,3.219,3.219,0,0,0-2.35-.831,2.667,2.667,0,0,0-.847.144,3.435,3.435,0,0,0-.8.389c-0.247.163-.461,0.315-0.639,0.458a6.129,6.129,0,0,0-.509.456,6.129,6.129,0,0,0-.509-0.456c-0.179-.143-0.392-0.295-0.64-0.458a3.409,3.409,0,0,0-.8-0.389,2.667,2.667,0,0,0-.847-0.144,3.221,3.221,0,0,0-2.351.831,3.069,3.069,0,0,0-.85,2.3,2.93,2.93,0,0,0,.157.924,4.083,4.083,0,0,0,.359.811,5.859,5.859,0,0,0,.455.653c0.17,0.211.293,0.358,0.372,0.438a2.242,2.242,0,0,0,.184.174l4.178,4.031a0.42,0.42,0,0,0,.59,0h0Z" transform="translate(-752 -887.563)"/>
</svg>
