<?xml version="1.0" encoding="utf-8"?>
<!-- Generator: Adobe Illustrator 21.1.0, SVG Export Plug-In . SVG Version: 6.00 Build 0)  -->
<svg version="1.1" id="Слой_1" xmlns="http://www.w3.org/2000/svg" xmlns:xlink="http://www.w3.org/1999/xlink" x="0px" y="0px"
	 viewBox="0 0 126 133.7" enable-background="new 0 0 126 133.7" xml:space="preserve">
<g>
	<path d="M124.5,75c-1.5-12.5-4.9-24.3-4.9-24.6C114.7,22.3,87.6,0,58.4,0C26.1,0,0,26.2,0,58.4C0,65.2,0.9,74,1.7,81.2
		c0.6,5.3,1.3,9.7,1.7,12.6c11.9,7.2,25.9,14.8,42,21.7c19.7,8.5,38.1,14.3,53.9,18.2c4.4-2.3,10.8-6.4,16.8-13.3
		c5-5.7,8-11.3,9.8-15.4C126,104.9,126.2,89.4,124.5,75z M44.4,55.7c0-4.6,3.7-8.2,8.2-8.2c4.6,0,8.2,3.7,8.2,8.2
		c0,4.6-3.7,8.2-8.2,8.2S44.4,60.3,44.4,55.7z M119.9,101.9C106.6,98,89.2,91.3,70.8,79.7c-5.8-3.6-11-7.3-15.8-11.1
		c6-1.2,10.6-6.5,10.6-12.9c0-1.9-0.4-3.8-1.2-5.4c15.9-1.2,31.8-2.4,47.7-3.6c2.4,6.7,4.8,14.9,6.3,24.5
		C120.4,83.2,120.5,93.6,119.9,101.9z"/>
	<circle cx="52.6" cy="55.7" r="4.2"/>
</g>
</svg>
