<svg xmlns="http://www.w3.org/2000/svg" width="20" height="20" viewBox="0 0 20 20">

  <path d="M443.222,458.574a0.406,0.406,0,0,1-.3.117h-5.836a0.4,0.4,0,0,1-.417-0.417V456.19a0.4,0.4,0,0,1,.417-0.417h1.251v-4.168h-1.251a0.4,0.4,0,0,1-.417-0.417V449.1a0.4,0.4,0,0,1,.417-0.417h4.169a0.4,0.4,0,0,1,.417.417v6.669h1.25a0.4,0.4,0,0,1,.417.417v2.084A0.406,0.406,0,0,1,443.222,458.574ZM441.554,446.9a0.405,0.405,0,0,1-.3.117h-2.5a0.4,0.4,0,0,1-.417-0.417v-2.084a0.4,0.4,0,0,1,.417-0.417h2.5a0.4,0.4,0,0,1,.417.417V446.6A0.4,0.4,0,0,1,441.554,446.9Zm3.472-3.543a10.068,10.068,0,0,0-10.044,0,9.954,9.954,0,0,0-3.64,3.641,10.066,10.066,0,0,0,0,10.043,9.954,9.954,0,0,0,3.64,3.641,10.068,10.068,0,0,0,10.044,0,9.957,9.957,0,0,0,3.641-3.641,10.072,10.072,0,0,0,0-10.043A9.957,9.957,0,0,0,445.026,443.359Z" transform="translate(-430 -442.031)"/>
</svg>
