<svg xmlns="http://www.w3.org/2000/svg" width="20" height="19" viewBox="0 0 20 19">
  <path d="M482.961,516.627a0.813,0.813,0,0,1-1.131,0,0.76,0.76,0,0,1-.231-0.563,0.8,0.8,0,0,1,1.362-.557,0.761,0.761,0,0,1,.238.557A0.752,0.752,0,0,1,482.961,516.627Zm2-7.456a0.773,0.773,0,0,0-.562-0.235h-3.6a0.776,0.776,0,0,0-.563.235,0.76,0.76,0,0,0-.237.557v7.92a0.756,0.756,0,0,0,.237.557,0.772,0.772,0,0,0,.563.235h3.6a0.769,0.769,0,0,0,.562-0.235,0.757,0.757,0,0,0,.238-0.557v-7.92A0.761,0.761,0,0,0,484.96,509.171Zm14.319-1.113a2.312,2.312,0,0,0-1.686-.706h-3.462c0.034-.115.067-0.214,0.1-0.3a2.255,2.255,0,0,1,.138-0.272c0.058-.1.1-0.173,0.125-0.223q0.225-.42.343-0.693a4.955,4.955,0,0,0,.238-0.742,3.841,3.841,0,0,0,.119-0.941c0-.2,0-0.359-0.007-0.482a5.3,5.3,0,0,0-.062-0.557,3.138,3.138,0,0,0-.15-0.619,2.936,2.936,0,0,0-.3-0.557,1.742,1.742,0,0,0-.5-0.5,2.758,2.758,0,0,0-.749-0.322,3.756,3.756,0,0,0-1.031-.13,0.777,0.777,0,0,0-.563.235,2.142,2.142,0,0,0-.424.619,3.651,3.651,0,0,0-.244.644q-0.069.271-.156,0.755c-0.075.346-.131,0.6-0.169,0.748a3.78,3.78,0,0,1-.219.6,1.875,1.875,0,0,1-.387.594,18.468,18.468,0,0,0-1.262,1.485q-0.612.792-1.262,1.5a2.064,2.064,0,0,1-.949.73,0.824,0.824,0,0,0-.538.254,0.742,0.742,0,0,0-.225.538v7.932a0.734,0.734,0,0,0,.238.551,0.826,0.826,0,0,0,.562.241,9.248,9.248,0,0,1,1.974.545q0.963,0.321,1.506.489t1.518,0.359a9.428,9.428,0,0,0,1.8.191h1.612a3.119,3.119,0,0,0,2.462-.965,2.953,2.953,0,0,0,.612-2.24,2.394,2.394,0,0,0,.674-1.163,2.513,2.513,0,0,0,0-1.448,2.547,2.547,0,0,0,.538-1.695,2.968,2.968,0,0,0-.188-0.941,2.7,2.7,0,0,0,.688-1.844A2.272,2.272,0,0,0,499.279,508.058Z" transform="translate(-480 -501.031)"/>
</svg>
