<svg xmlns="http://www.w3.org/2000/svg" width="12" height="9.406" viewBox="0 0 12 9.406">
  <path d="M1106.33,643.051c-1.46.991-2.58,1.761-3.33,2.31-0.26.188-.47,0.334-0.62,0.439a3.7,3.7,0,0,1-.64.321,1.907,1.907,0,0,1-.73.165h-0.02a1.907,1.907,0,0,1-.73-0.165,3.7,3.7,0,0,1-.64-0.321c-0.15-.1-0.36-0.251-0.62-0.439-0.6-.442-1.71-1.212-3.32-2.31a3.516,3.516,0,0,1-.68-0.582v5.316a1.027,1.027,0,0,0,.31.757,1.046,1.046,0,0,0,.76.315h9.86a1.046,1.046,0,0,0,.76-0.315,1.027,1.027,0,0,0,.31-0.757v-5.316a3.787,3.787,0,0,1-.67.582h0Zm0.35-3.308a1.024,1.024,0,0,0-.75-0.315h-9.86a0.946,0.946,0,0,0-.79.349,1.325,1.325,0,0,0-.28.87,1.538,1.538,0,0,0,.37.914,3.172,3.172,0,0,0,.78.774c0.15,0.107.61,0.425,1.37,0.954s1.35,0.936,1.76,1.222c0.04,0.031.14,0.1,0.28,0.2s0.27,0.19.37,0.255,0.21,0.137.34,0.217a2.139,2.139,0,0,0,.39.181,1.051,1.051,0,0,0,.33.06h0.02a1.051,1.051,0,0,0,.33-0.06,2.139,2.139,0,0,0,.39-0.181c0.13-.08.25-0.153,0.34-0.217s0.22-.15.37-0.255,0.24-.173.28-0.2c0.41-.286,1.46-1.011,3.13-2.176a3.164,3.164,0,0,0,.82-0.824,1.763,1.763,0,0,0,.33-1.011A1.036,1.036,0,0,0,1106.68,639.743Z" transform="translate(-1095 -639.438)"/>
</svg>
