<svg xmlns="http://www.w3.org/2000/svg" viewBox="0 0 13 20">

  <path d="M208.5,891a3.091,3.091,0,0,1-2.3-.976,3.39,3.39,0,0,1,0-4.711,3.193,3.193,0,0,1,4.594,0,3.39,3.39,0,0,1,0,4.711A3.091,3.091,0,0,1,208.5,891Zm4.594-8.042a6.382,6.382,0,0,0-9.188,0,6.5,6.5,0,0,0-1.9,4.711,5.6,5.6,0,0,0,.419,2.329l4.631,10.072a1.491,1.491,0,0,0,.59.676,1.61,1.61,0,0,0,1.714,0,1.565,1.565,0,0,0,.6-0.676L214.575,890a5.584,5.584,0,0,0,.419-2.329A6.5,6.5,0,0,0,213.091,882.959Z" transform="translate(-202 -881)"/>
</svg>
