<?xml version="1.0" encoding="utf-8"?>
<!-- Generator: Adobe Illustrator 21.1.0, SVG Export Plug-In . SVG Version: 6.00 Build 0)  -->
<svg version="1.1" id="Слой_1" xmlns="http://www.w3.org/2000/svg" xmlns:xlink="http://www.w3.org/1999/xlink" x="0px" y="0px"
	 viewBox="0 0 755.5 179" enable-background="new 0 0 755.5 179" xml:space="preserve">
<g id="Слой_4">
	<g>
		<path d="M461.5,137.8c0.7,8.3,3.2,18.8,9.6,24.7c6.5,6,16.2,9.1,24.7,10.7c5.6,1,8-7.6,2.4-8.6c-6.7-1.2-13.8-3.3-19.3-7.3
			c-5.6-4-7.8-13-8.4-19.4C470,132.1,461.1,132,461.5,137.8L461.5,137.8z"/>
		<g>
			<g>
				<path d="M468.2,99.1c7.7,0,7.7-11.9,0-11.9C460.5,87.2,460.5,99.1,468.2,99.1L468.2,99.1z"/>
			</g>
		</g>
		<path d="M467.1,98.2c-1.7-1.3,0.2,0-0.1,0.7c-0.2,0.3-0.9,0.8-1.4,1.3c-1.6,1.6-2.8,3.1-3.3,5.3c-1.4,5.6-0.9,12.2-1.1,17.9
			c-0.3,7.1-0.1,25,10.3,25.5c4.9,0.3,7.2-4.2,8-8.3c1-5.5,1.6-10.1,4.6-15c1.2-2,4.6-5,5.1-7.1c0.2-0.3,0.4-0.5,0.6-0.8
			c-0.8,0.2-1.6,0.3-2.4,0.5c0-0.1,4,1.8,4.2,1.9c5.5,2.5,10.9,5,16.5,7.4c3,1.3,6.3,0.9,8.1-2.1c1.5-2.5,0.8-6.9-2.1-8.1
			c-6.4-2.7-12.7-5.7-19.1-8.6c-4.6-2.1-9.2-3.6-13.3,0.3c-3.8,3.6-7.4,9.1-9.7,13.8c-1.3,2.6-2.4,5.3-3,8.1
			c-0.6,2.6-0.2,6.9-1.8,9.1c1.7-1,3.4-2,5.1-2.9c0.9,0.5,1.9,1,2.8,1.6c-0.2-0.5-0.5-1.1-0.7-1.6c-0.2-1.3-0.9-2.6-1.1-3.9
			c-0.6-2.8-0.5-5.7-0.3-8.6c0.1-3,0.3-5.9,0.5-8.9c0.1-1.3,0.1-2.6,0.2-4c0-0.8,0.8-4.2-0.5-2.2c0.9-1.4,3-2.1,4-3.6
			c1.3-1.9,1.8-4.1,1.8-6.4c-0.1-4.4-2.3-8.8-5.8-11.4C467,83.3,461,93.6,467.1,98.2L467.1,98.2z"/>
		<path d="M460.6,81.3c0.4,1.3,0.9,2.3,1.9,3.3c0.2,0.2,0.4,0.4,0.6,0.6c0.7,0.7,0.5,0.3-0.5-1.1c0.1,0.3,0.2,0.6,0.2,0.9
			c-0.1-0.7-0.1-0.6,0,0.2c0,0.4,0,0.9,0,1.3c-0.1,0.8-0.1,0.9,0,0.4c-0.4,3.1,0.7,6.5,4.2,7.3c2.8,0.6,6.9-0.9,7.3-4.2
			c0.4-2.8,0.6-5.5,0-8.3c-0.2-1-0.6-2.1-1.1-3c-0.4-0.6-0.8-1.3-1.3-1.8c-0.9-1-0.3-0.9,0.3,1c-0.9-3-4.2-5.2-7.3-4.2
			C461.8,74.9,459.6,78.1,460.6,81.3L460.6,81.3z"/>
		<path d="M471.7,64.8c0,2.7-2.2,5-5,5c-2.7,0-5-2.2-5-5c0-2.7,2.2,4,5,4C469.4,68.8,471.7,62,471.7,64.8z"/>
		<path d="M465,72.1c0-0.1,0.1-0.1,0.1-0.2c-0.3,0-0.7,0-1,0c0.2,0.3,0.3,0.6,0.6,0.8c0.2,0.2,0.5,0.5,0.8,0.7
			c0.4,0.4,1.2,0.4,1.5-0.1c0.4-0.5,0.2-1.1-0.3-1.5c-0.3-0.2-0.6-0.5-1-0.6c-0.3-0.2-0.7-0.2-1.1-0.2s-0.7,0.4-0.6,0.7
			c0,0.1,0,0.1,0.1,0.2C464.3,72.4,464.8,72.4,465,72.1L465,72.1z"/>
		<path d="M464.5,72.8c0.1,0.4,0.3,0.8,0.6,1.2c0.2,0.3,0.7,0.1,0.6-0.3c-0.1-0.4-0.2-0.8-0.3-1.2C465.1,72.6,464.8,72.7,464.5,72.8
			c0.2,0.5,0.5,0.9,0.9,1.2c0.3,0.3,0.9,0.2,0.9-0.2c0.1-0.4,0.1-0.8,0-1.3c-0.5,0.2-1,0.4-1.5,0.6c0.3,0.6,0.8,1,1.3,1.4
			c0.6,0.4,1.5-0.2,1.5-0.8c-0.1-0.7-0.2-1.3-0.4-2c-0.3,0.4-0.5,0.9-0.8,1.3h0.1c-0.4-0.1-0.7-0.2-1.1-0.3c0.4,0.3,0.7,1,1,1.5
			s0.9,0.7,1.4,0.6c0.6-0.2,0.8-0.6,0.9-1.2c0-0.4,0.1-0.9,0-1.2c-0.1-0.2,0.1-0.3-0.2-0.2c0.8-0.3,1.3-1.1,0.9-1.9
			c-0.3-0.8-1.2-1.1-2-0.7c-0.6,0.3-1.1,1-1.2,1.6c-0.2,0.8,0,1.5,0,2.3c0.8-0.2,1.5-0.4,2.3-0.6c-0.6-0.9-1.5-2.4-2.7-2.1
			c-0.7,0.2-0.9,1-0.7,1.6c0.2,0.4,0.3,0.9,0.4,1.4c0.5-0.4,1-0.7,1.4-1.1c-0.4-0.2-0.8-0.6-1.2-0.8c-0.8-0.5-1.6,0.6-1,1.3
			c0.2,0.1,0.3,0.3,0.3,0.5c0.3-0.2,0.5-0.4,0.8-0.6c-0.3-0.2-0.5-0.4-0.6-0.7c-0.3-0.5-1-0.1-0.8,0.5c0.2,0.4,0.3,0.7,0.5,1.1
			c0.2-0.1,0.4-0.3,0.5-0.4C465.1,73.3,464.8,73,464.5,72.8C464.7,72.4,464.4,72.5,464.5,72.8L464.5,72.8z"/>
		<path d="M468.6,70.9c1.5,0,1.5-2.3,0-2.3C467.1,68.5,467.1,70.9,468.6,70.9L468.6,70.9z"/>
		<path d="M467.3,71.6c0-0.2,0-0.4,0.1-0.6c0.1-0.6-0.2-1-0.5-1.4c-0.8-0.7-1.7-1.1-2.7-1.1s-1.8,0.8-1.8,1.8c0,1.1,0.8,1.7,1.8,1.8
			c-0.1,0-0.1,0,0.1,0c0.3,0.1,0.7,0.1,1,0c0.2,0,0.2,0,0.5,0c0.4,0,0.7,0,1-0.3C466.9,71.9,467.1,71.7,467.3,71.6
			C466.9,71.8,466.9,71.8,467.3,71.6C467.2,71.7,467.3,71.7,467.3,71.6L467.3,71.6z"/>
		<g>
			<g>
				<path d="M467.5,70.1C467.6,70.1,467.6,70,467.5,70.1C467.5,70,467.5,70.1,467.5,70.1L467.5,70.1z"/>
			</g>
		</g>
		<g>
			<g>
				<path d="M467,70.1c0.2,0,0.2-0.4,0-0.4C466.7,69.8,466.7,70.1,467,70.1L467,70.1z"/>
			</g>
		</g>
		<path d="M467,70.3c0.5,0,0.5-0.8,0-0.8S466.5,70.3,467,70.3L467,70.3z"/>
		<g>
			<g>
				<path d="M467.2,70.2c0.5,0,0.5-0.8,0-0.8C466.6,69.3,466.6,70.2,467.2,70.2L467.2,70.2z"/>
			</g>
		</g>
		<path d="M469.5,72.9c-0.1-0.3-0.1-0.5-0.1-0.8c0-0.7-1-0.8-1.2-0.2c-0.3,0.9,0.2,2.1,0.4,3c0.2,0.9,1.4,0.6,1.5-0.2
			c0.1-0.6,0.2-1.2-0.1-1.7c-0.3-0.6-0.9-0.6-1.6-0.7c-0.7,0-1.4-0.1-2.1-0.2c-0.3,0-0.6-0.1-0.9,0s-0.5,0.3-0.7,0.5
			c0.3,0,0.7-0.1,1-0.1c-0.1,0-0.1,0-0.2,0c-0.8-0.2-1.7,0.4-1.7,1.3c0,0.8,0.9,1.6,1.7,1.3c0.4-0.2,0.7-0.1,1.1-0.2
			c0.6-0.1,0.9-0.7,0.5-1.2c-0.3-0.3-0.7-0.5-1-0.8c-0.3,0.7-0.6,1.5-0.9,2.2c0.7,0.1,1-0.3,1.5-0.8c-0.2,0.1-0.4,0.2-0.6,0.3
			c0.3-0.1,1,0.1,1.3,0c0.5,0,1-0.1,1.5-0.1c-0.3-0.1-0.5-0.2-0.8-0.3c0.2,0.2,0.4,0.6,0.5,0.9c0.5-0.2,0.9-0.4,1.4-0.6
			c-0.2-0.8-0.5-1.6-0.6-2.5c-0.4,0.1-0.8,0.1-1.2,0.2c0.1,0.4,0.3,0.7,0.5,1C469,73.5,469.6,73.4,469.5,72.9L469.5,72.9z"/>
		<g>
			<g>
				<path d="M546.7,85.1c7.7,0,7.7-11.9,0-11.9S539,85.1,546.7,85.1L546.7,85.1z"/>
			</g>
		</g>
		<path fill="#FFFFFF" d="M358.8,87.5c-0.3,5.3,1.1,10.2,1.6,15.4c0.6,5.4,0,10.9-0.6,16.3c1-0.3,1.9-0.5,2.9-0.8
			c-1.7-9.1-4.2-23.6,2.3-31.3c-0.9,0.1-1.8,0.2-2.7,0.4c-1.4,3.3-2,6.3-1.9,9.9c0.9-0.3,1.9-0.6,2.8-0.9c-2.2-1.3-1.9-4.4-5-3.4
			c-3.2,1.1-2.3,5.1-1.8,7.7c0.5,2.9,1.5,5.7,1.7,8.7c0.3,3.1-1.1,6.4-0.8,9.4c0.2,2.3,2.1,2.8,4.1,1.7c3.1-1.6,1.6-6.8,1.7-9.5
			c0.1-3.8,0.4-7.6,0.9-11.4c0.2-1.2,1.7-5.4,0.9-6.6c-0.9-1.4-3.4-0.2-4.4,0.4c-3.7,2-4.5,6-2.3,9.5c0.5,0.7,3.1-0.4,2.9-0.8
			c-0.6-1-2.7-6.2-0.6-6.5c2.3-0.3,0.7,4,0.6,4.7c-0.7,5-1.2,10.3-0.9,15.3c0.3,4.5,0.6-0.7,0.8-1.9c0.2-1.7,0.2-3.4,0.1-5.1
			c-0.3-3.7-4.2-11.9-1.4-15.2c-0.8,0.2-1.5,0.5-2.3,0.7c0.5,0,2.3,2.9,3,3.4c0.5,0.3,2.8-0.1,2.8-0.9c-0.1-3.5,0.5-6.4,1.8-9.6
			c0.3-0.7-2.4,0-2.7,0.4c-6.7,8-4.3,22.6-2.6,31.9c0.1,0.7,2.8-0.1,2.9-0.8c0.6-5.4,1.1-10.9,0.6-16.3c-0.5-5.2-1.9-10.2-1.6-15.4
			C361.7,86.3,358.8,86.7,358.8,87.5L358.8,87.5z"/>
		<path d="M475.9,96.8c-2.9,5-4.4,10.3-5.2,16c-0.4,3.2,3,6,6,6c3.6,0,5.5-2.7,6-6c0.5-3.5,1.8-6.9,3.6-10
			C490,96.2,479.7,90.2,475.9,96.8L475.9,96.8z"/>
		<path d="M480.9,112.6c-1.6-0.2-0.3,0,0.1,0.1c0.5,0.1,1,0.2,1.5,0.4c0.2,0.1,1.6,0.5,0.7,0.2s0.7,0.3,0.9,0.4
			c2.8,1.4,6.6,0.8,8.1-2.1c1.5-2.7,0.8-6.6-2.1-8.1c-2.9-1.5-5.9-2.3-9.2-2.7c-1.4-0.2-3.2,0.8-4.2,1.7c-1,1-1.8,2.7-1.7,4.2
			c0.1,1.5,0.6,3.1,1.7,4.2C478,112,479.3,112.4,480.9,112.6L480.9,112.6z"/>
		<g>
			<g>
				<path d="M471.1,152.8c7.7,0,7.7-11.9,0-11.9C463.4,140.9,463.4,152.8,471.1,152.8L471.1,152.8z"/>
			</g>
		</g>
		<path d="M546.8,71.2c0.1,3-1.9,5.7-1.8,8.7c0.1,3.3,1.5,6,3.8,8.3c5.4,5.7,13-2.6,8.4-8.4c-3.3-4.2-7-8-12.2-9.7
			c-4.8-1.6-9.5-4.6-14.4-5.4c-7.5-1.2-10.7,10.3-3.2,11.5c4.3,0.7,7.9,3.6,12,4.8c4.3,1.2,6.6,3.8,9.3,7.3c2.8-2.8,5.6-5.6,8.4-8.4
			c-0.5-0.5,1.6-7.5,1.6-8.7C558.5,63.6,546.6,63.5,546.8,71.2L546.8,71.2z"/>
		<path d="M647.5,100.1c0.1,7.3,0.3,14.5,0.7,21.8c0.4,7.6,12.3,7.7,11.9,0c-0.4-7.2-0.7-14.5-0.7-21.8
			C659.3,92.5,647.4,92.5,647.5,100.1L647.5,100.1z"/>
		<path d="M472.7,88.7c-0.2,2.8,0,5.5,0.6,8.2c0.5,2.3,3.3,3.8,5.5,3.1c2.4-0.8,3.6-3,3.1-5.5c-0.4-1.7-0.4-3.8-0.3-5.8
			c0.2-2.3-2.2-4.6-4.5-4.5C474.5,84.4,472.9,86.2,472.7,88.7L472.7,88.7z"/>
		<path d="M471.9,147.7c-0.1,0.1-0.1,0.1-0.2,0.2c-0.8,0.8-1.3,2-1.3,3.2c0,1.1,0.5,2.4,1.3,3.2c0.9,0.8,2,1.4,3.2,1.3
			s2.3-0.5,3.2-1.3c0.1-0.1,0.1-0.1,0.2-0.2c0.8-0.8,1.3-2,1.3-3.2c0-1.1-0.5-2.4-1.3-3.2c-0.9-0.8-2-1.4-3.2-1.3
			C473.9,146.5,472.8,146.9,471.9,147.7L471.9,147.7z"/>
		<g>
			<g>
				<g>
					<path fill="#EE192D" d="M226.5,21.4v132.2l1.6,1.6H196l1.6-1.6v-32.4l0.9-32.1l-19.2,21.3L159.9,89l1.1,32.8v31.8l1.6,1.6
						h-32.1l1.6-1.6V21.2h1.8l45.4,50.9l45.2-50.7H226.5z"/>
					<path d="M134,21.2l45.4,50.9l45.2-50.7h2v132.2l1.6,1.6h-32.1l1.6-1.6v-32.4l0.9-32.1l-19.2,21.3L159.9,89l1.1,32.8v31.8
						l1.6,1.6h-32.1l1.6-1.6V21.2H134 M134,1.2h-1.8c-11,0-20,9-20,20v126c-2.1,4.9-2.2,10.5-0.1,15.5c3.1,7.5,10.4,12.3,18.5,12.3
						h32.1c6.8,0,13-3.4,16.7-9c3.7,5.5,9.9,9,16.7,9h32.1c8.1,0,15.4-4.9,18.5-12.3c2.1-5.1,2-10.7-0.1-15.5V21.4c0-11-9-20-20-20
						h-2c-5.7,0-11.1,2.4-14.9,6.7l-30.2,34L148.9,7.9C145.1,3.7,139.7,1.2,134,1.2L134,1.2z"/>
				</g>
				<g>
					<path fill="#EE192D" d="M274.7,51.2c5.4,0,10.3,0.7,14.9,2.2c4.5,1.5,8.5,3.7,11.7,6.6c3.3,2.9,5.9,6.5,7.7,10.8
						c1.9,4.3,2.8,9.3,2.8,14.9v35.5c0,5.6-0.9,10.6-2.8,14.9s-4.4,7.9-7.6,10.8s-7.1,5.2-11.7,6.7c-4.5,1.6-9.5,2.3-14.9,2.3
						c-5.5,0-10.5-0.8-15.1-2.3c-4.5-1.6-8.5-3.8-11.7-6.7c-3.3-2.9-5.9-6.5-7.7-10.8c-1.9-4.3-2.8-9.3-2.8-14.9V85.7
						c0-5.6,0.9-10.6,2.8-14.9c1.9-4.3,4.4-7.9,7.7-10.8c3.3-2.9,7.2-5.1,11.7-6.6C264.3,51.9,269.3,51.2,274.7,51.2z M283.5,85.4
						c0-2.2-0.9-3.8-2.7-4.9c-1.8-1.1-3.8-1.7-6-1.7s-4.2,0.6-6,1.7c-1.8,1.1-2.7,2.8-2.7,4.9v35.9c0,2.2,0.9,3.8,2.6,4.9
						c1.7,1.1,3.7,1.7,5.8,1.7s4.2-0.5,6-1.6c1.9-1.1,2.8-2.7,3-5L283.5,85.4L283.5,85.4z"/>
					<path d="M274.7,51.2c5.4,0,10.3,0.7,14.9,2.2c4.5,1.5,8.5,3.7,11.7,6.6c3.3,2.9,5.9,6.5,7.7,10.8c1.9,4.3,2.8,9.3,2.8,14.9
						v35.5c0,5.6-0.9,10.6-2.8,14.9s-4.4,7.9-7.6,10.8s-7.1,5.2-11.7,6.7c-4.5,1.6-9.5,2.3-14.9,2.3c-5.5,0-10.5-0.8-15.1-2.3
						c-4.5-1.6-8.5-3.8-11.7-6.7c-3.3-2.9-5.9-6.5-7.7-10.8c-1.9-4.3-2.8-9.3-2.8-14.9V85.7c0-5.6,0.9-10.6,2.8-14.9
						c1.9-4.3,4.4-7.9,7.7-10.8c3.3-2.9,7.2-5.1,11.7-6.6C264.3,51.9,269.3,51.2,274.7,51.2 M274.5,127.9c2.2,0,4.2-0.5,6-1.6
						c1.9-1.1,2.8-2.7,3-5V85.4c0-2.2-0.9-3.8-2.7-4.9c-1.8-1.1-3.8-1.7-6-1.7s-4.2,0.6-6,1.7c-1.8,1.1-2.7,2.8-2.7,4.9v35.9
						c0,2.2,0.9,3.8,2.6,4.9C270.4,127.4,272.4,127.9,274.5,127.9 M274.7,31.2c-7.5,0-14.6,1.1-21.1,3.2c-7.1,2.4-13.5,6-18.8,10.7
						C229.3,50,225,56,222,63c-2.9,6.8-4.4,14.5-4.4,22.8v35.5c0,8.3,1.5,16,4.4,22.8c3,7,7.3,13,12.8,17.9
						c5.3,4.7,11.5,8.3,18.6,10.7c6.6,2.3,13.9,3.4,21.5,3.4c7.5,0,14.7-1.1,21.3-3.4c7.1-2.4,13.4-6.1,18.6-10.8
						c5.3-4.8,9.6-10.8,12.5-17.7c2.9-6.8,4.4-14.5,4.4-22.8V85.9c0-8.3-1.5-16-4.4-22.8c-3-7-7.3-13-12.8-17.9
						c-5.3-4.8-11.7-8.4-18.8-10.7C289.3,32.3,282.2,31.2,274.7,31.2L274.7,31.2z"/>
				</g>
				<g>
					<path fill="#EE192D" d="M365,127.9h7.9l2.3-1.4v30.3l-2.5-1.3h-9.5c-3.5,0-6.9-0.3-10.3-0.8s-6.6-1.6-9.7-3.2
						c-3-1.6-5.8-3.9-8.3-6.8c-2.5-2.9-4.5-6.8-6.1-11.6V78.6h-9.7l-2,1.6V49.6l2,1.8h9.7V21.8l-2-1.8h32.1l-2,2.2v29.2h14.5l2-1.8
						v30.7l-2-1.6h-14.5v44.8c0.6,1.3,1.6,2.4,3,3.3C361.5,127.6,363.1,128,365,127.9z"/>
					<path d="M358.9,20L358.9,20 M358.9,20l-2,2.2v29.2h14.5l2-1.8v30.7l-2-1.6h-14.5v44.8c0.6,1.3,1.6,2.4,3,3.3
						c1.3,0.8,2.7,1.2,4.4,1.2c0.2,0,0.4,0,0.7,0h7.9l2.3-1.4v30.3l-2.5-1.3h-9.5c-3.5,0-6.9-0.3-10.3-0.8s-6.6-1.6-9.7-3.2
						c-3-1.6-5.8-3.9-8.3-6.8c-2.5-2.9-4.5-6.8-6.1-11.6V78.6h-9.7l-2,1.6V49.6l2,1.8h9.7V21.8l-2-1.8H358.9 M358.9,0L358.9,0h-32
						c-8.3,0-15.7,5.1-18.7,12.8c-2,5.3-1.7,11,0.6,15.9v2.7c-7.1,3.3-11.7,10.4-11.7,18.2v30.7c0,7.7,4.5,14.8,11.4,18.1
						c0.1,0,0.1,0.1,0.2,0.1v34.7c0,2.1,0.3,4.2,1,6.2c2.4,7.3,5.7,13.5,9.9,18.4c4.1,4.8,8.9,8.7,14.2,11.5
						c5,2.6,10.3,4.4,15.9,5.3c4.4,0.7,8.9,1.1,13.4,1.1h5c2.3,0.8,4.6,1.3,7,1.3c3.7,0,7.3-1,10.5-3c5.9-3.6,9.5-10.1,9.5-17v-30.3
						c0-7.2-3.9-13.9-10.2-17.5c-2.5-1.4-5.3-2.2-8-2.5v-6.6c1.7-0.3,3.4-0.8,5.1-1.6c7-3.3,11.4-10.3,11.4-18.1V49.6
						c0-7.9-4.7-15.1-11.9-18.3c-1.5-0.7-3-1.1-4.6-1.4v-1.2c1.3-2.6,2-5.6,2-8.7C378.9,9,370,0,358.9,0C359,0,359,0,358.9,0
						C359,0,359,0,358.9,0L358.9,0z"/>
				</g>
				<g>
					<path fill="#EE192D" d="M419.7,51.2c5.4,0,10.3,0.7,14.9,2.2c4.5,1.5,8.5,3.7,11.7,6.6c3.3,2.9,5.9,6.5,7.7,10.8
						c1.9,4.3,2.8,9.3,2.8,14.9v35.5c0,5.6-0.9,10.6-2.8,14.9s-4.4,7.9-7.6,10.8s-7.1,5.2-11.7,6.7c-4.5,1.6-9.5,2.3-14.9,2.3
						c-5.5,0-10.5-0.8-15.1-2.3c-4.5-1.6-8.5-3.8-11.7-6.7c-3.3-2.9-5.9-6.5-7.7-10.8c-1.9-4.3-2.8-9.3-2.8-14.9V85.7
						c0-5.6,0.9-10.6,2.8-14.9c1.9-4.3,4.4-7.9,7.7-10.8c3.3-2.9,7.2-5.1,11.7-6.6C409.4,51.9,414.3,51.2,419.7,51.2z M428.5,85.4
						c0-2.2-0.9-3.8-2.7-4.9c-1.8-1.1-3.8-1.7-6-1.7s-4.2,0.6-6,1.7c-1.8,1.1-2.7,2.8-2.7,4.9v35.9c0,2.2,0.9,3.8,2.6,4.9
						c1.7,1.1,3.7,1.7,5.8,1.7s4.2-0.5,6-1.6c1.9-1.1,2.8-2.7,3-5L428.5,85.4L428.5,85.4z"/>
					<path d="M419.7,51.2c5.4,0,10.3,0.7,14.9,2.2c4.5,1.5,8.5,3.7,11.7,6.6c3.3,2.9,5.9,6.5,7.7,10.8c1.9,4.3,2.8,9.3,2.8,14.9
						v35.5c0,5.6-0.9,10.6-2.8,14.9s-4.4,7.9-7.6,10.8s-7.1,5.2-11.7,6.7c-4.5,1.6-9.5,2.3-14.9,2.3c-5.5,0-10.5-0.8-15.1-2.3
						c-4.5-1.6-8.5-3.8-11.7-6.7c-3.3-2.9-5.9-6.5-7.7-10.8c-1.9-4.3-2.8-9.3-2.8-14.9V85.7c0-5.6,0.9-10.6,2.8-14.9
						c1.9-4.3,4.4-7.9,7.7-10.8c3.3-2.9,7.2-5.1,11.7-6.6C409.4,51.9,414.3,51.2,419.7,51.2 M419.5,127.9c2.2,0,4.2-0.5,6-1.6
						c1.9-1.1,2.8-2.7,3-5V85.4c0-2.2-0.9-3.8-2.7-4.9c-1.8-1.1-3.8-1.7-6-1.7s-4.2,0.6-6,1.7c-1.8,1.1-2.7,2.8-2.7,4.9v35.9
						c0,2.2,0.9,3.8,2.6,4.9C415.4,127.4,417.4,127.9,419.5,127.9 M419.7,31.2c-7.5,0-14.6,1.1-21.1,3.2c-7.1,2.4-13.5,6-18.8,10.7
						C374.3,50,370,56,367,63c-2.9,6.8-4.4,14.5-4.4,22.8v35.5c0,8.3,1.5,16,4.4,22.8c3,7,7.3,13,12.8,17.9
						c5.3,4.7,11.5,8.3,18.6,10.7c6.6,2.3,13.9,3.4,21.5,3.4c7.5,0,14.7-1.1,21.3-3.4c7.1-2.4,13.4-6.1,18.6-10.8
						c5.3-4.8,9.6-10.8,12.5-17.7c2.9-6.8,4.4-14.5,4.4-22.8V85.9c0-8.3-1.5-16-4.4-22.8c-3-7-7.3-13-12.8-17.9
						c-5.3-4.8-11.7-8.4-18.8-10.7C434.3,32.3,427.2,31.2,419.7,31.2L419.7,31.2z"/>
				</g>
			</g>
		</g>
		<g>
			<g>
				<g>
					<path fill="#EE192D" d="M226.5,21.4v132.2l1.6,1.6H196l1.6-1.6v-32.4l0.9-32.1l-19.2,21.3L159.9,89l1.1,32.8v31.8l1.6,1.6
						h-32.1l1.6-1.6V21.2h1.8l45.4,50.9l45.2-50.7H226.5z"/>
					<path fill="#FFFFFF" d="M134,21.2l45.4,50.9l45.2-50.7h2v132.2l1.6,1.6h-32.1l1.6-1.6v-32.4l0.9-32.1l-19.2,21.3L159.9,89
						l1.1,32.8v31.8l1.6,1.6h-32.1l1.6-1.6V21.2H134 M134,11.2h-1.8c-5.5,0-10,4.5-10,10v128.5c-1.8,2.7-2.1,6.2-0.9,9.3
						c1.5,3.7,5.2,6.2,9.2,6.2h32.1c4,0,7.7-2.4,9.2-6.2c1.3-3.1,0.9-6.5-0.9-9.3v-27.9c0-0.1,0-0.2,0-0.3l-0.2-5.6l1.1,1.2
						c1.9,2.1,4.6,3.3,7.4,3.3l0,0c2.8,0,5.5-1.2,7.4-3.3l1-1.1l-0.1,4.9c0,0.1,0,0.2,0,0.3v28.6c-1.8,2.7-2.1,6.2-0.9,9.3
						c1.5,3.7,5.2,6.2,9.2,6.2h32.1c4,0,7.7-2.4,9.2-6.2c1.3-3.1,0.9-6.5-0.9-9.3V21.4c0-5.5-4.5-10-10-10h-2
						c-2.9,0-5.6,1.2-7.5,3.3L179,57.1l-37.6-42.5C139.5,12.5,136.8,11.2,134,11.2L134,11.2z"/>
				</g>
				<g>
					<path fill="#EE192D" d="M274.7,51.2c5.4,0,10.3,0.7,14.9,2.2c4.5,1.5,8.5,3.7,11.7,6.6c3.3,2.9,5.9,6.5,7.7,10.8
						c1.9,4.3,2.8,9.3,2.8,14.9v35.5c0,5.6-0.9,10.6-2.8,14.9s-4.4,7.9-7.6,10.8s-7.1,5.2-11.7,6.7c-4.5,1.6-9.5,2.3-14.9,2.3
						c-5.5,0-10.5-0.8-15.1-2.3c-4.5-1.6-8.5-3.8-11.7-6.7c-3.3-2.9-5.9-6.5-7.7-10.8c-1.9-4.3-2.8-9.3-2.8-14.9V85.7
						c0-5.6,0.9-10.6,2.8-14.9c1.9-4.3,4.4-7.9,7.7-10.8c3.3-2.9,7.2-5.1,11.7-6.6C264.3,51.9,269.3,51.2,274.7,51.2z M283.5,85.4
						c0-2.2-0.9-3.8-2.7-4.9c-1.8-1.1-3.8-1.7-6-1.7s-4.2,0.6-6,1.7c-1.8,1.1-2.7,2.8-2.7,4.9v35.9c0,2.2,0.9,3.8,2.6,4.9
						c1.7,1.1,3.7,1.7,5.8,1.7s4.2-0.5,6-1.6c1.9-1.1,2.8-2.7,3-5L283.5,85.4L283.5,85.4z"/>
					<path fill="#FFFFFF" d="M274.7,51.2c5.4,0,10.3,0.7,14.9,2.2c4.5,1.5,8.5,3.7,11.7,6.6c3.3,2.9,5.9,6.5,7.7,10.8
						c1.9,4.3,2.8,9.3,2.8,14.9v35.5c0,5.6-0.9,10.6-2.8,14.9s-4.4,7.9-7.6,10.8s-7.1,5.2-11.7,6.7c-4.5,1.6-9.5,2.3-14.9,2.3
						c-5.5,0-10.5-0.8-15.1-2.3c-4.5-1.6-8.5-3.8-11.7-6.7c-3.3-2.9-5.9-6.5-7.7-10.8c-1.9-4.3-2.8-9.3-2.8-14.9V85.7
						c0-5.6,0.9-10.6,2.8-14.9c1.9-4.3,4.4-7.9,7.7-10.8c3.3-2.9,7.2-5.1,11.7-6.6C264.3,51.9,269.3,51.2,274.7,51.2 M274.5,127.9
						c2.2,0,4.2-0.5,6-1.6c1.9-1.1,2.8-2.7,3-5V85.4c0-2.2-0.9-3.8-2.7-4.9c-1.8-1.1-3.8-1.7-6-1.7s-4.2,0.6-6,1.7
						c-1.8,1.1-2.7,2.8-2.7,4.9v35.9c0,2.2,0.9,3.8,2.6,4.9C270.4,127.4,272.4,127.9,274.5,127.9 M274.7,41.2
						c-6.4,0-12.5,0.9-18,2.7c-5.8,1.9-11,4.8-15.3,8.7c-4.4,3.9-7.8,8.7-10.2,14.4c-2.4,5.5-3.6,11.9-3.6,18.8v35.5
						c0,7,1.2,13.3,3.6,18.8c2.4,5.6,5.9,10.5,10.2,14.4c4.3,3.8,9.4,6.7,15.2,8.7c5.6,1.9,11.7,2.9,18.3,2.9c6.4,0,12.5-1,18.1-2.9
						c5.8-2,10.9-4.9,15.1-8.8c4.3-3.9,7.7-8.7,10.1-14.3c2.4-5.5,3.6-11.9,3.6-18.8V85.8c0-7-1.2-13.3-3.6-18.8
						c-2.4-5.6-5.9-10.5-10.2-14.4c-4.3-3.8-9.4-6.7-15.3-8.7C287.2,42.1,281.1,41.2,274.7,41.2L274.7,41.2z"/>
				</g>
				<g>
					<path fill="#EE192D" d="M365,127.9h7.9l2.3-1.4v30.3l-2.5-1.3h-9.5c-3.5,0-6.9-0.3-10.3-0.8s-6.6-1.6-9.7-3.2
						c-3-1.6-5.8-3.9-8.3-6.8c-2.5-2.9-4.5-6.8-6.1-11.6V78.6h-9.7l-2,1.6V49.6l2,1.8h9.7V21.8l-2-1.8h32.1l-2,2.2v29.2h14.5l2-1.8
						v30.7l-2-1.6h-14.5v44.8c0.6,1.3,1.6,2.4,3,3.3C361.5,127.6,363.1,128,365,127.9z"/>
					<path fill="#FFFFFF" d="M358.9,20L358.9,20 M358.9,20l-2,2.2v29.2h14.5l2-1.8v30.7l-2-1.6h-14.5v44.8c0.6,1.3,1.6,2.4,3,3.3
						c1.3,0.8,2.7,1.2,4.4,1.2c0.2,0,0.4,0,0.7,0h7.9l2.3-1.4v30.3l-2.5-1.3h-9.5c-3.5,0-6.9-0.3-10.3-0.8s-6.6-1.6-9.7-3.2
						c-3-1.6-5.8-3.9-8.3-6.8c-2.5-2.9-4.5-6.8-6.1-11.6V78.6h-9.7l-2,1.6V49.6l2,1.8h9.7V21.8l-2-1.8H358.9 M358.9,10L358.9,10h-32
						c-4.1,0-7.8,2.5-9.3,6.4c-1.3,3.2-0.7,6.9,1.3,9.6v13.8c-0.5-0.1-1.1-0.1-1.7-0.1c-1.4,0-2.7,0.3-4,0.9c-3.6,1.6-6,5.2-6,9.1
						v30.7c0,3.9,2.2,7.4,5.7,9c1.4,0.6,2.8,1,4.3,1c0.6,0,1.1,0,1.7-0.1v43c0,1,0.2,2.1,0.5,3.1c2,6,4.7,11.1,8,15
						s7.1,6.9,11.2,9.1c4,2.1,8.3,3.6,12.8,4.3c3.9,0.6,7.9,0.9,11.9,0.9h7.1l0.4,0.2c1.4,0.7,2.9,1.1,4.5,1.1
						c1.8,0,3.7-0.5,5.3-1.5c2.9-1.8,4.7-5,4.7-8.5v-30.3c0-3.6-2-7-5.1-8.7c-1.5-0.8-3.2-1.3-4.9-1.3c-1.8,0-3.6,0.5-5.2,1.4H367
						V88.6h1c1.6,1.1,3.5,1.6,5.4,1.6c1.5,0,2.9-0.3,4.3-1c3.5-1.7,5.7-5.2,5.7-9V49.6c0-4-2.3-7.5-6-9.1c-1.3-0.6-2.7-0.9-4-0.9
						c-2,0-4,0.6-5.7,1.8h-0.8V26c1.2-1.7,2-3.7,2-6C368.9,14.5,364.5,10,358.9,10L358.9,10z M358.9,30L358.9,30L358.9,30L358.9,30z
						"/>
				</g>
				<g>
					<path fill="#EE192D" d="M419.7,51.2c5.4,0,10.3,0.7,14.9,2.2c4.5,1.5,8.5,3.7,11.7,6.6c3.3,2.9,5.9,6.5,7.7,10.8
						c1.9,4.3,2.8,9.3,2.8,14.9v35.5c0,5.6-0.9,10.6-2.8,14.9s-4.4,7.9-7.6,10.8s-7.1,5.2-11.7,6.7c-4.5,1.6-9.5,2.3-14.9,2.3
						c-5.5,0-10.5-0.8-15.1-2.3c-4.5-1.6-8.5-3.8-11.7-6.7c-3.3-2.9-5.9-6.5-7.7-10.8c-1.9-4.3-2.8-9.3-2.8-14.9V85.7
						c0-5.6,0.9-10.6,2.8-14.9c1.9-4.3,4.4-7.9,7.7-10.8c3.3-2.9,7.2-5.1,11.7-6.6C409.4,51.9,414.3,51.2,419.7,51.2z M428.5,85.4
						c0-2.2-0.9-3.8-2.7-4.9c-1.8-1.1-3.8-1.7-6-1.7s-4.2,0.6-6,1.7c-1.8,1.1-2.7,2.8-2.7,4.9v35.9c0,2.2,0.9,3.8,2.6,4.9
						c1.7,1.1,3.7,1.7,5.8,1.7s4.2-0.5,6-1.6c1.9-1.1,2.8-2.7,3-5L428.5,85.4L428.5,85.4z"/>
					<path fill="#FFFFFF" d="M419.7,51.2c5.4,0,10.3,0.7,14.9,2.2c4.5,1.5,8.5,3.7,11.7,6.6c3.3,2.9,5.9,6.5,7.7,10.8
						c1.9,4.3,2.8,9.3,2.8,14.9v35.5c0,5.6-0.9,10.6-2.8,14.9s-4.4,7.9-7.6,10.8s-7.1,5.2-11.7,6.7c-4.5,1.6-9.5,2.3-14.9,2.3
						c-5.5,0-10.5-0.8-15.1-2.3c-4.5-1.6-8.5-3.8-11.7-6.7c-3.3-2.9-5.9-6.5-7.7-10.8c-1.9-4.3-2.8-9.3-2.8-14.9V85.7
						c0-5.6,0.9-10.6,2.8-14.9c1.9-4.3,4.4-7.9,7.7-10.8c3.3-2.9,7.2-5.1,11.7-6.6C409.4,51.9,414.3,51.2,419.7,51.2 M419.5,127.9
						c2.2,0,4.2-0.5,6-1.6c1.9-1.1,2.8-2.7,3-5V85.4c0-2.2-0.9-3.8-2.7-4.9c-1.8-1.1-3.8-1.7-6-1.7s-4.2,0.6-6,1.7
						c-1.8,1.1-2.7,2.8-2.7,4.9v35.9c0,2.2,0.9,3.8,2.6,4.9C415.4,127.4,417.4,127.9,419.5,127.9 M419.7,41.2
						c-6.4,0-12.5,0.9-18,2.7c-5.8,1.9-11,4.8-15.3,8.7c-4.4,3.9-7.8,8.7-10.2,14.4c-2.4,5.5-3.6,11.9-3.6,18.8v35.5
						c0,7,1.2,13.3,3.6,18.8c2.4,5.6,5.9,10.5,10.2,14.4c4.3,3.8,9.4,6.7,15.2,8.7c5.6,1.9,11.7,2.9,18.3,2.9c6.4,0,12.5-1,18.1-2.9
						c5.8-2,10.9-4.9,15.1-8.8c4.3-3.9,7.7-8.7,10.1-14.3c2.4-5.5,3.6-11.9,3.6-18.8V85.8c0-7-1.2-13.3-3.6-18.8
						c-2.4-5.6-5.9-10.5-10.2-14.4c-4.3-3.8-9.4-6.7-15.3-8.7C432.2,42.1,426.1,41.2,419.7,41.2L419.7,41.2z"/>
				</g>
			</g>
		</g>
		<g>
			<g>
				<path fill="#EE192D" d="M226.5,21.4v132.2l1.6,1.6H196l1.6-1.6v-32.4l0.9-32.1l-19.2,21.3L159.9,89l1.1,32.8v31.8l1.6,1.6h-32.1
					l1.6-1.6V21.2h1.8l45.4,50.9l45.2-50.7H226.5z"/>
				<path fill="#EE192D" d="M274.7,51.2c5.4,0,10.3,0.7,14.9,2.2c4.5,1.5,8.5,3.7,11.7,6.6c3.3,2.9,5.9,6.5,7.7,10.8
					c1.9,4.3,2.8,9.3,2.8,14.9v35.5c0,5.6-0.9,10.6-2.8,14.9s-4.4,7.9-7.6,10.8s-7.1,5.2-11.7,6.7c-4.5,1.6-9.5,2.3-14.9,2.3
					c-5.5,0-10.5-0.8-15.1-2.3c-4.5-1.6-8.5-3.8-11.7-6.7c-3.3-2.9-5.9-6.5-7.7-10.8c-1.9-4.3-2.8-9.3-2.8-14.9V85.7
					c0-5.6,0.9-10.6,2.8-14.9c1.9-4.3,4.4-7.9,7.7-10.8c3.3-2.9,7.2-5.1,11.7-6.6C264.3,51.9,269.3,51.2,274.7,51.2z M283.5,85.4
					c0-2.2-0.9-3.8-2.7-4.9c-1.8-1.1-3.8-1.7-6-1.7s-4.2,0.6-6,1.7c-1.8,1.1-2.7,2.8-2.7,4.9v35.9c0,2.2,0.9,3.8,2.6,4.9
					c1.7,1.1,3.7,1.7,5.8,1.7s4.2-0.5,6-1.6c1.9-1.1,2.8-2.7,3-5L283.5,85.4L283.5,85.4z"/>
				<path fill="#EE192D" d="M365,127.9h7.9l2.3-1.4v30.3l-2.5-1.3h-9.5c-3.5,0-6.9-0.3-10.3-0.8s-6.6-1.6-9.7-3.2
					c-3-1.6-5.8-3.9-8.3-6.8c-2.5-2.9-4.5-6.8-6.1-11.6V78.6h-9.7l-2,1.6V49.6l2,1.8h9.7V21.8l-2-1.8h32.1l-2,2.2v29.2h14.5l2-1.8
					v30.7l-2-1.6h-14.5v44.8c0.6,1.3,1.6,2.4,3,3.3C361.5,127.6,363.1,128,365,127.9z"/>
				<path fill="#EE192D" d="M419.7,51.2c5.4,0,10.3,0.7,14.9,2.2c4.5,1.5,8.5,3.7,11.7,6.6c3.3,2.9,5.9,6.5,7.7,10.8
					c1.9,4.3,2.8,9.3,2.8,14.9v35.5c0,5.6-0.9,10.6-2.8,14.9s-4.4,7.9-7.6,10.8s-7.1,5.2-11.7,6.7c-4.5,1.6-9.5,2.3-14.9,2.3
					c-5.5,0-10.5-0.8-15.1-2.3c-4.5-1.6-8.5-3.8-11.7-6.7c-3.3-2.9-5.9-6.5-7.7-10.8c-1.9-4.3-2.8-9.3-2.8-14.9V85.7
					c0-5.6,0.9-10.6,2.8-14.9c1.9-4.3,4.4-7.9,7.7-10.8c3.3-2.9,7.2-5.1,11.7-6.6C409.4,51.9,414.3,51.2,419.7,51.2z M428.5,85.4
					c0-2.2-0.9-3.8-2.7-4.9c-1.8-1.1-3.8-1.7-6-1.7s-4.2,0.6-6,1.7c-1.8,1.1-2.7,2.8-2.7,4.9v35.9c0,2.2,0.9,3.8,2.6,4.9
					c1.7,1.1,3.7,1.7,5.8,1.7s4.2-0.5,6-1.6c1.9-1.1,2.8-2.7,3-5L428.5,85.4L428.5,85.4z"/>
			</g>
		</g>
		<g>
			<g>
				<g>
					<g>
						<path fill="#FFFFFF" d="M525.7,84.5c4.2,1.4,8.4,3.2,12.7,5.4s8.2,4.8,11.6,8.1s6.2,7.1,8.2,11.5c2.1,4.4,3,9.7,2.8,15.8
							c-0.2,4.7-0.9,8.8-1.9,12.4c-1,3.6-2.3,6.7-3.9,9.4c-1.6,2.7-3.3,5-5.1,6.8c-1.9,1.9-3.6,3.4-5.3,4.6
							c-4.3,3.1-9.1,5.2-14.3,6.3c-5.2,1.1-10.4,1.4-15.7,1c-5.3-0.4-10.4-1.5-15.5-3.1c-5.1-1.7-9.7-3.7-13.7-6.1l8.8-28.1
							c2.9,1.3,6.3,2.7,10.2,4.2s7.8,2.5,11.6,3s7.1,0.2,10-1c2.9-1.1,4.8-3.8,5.7-8c0.6-2.6-0.2-4.9-2.2-6.7
							c-2.1-1.9-4.9-3.7-8.3-5.5c-3.5-1.8-7.3-3.8-11.6-6c-4.2-2.2-8.2-4.9-11.7-8.2s-6.5-7.2-8.9-12c-2.3-4.8-3.4-10.6-3.1-17.6
							c0.4-9,2.7-16.3,7-22.1s9.8-10,16.4-12.6c6.6-2.6,14-3.7,22.1-3.3s16,2.4,23.9,5.8l-9.3,25.8c-2-0.8-4.7-1.6-8.1-2.4
							c-3.3-0.8-6.6-1.1-9.9-0.9c-3.2,0.2-6.1,1-8.6,2.5s-4,4.1-4.5,7.8c-0.5,3.2,0.4,5.9,2.7,8.2C520,81.4,522.7,83.2,525.7,84.5z"
							/>
						<path d="M528.2,32.3c1.1,0,2.2,0,3.3,0.1c8.1,0.4,16,2.4,23.9,5.8L546.1,64c-2-0.8-4.7-1.6-8.1-2.4c-2.7-0.6-5.4-0.9-8-0.9
							c-0.6,0-1.2,0-1.8,0.1c-3.2,0.2-6.1,1-8.6,2.5s-4,4.1-4.5,7.8c-0.5,3.2,0.4,5.9,2.7,8.2c2.3,2.2,4.9,4,7.9,5.3
							c4.2,1.4,8.4,3.2,12.7,5.4s8.2,4.8,11.6,8.1s6.2,7.1,8.2,11.5c2.1,4.4,3,9.7,2.8,15.8c-0.2,4.7-0.9,8.8-1.9,12.4
							c-1,3.6-2.3,6.7-3.9,9.4c-1.6,2.7-3.3,5-5.1,6.8c-1.9,1.9-3.6,3.4-5.3,4.6c-4.3,3.1-9.1,5.2-14.3,6.3
							c-3.7,0.8-7.5,1.2-11.3,1.2c-1.5,0-2.9-0.1-4.4-0.2c-5.3-0.4-10.4-1.5-15.5-3.1c-5.1-1.7-9.7-3.7-13.7-6.1l8.8-28.1
							c2.9,1.3,6.3,2.7,10.2,4.2s7.8,2.5,11.6,3c1.1,0.1,2.2,0.2,3.2,0.2c2.5,0,4.7-0.4,6.7-1.2c2.9-1.1,4.8-3.8,5.7-8
							c0.6-2.6-0.2-4.9-2.2-6.7c-2.1-1.9-4.9-3.7-8.3-5.5c-3.5-1.8-7.3-3.8-11.6-6c-4.2-2.2-8.2-4.9-11.7-8.2s-6.5-7.2-8.9-12
							c-2.3-4.8-3.4-10.6-3.1-17.6c0.4-9,2.7-16.3,7-22.1s9.8-10,16.4-12.6C515.2,33.5,521.4,32.3,528.2,32.3 M528.2,20.3
							c-8.3,0-16.1,1.4-23.2,4.2c-8.7,3.5-16,9.1-21.6,16.6c-5.7,7.7-8.9,17.4-9.3,28.8c0,0,0,0,0,0.1c-0.3,8.9,1.2,16.7,4.3,23.2
							c3,6.1,6.9,11.4,11.6,15.7c4.3,3.9,9.1,7.2,14.2,9.9c1.4,0.7,2.7,1.4,3.9,2.1c-3.4-1.3-6.3-2.5-8.7-3.6
							c-1.6-0.7-3.3-1.1-5-1.1s-3.3,0.3-4.9,1c-3.2,1.4-5.5,4.1-6.6,7.4l-8.8,28.1c-1.7,5.3,0.6,11.1,5.4,13.9s10.2,5.2,16.1,7.2
							c5.9,2,12.1,3.2,18.3,3.7c1.8,0.1,3.6,0.2,5.4,0.2c4.6,0,9.2-0.5,13.7-1.4c6.8-1.4,13.2-4.2,18.8-8.3c2.2-1.6,4.4-3.5,6.8-5.8
							c2.6-2.6,4.9-5.7,7-9.3c2-3.5,3.7-7.6,5-12.1c1.3-4.4,2-9.5,2.3-15c0-0.1,0-0.1,0-0.2c0.3-8-1-15.2-3.9-21.4
							c-2.7-5.8-6.4-10.8-10.8-15.1c-4.2-4-9.1-7.4-14.4-10.1c-4.6-2.3-9.2-4.2-13.6-5.8c-0.4-0.2-0.8-0.4-1.2-0.6
							c0.3,0,0.7,0,1.1,0c1.7,0,3.5,0.2,5.3,0.6c3.4,0.8,5.2,1.4,6.2,1.8c1.5,0.6,3,0.9,4.6,0.9c1.7,0,3.3-0.3,4.9-1
							c3-1.3,5.3-3.8,6.4-6.9l9.3-25.8c2.1-5.9-0.7-12.5-6.5-15.1c-9.2-4-18.6-6.3-28.1-6.8C530.8,20.4,529.5,20.3,528.2,20.3
							L528.2,20.3z"/>
					</g>
					<g>
						<path fill="#FFFFFF" d="M566.2,44c0-3.5,0.8-6.3,2.5-8.6s3.7-4,6.2-5.1c2.4-1.1,5.1-1.7,8.1-1.7c2.9,0,5.6,0.6,8.1,1.7
							c2.4,1.1,4.5,2.8,6.2,5.1s2.5,5.1,2.5,8.6c0,3.3-0.8,6.2-2.5,8.5s-3.7,4-6.2,5.1s-5.1,1.6-8.1,1.7c-2.9,0.1-5.6-0.5-8.1-1.7
							s-4.5-2.9-6.2-5.1C567,50.3,566.2,47.4,566.2,44z M567.2,165.2l1.6-1.6v-97l-1.6-1.6h32.4l-1.6,1.6v97l1.6,1.6H567.2z"/>
						<path d="M582.9,28.6c2.9,0,5.6,0.6,8.1,1.7c2.4,1.1,4.5,2.8,6.2,5.1s2.5,5.1,2.5,8.6c0,3.3-0.8,6.2-2.5,8.5s-3.7,4-6.2,5.1
							s-5.1,1.6-8.1,1.7c-0.1,0-0.3,0-0.4,0c-2.8,0-5.3-0.6-7.6-1.7c-2.5-1.2-4.5-2.9-6.2-5.1c-1.7-2.2-2.5-5-2.5-8.5
							s0.8-6.3,2.5-8.6s3.7-4,6.2-5.1C577.3,29.1,580,28.6,582.9,28.6 M599.7,65l-1.6,1.6v97l1.6,1.6h-32.4l1.6-1.6v-97l-1.6-1.6
							H599.7 M582.9,16.6c-4.7,0-9.1,0.9-13.1,2.8c-4.3,2-7.9,5-10.8,8.9c-3.2,4.4-4.9,9.7-4.9,15.7c0,5.2,1.2,9.8,3.5,13.7
							c-0.6,0.8-1.1,1.7-1.6,2.7c-1.5,3.5-1.1,7.4,0.7,10.6v88.2c-1.8,3.2-2.2,7.1-0.7,10.6c1.9,4.5,6.2,7.4,11.1,7.4h32.4
							c4.9,0,9.2-2.9,11.1-7.4c1.5-3.5,1.1-7.4-0.7-10.6V71c1.8-3.2,2.2-7.1,0.7-10.6c-0.5-1.3-1.3-2.5-2.2-3.5
							c2.1-3.8,3.1-8.1,3.1-12.9c0-6.1-1.6-11.4-4.8-15.7c-2.9-3.9-6.5-6.9-10.8-8.9C592,17.5,587.6,16.6,582.9,16.6L582.9,16.6z
							 M599.7,77L599.7,77L599.7,77L599.7,77z"/>
					</g>
					<g>
						<path fill="#FFFFFF" d="M652.9,137.9h7.9l2.3-1.4v30.3l-2.5-1.3h-9.5c-3.5,0-6.9-0.3-10.3-0.8s-6.6-1.6-9.7-3.2
							c-3-1.6-5.8-3.9-8.3-6.8s-4.5-6.8-6.1-11.6V88.6H607l-2,1.6V59.6l2,1.8h9.7V31.8l-2-1.8h32.1l-2,2.2v29.2h14.5l2-1.8v30.7
							l-2-1.6h-14.4v44.8c0.6,1.3,1.6,2.4,3,3.3C649.4,137.6,651,138,652.9,137.9z"/>
						<path d="M646.8,30L646.8,30 M646.8,30l-2,2.2v29.2h14.5l2-1.8v30.7l-2-1.6h-14.4v44.8c0.6,1.3,1.6,2.4,3,3.3
							c1.3,0.8,2.7,1.2,4.4,1.2c0.2,0,0.4,0,0.7,0h7.9l2.3-1.4v30.3l-2.5-1.3h-9.5c-3.5,0-6.9-0.3-10.3-0.8s-6.6-1.6-9.7-3.2
							c-3-1.6-5.8-3.9-8.3-6.8s-4.5-6.8-6.1-11.6V88.6h-9.7l-2,1.6V59.6l2,1.8h9.7V31.8l-2-1.8H646.8 M646.9,18L646.9,18h-32.1
							c-5,0-9.4,3-11.2,7.7c-1.4,3.7-0.9,7.7,1.2,10.9v11c-1.5,0-3.1,0.4-4.5,1c-4.3,1.9-7.1,6.2-7.1,11v30.7
							c0,4.6,2.7,8.9,6.9,10.8c1.5,0.7,3.2,1.1,4.8,1.2v40.9c0,1.3,0.2,2.5,0.6,3.7c2,6.3,4.9,11.5,8.4,15.7
							c3.5,4.1,7.5,7.3,11.8,9.6c4.2,2.2,8.7,3.7,13.4,4.5c4,0.6,8.1,1,12.2,1h6.7c1.7,0.8,3.5,1.3,5.3,1.3c2.2,0,4.4-0.6,6.3-1.8
							c3.5-2.2,5.7-6,5.7-10.2v-30.3c0-4.3-2.4-8.4-6.1-10.5c-1.8-1-3.8-1.5-5.9-1.5c-2,0-3.9,0.5-5.7,1.4h-0.7v-24.6
							c1.4,0.6,3,0.9,4.5,0.9c1.7,0,3.5-0.4,5.1-1.2c4.2-2,6.9-6.2,6.9-10.8V59.6c0-4.8-2.8-9.1-7.1-11c-1.6-0.7-3.2-1-4.9-1
							c-1.5,0-3.1,0.3-4.5,0.9V36.6c1.2-1.9,2-4.2,2-6.6C658.8,23.4,653.5,18,646.9,18L646.9,18z M646.8,42L646.8,42L646.8,42
							L646.8,42z"/>
					</g>
					<g>
						<path fill="#FFFFFF" d="M698.3,130.9c0,2.6,1,4.6,3,6s4.1,2.1,6.5,2.2c2.3,0.1,4.5-0.5,6.5-1.8c2-1.3,3.1-3.2,3.2-5.8h26
							c0,6.3-0.9,11.7-2.6,16c-1.7,4.3-4.2,7.8-7.3,10.6c-3.1,2.8-6.8,4.7-11.2,5.9c-4.4,1.2-9.2,1.8-14.6,1.8
							c-11.7,0-20.9-3-27.4-9.1c-6.6-6.1-9.9-14.6-9.9-25.5V96.6c0-4.8,0.6-9.3,1.9-13.5c1.3-4.2,3.3-7.9,6.3-11.1
							c2.9-3.2,6.8-5.7,11.7-7.5c4.8-1.9,10.8-2.8,17.8-2.8c11.2,0,19.9,2.7,26,8.2c6.1,5.4,9.1,13.8,9.1,25c0,6.3-1.3,11.4-4,15.3
							c-2.7,3.9-6.2,7.1-10.5,9.7c-4.3,2.6-9.1,4.7-14.5,6.3S703.6,129.3,698.3,130.9z M716.8,95.1c0-2.3-1-4-2.9-5.1
							s-4-1.7-6.4-1.7s-4.5,0.5-6.4,1.6s-2.9,2.6-2.9,4.7v10c4.1-0.7,7.3-1.4,9.8-2.2c2.4-0.7,4.3-1.4,5.6-2.2
							c1.3-0.7,2.2-1.5,2.5-2.3C716.6,97.1,716.8,96.1,716.8,95.1z"/>
						<path d="M708.2,61.5c11.2,0,19.9,2.7,26,8.2c6.1,5.4,9.1,13.8,9.1,25c0,6.3-1.3,11.4-4,15.3c-2.7,3.9-6.2,7.1-10.5,9.7
							c-4.3,2.6-9.1,4.7-14.5,6.3s-10.7,3.3-16,4.9c0,2.6,1,4.6,3,6s4.1,2.1,6.5,2.2c0.1,0,0.2,0,0.3,0c2.2,0,4.3-0.6,6.2-1.8
							c2-1.3,3.1-3.2,3.2-5.8h26c0,6.3-0.9,11.7-2.6,16c-1.7,4.3-4.2,7.8-7.3,10.6c-3.1,2.8-6.8,4.7-11.2,5.9
							c-4.4,1.2-9.2,1.8-14.6,1.8c-11.7,0-20.9-3-27.4-9.1c-6.6-6.1-9.9-14.6-9.9-25.5V96.6c0-4.8,0.6-9.3,1.9-13.5
							c1.3-4.2,3.3-7.9,6.3-11.1c2.9-3.2,6.8-5.7,11.7-7.5C695.2,62.5,701.1,61.5,708.2,61.5 M698.3,104.6c4.1-0.7,7.3-1.4,9.8-2.2
							c2.4-0.7,4.3-1.4,5.6-2.2c1.3-0.7,2.2-1.5,2.5-2.3c0.4-0.8,0.5-1.8,0.5-2.9c0-2.3-1-4-2.9-5.1s-4-1.7-6.4-1.7
							s-4.5,0.5-6.4,1.6s-2.9,2.6-2.9,4.7v10.1 M743.5,131.5L743.5,131.5 M708.2,49.5c-8.5,0-15.9,1.2-22.1,3.6
							c-6.6,2.5-12,6.1-16.2,10.6s-7.2,9.9-9,15.9c-1.6,5.3-2.4,11-2.4,16.9v34.6c0,14.3,4.6,25.8,13.7,34.3
							c8.8,8.2,20.8,12.3,35.6,12.3c6.4,0,12.4-0.7,17.8-2.2c6.1-1.7,11.5-4.5,16-8.5s8-9.1,10.4-15.1c2.3-5.7,3.4-12.4,3.5-20.2
							c0-0.1,0-0.2,0-0.3c0-5.5-3.7-10.1-8.7-11.5c0.8-1,1.6-2,2.3-3.1c4.1-5.9,6.2-13.4,6.2-22.2c0-14.7-4.4-26.2-13.2-34
							C733.8,53.3,722.4,49.5,708.2,49.5L708.2,49.5z"/>
					</g>
				</g>
			</g>
			<g>
				<g>
					<path fill="#FFFFFF" d="M525.7,84.5c4.2,1.4,8.4,3.2,12.7,5.4s8.2,4.8,11.6,8.1s6.2,7.1,8.2,11.5c2.1,4.4,3,9.7,2.8,15.8
						c-0.2,4.7-0.9,8.8-1.9,12.4c-1,3.6-2.3,6.7-3.9,9.4c-1.6,2.7-3.3,5-5.1,6.8c-1.9,1.9-3.6,3.4-5.3,4.6
						c-4.3,3.1-9.1,5.2-14.3,6.3c-5.2,1.1-10.4,1.4-15.7,1c-5.3-0.4-10.4-1.5-15.5-3.1c-5.1-1.7-9.7-3.7-13.7-6.1l8.8-28.1
						c2.9,1.3,6.3,2.7,10.2,4.2s7.8,2.5,11.6,3s7.1,0.2,10-1c2.9-1.1,4.8-3.8,5.7-8c0.6-2.6-0.2-4.9-2.2-6.7
						c-2.1-1.9-4.9-3.7-8.3-5.5c-3.5-1.8-7.3-3.8-11.6-6c-4.2-2.2-8.2-4.9-11.7-8.2s-6.5-7.2-8.9-12c-2.3-4.8-3.4-10.6-3.1-17.6
						c0.4-9,2.7-16.3,7-22.1s9.8-10,16.4-12.6c6.6-2.6,14-3.7,22.1-3.3s16,2.4,23.9,5.8l-9.3,25.8c-2-0.8-4.7-1.6-8.1-2.4
						c-3.3-0.8-6.6-1.1-9.9-0.9c-3.2,0.2-6.1,1-8.6,2.5s-4,4.1-4.5,7.8c-0.5,3.2,0.4,5.9,2.7,8.2C520,81.4,522.7,83.2,525.7,84.5z"
						/>
					<path fill="#FFFFFF" d="M566.2,44c0-3.5,0.8-6.3,2.5-8.6s3.7-4,6.2-5.1c2.4-1.1,5.1-1.7,8.1-1.7c2.9,0,5.6,0.6,8.1,1.7
						c2.4,1.1,4.5,2.8,6.2,5.1s2.5,5.1,2.5,8.6c0,3.3-0.8,6.2-2.5,8.5s-3.7,4-6.2,5.1s-5.1,1.6-8.1,1.7c-2.9,0.1-5.6-0.5-8.1-1.7
						s-4.5-2.9-6.2-5.1C567,50.3,566.2,47.4,566.2,44z M567.2,165.2l1.6-1.6v-97l-1.6-1.6h32.4l-1.6,1.6v97l1.6,1.6H567.2z"/>
					<path fill="#FFFFFF" d="M652.9,137.9h7.9l2.3-1.4v30.3l-2.5-1.3h-9.5c-3.5,0-6.9-0.3-10.3-0.8s-6.6-1.6-9.7-3.2
						c-3-1.6-5.8-3.9-8.3-6.8s-4.5-6.8-6.1-11.6V88.6H607l-2,1.6V59.6l2,1.8h9.7V31.8l-2-1.8h32.1l-2,2.2v29.2h14.5l2-1.8v30.7
						l-2-1.6h-14.4v44.8c0.6,1.3,1.6,2.4,3,3.3C649.4,137.6,651,138,652.9,137.9z"/>
					<path fill="#FFFFFF" d="M698.3,130.9c0,2.6,1,4.6,3,6s4.1,2.1,6.5,2.2c2.3,0.1,4.5-0.5,6.5-1.8c2-1.3,3.1-3.2,3.2-5.8h26
						c0,6.3-0.9,11.7-2.6,16c-1.7,4.3-4.2,7.8-7.3,10.6c-3.1,2.8-6.8,4.7-11.2,5.9c-4.4,1.2-9.2,1.8-14.6,1.8
						c-11.7,0-20.9-3-27.4-9.1c-6.6-6.1-9.9-14.6-9.9-25.5V96.6c0-4.8,0.6-9.3,1.9-13.5c1.3-4.2,3.3-7.9,6.3-11.1
						c2.9-3.2,6.8-5.7,11.7-7.5c4.8-1.9,10.8-2.8,17.8-2.8c11.2,0,19.9,2.7,26,8.2c6.1,5.4,9.1,13.8,9.1,25c0,6.3-1.3,11.4-4,15.3
						c-2.7,3.9-6.2,7.1-10.5,9.7c-4.3,2.6-9.1,4.7-14.5,6.3S703.6,129.3,698.3,130.9z M716.8,95.1c0-2.3-1-4-2.9-5.1s-4-1.7-6.4-1.7
						s-4.5,0.5-6.4,1.6s-2.9,2.6-2.9,4.7v10c4.1-0.7,7.3-1.4,9.8-2.2c2.4-0.7,4.3-1.4,5.6-2.2c1.3-0.7,2.2-1.5,2.5-2.3
						C716.6,97.1,716.8,96.1,716.8,95.1z"/>
				</g>
			</g>
		</g>
		<path d="M178.8,161.2c-0.3-0.4-0.7-0.6-1.3-0.5c-11.5,1.1-23.1,1.9-34.6,2.3c-2.9,0.1-5.8,0.2-8.7,0.2c-2.6,0-5.3,0.1-7.8-0.6
			c-4.1-1.2-7.4-4.8-8-9.1c-0.4-3,0.4-6.2,1.2-9c0.4-1.4,0.9-2.8,1.4-4.1c0.4-0.9,0.8-2.2,1.5-3c0.3,0.2,0.6,0.3,1,0.3
			c2.1,0,4.3,0.1,6.4,0c2.1-0.1,3.9-0.6,5.9-1c2.1-0.4,3.4,1,5,2c1.9,1.3,4.1,1.8,6.3,2.1c2.4,0.2,4.3-0.8,6.4-1.8
			c1.9-1,3.9-1.9,5.4-3.4s1.7-3.6,2.6-5.5c0.9-2,1.4-4,1.2-6.2c0.2-0.3,0.3-0.6,0.3-0.9c0.3-2.3,0.2-4.6-1.5-6.4
			c-1.6-1.6-3.1-2.4-5.2-3c-2.1-0.6-4.5-0.7-6.6-1.6c-2.2-0.9-3.8-3.4-5.4-5.1c-1-1.1-1.3-1.7-1.2-3.1c0.1-1.2,0.4-2.4,0.8-3.5
			c0.8-2,2.1-3.8,3.6-5.3c2.9-3,6.3-5.5,8.2-9.4c0.1-0.2,0.2-0.5,0.2-0.7c0.1-0.2,0.3-0.4,0.3-0.6c2.7-8.5,4-17.5,3.4-26.4
			c-0.3-4.4-0.4-9.1-1.6-13.4c-1.1-4.1-3.4-7.7-6.2-11c-1.3-1.6-2.7-3-4.2-4.5c-5.9-5.5-14-9.5-23-9.5c-4.8,0-9.4,1.1-13.5,2.9
			c-1,0.4-2,0.9-3,1.6c-8.6,5.1-12.5,14.2-12.5,24.5c0,0.5,0,1,0,1.5c-5.9-0.5-14.2-0.7-20-0.3c-1.1-3-3.1-5.6-5.8-7.4
			c-3.5-2.2-7.7-2.8-11.8-2.9c-4-0.1-6.7,0.6-9.7,3.4c-2.8,2.7-3.2,6.4-2.6,10.1c0.5,3.6,0.5,7.5-1.2,11c-0.4,0.9-1,1.8-1.7,2.5
			c-0.4,0.5-1.3,1.8-1.9,2c-0.5,0.2-1.5-0.4-2.1-0.4c-0.9,0-1.7,0.3-2.3,1c-1.3,1.4-1.7,3.7-2.3,5.4c-0.8,2.2-1.6,4.4-2.4,6.6
			c-0.7,1.9-1.3,4-2.6,5.6c-1.1,1.3-2.8,2-4.4,2.4c-3.6,1-7.5,0.8-10.1,3.9c-1.4,1.7-1.2,3.8,0.1,5.4c1.3,1.6,1.7,2.9,3.2,4.3
			c-0.2,0.1-0.4,0.3-0.6,0.5c-6.8,9.8-15.8,19.4-17.2,31.8c-1.5,13.4,8.4,24.3,17.9,32.2c3.1,2.5,6.2,5,9.7,6.9
			c3.5,2,7.3,3.8,11.2,4.6c0.3,0.3,0.7,0.4,1.2,0.4c21.3,0,42.6,0,63.8,0h0.1c17.9,0,35.9,0,53.8,0c0.1,0,0.2,0,0.3,0
			c9.9-0.4,18.3-6.5,21.8-15.9C180.7,162.1,179.8,161.3,178.8,161.2z"/>
		<g>
			<path fill="#FFFFFF" d="M124.7,86.1l3.2,6.7c-2,2.4-5,4.8-9,7.5c-6.7,4.5-13.1,6.5-17,7.1c4.1-1.9,10.5-5.1,16.1-11
				C121.3,92.8,123.1,89,124.7,86.1z"/>
			<path fill="#FFFFFF" d="M118.7,81l1.6,2.6c-1.2,2-2.5,3.9-4.5,6.3c-2.4,2.8-4.9,5-7,6.5c1.8-1.7,4-4.2,6.1-7.5
				C116.7,86,117.9,83.2,118.7,81z"/>
			<path fill="#FFFFFF" d="M77.1,63.5c-0.2,0.1-0.7,0.5-1,1.3c-0.4,0.9-0.2,1.7-0.1,1.9c0.9,0,1.9-0.1,2.9-0.2
				c1.4-0.1,2.6-0.3,3.8-0.5c-0.5-0.5-1.4-1.1-2.5-1.7C78.9,63.7,77.8,63.5,77.1,63.5z"/>
			
				<ellipse transform="matrix(0.9902 -0.1395 0.1395 0.9902 -13.9211 10.3631)" fill="#FFFFFF" cx="67" cy="104.5" rx="4" ry="4.4"/>
			
				<ellipse transform="matrix(0.9902 -0.1395 0.1395 0.9902 -16.4348 14.2968)" fill="#FFFFFF" cx="93.8" cy="124.4" rx="4.4" ry="4"/>
			<path fill="#FFFFFF" d="M65.5,100.5c0-1.6,0.1-3.4,0.3-5.3c0.2-1.9,0.6-3.7,1-5.2c0.2,1.9,0.4,4,0.5,6.2c0.1,1.4,0.1,2.8,0,4.2
				C66.7,100.5,66.1,100.5,65.5,100.5z"/>
			<path fill="#FFFFFF" d="M95,122.6c1.6-0.1,3.4-0.2,5.3-0.1c1.9,0.1,3.7,0.3,5.2,0.5c-1.9,0.4-3.9,0.8-6.2,1.1
				c-1.4,0.2-2.8,0.3-4.1,0.4C95.2,123.8,95.1,123.2,95,122.6z"/>
			<path fill="#FFFFFF" d="M99.6,111.1c-5.3,1.3-9.7,2.2-14.2,3.8l-4.7-3.7c0.5-4.8,0.4-10.2-0.3-17c-0.7-7-2.7-13-4.2-17.7
				l-6.6,9.1c1.5,2.9,3,6.6,4.2,11.1c1.6,6.2,2.9,10.9,2.8,15c0,0,0,0,0.1,0l9,7.1c3.7-0.7,7.8-2,13-2s9.8,0.6,13.5,1.3l7.3-10.4
				C113.5,108.1,106.8,109.3,99.6,111.1z"/>
			<path fill="#FFFFFF" d="M44.5,95.5C44.5,95.5,44.5,95.6,44.5,95.5c-0.6,0.6-0.3,1.3,0.3,1.5c0.7,0.3,1.5,0,2.1-0.6l0.1-0.1
				c0.5-0.5,0.2-1.2-0.4-1.4C45.9,94.7,45,95,44.5,95.5L44.5,95.5z"/>
			<path fill="#FFFFFF" d="M65.7,59.4c0,1.5-1.2,1.7-2.7,1.7c-1.5,0-5.7-4.2-5.7-5.7s1.2-2.7,2.7-2.7C61.5,52.7,65.7,57.9,65.7,59.4
				z"/>
			<path fill="#FFFFFF" d="M144.4,114.5c0.8,1.3-0.2,2.1-1.5,2.9c-1.3,0.8-7.1-0.8-7.9-2.1c-0.8-1.3-0.3-3,1-3.7
				C137.3,110.8,143.6,113.2,144.4,114.5z"/>
			<path fill="#FFFFFF" d="M127.7,106.4c-0.5-1.5-0.2-3,0.5-4.4c0.3-0.5,0.9-1.4,1.5-1.7c0.4-0.1,0.6-0.2,0.7,0.3
				c0.1,0.4-0.1,1.1-0.2,1.4c-0.2,0.6-0.4,1.2-0.5,1.8c-0.1,0.5-0.1,1.3-0.3,1.7c-0.3,0.7-0.2,0.3-0.4,0c-0.2-0.5-0.5-0.9-0.8-1.3
				c-0.1-0.1-0.2-0.1-0.3,0c-0.7,0.8-1.2,2.1-0.4,3.1c0.6,0.8,2.2,0.8,2.9,0.1c1.1-0.9,0.5-2.5,0.5-3.7c0-1.5,0.1-2.7-0.5-4
				l-0.1-0.1C127.3,100.8,126.2,103.7,127.7,106.4C127.7,106.5,127.7,106.5,127.7,106.4L127.7,106.4z"/>
			<path fill="#FFFFFF" d="M128.8,101.2c-0.1,0.3-0.4,0.6-0.5,1c-0.1,0.3-0.2,0.5-0.4,0.8c-0.2,0.4-0.5,0.8-0.2,1.2
				c0.1,0.2,0.3,0.2,0.4,0.1c0.3-0.4,0.2-0.7,0.2-1.1C128.3,102.6,128.5,101.7,128.8,101.2C128.9,101.2,128.8,101.2,128.8,101.2
				L128.8,101.2z"/>
			<path fill="#FFFFFF" d="M128.7,104.5c0,0-0.1-0.4-0.1-0.5h-0.1c-0.1,0.2-0.2,0.6,0,0.8C128.7,105,128.9,104.6,128.7,104.5
				L128.7,104.5z"/>
			<path fill="#FFFFFF" d="M129.7,100.5c-0.1,0.3-0.2,0.6-0.3,0.9c0,0,0.1,0.1,0.1,0c0.1-0.3,0.2-0.6,0.4-0.8
				C129.9,100.5,129.7,100.4,129.7,100.5L129.7,100.5z"/>
			<path fill="#FFFFFF" d="M129.8,101c-0.1,0.1-0.1,0.2-0.2,0.4c0.1,0.1,0.2,0.1,0.3,0.2c0.2-0.3,0.3-0.5,0.4-0.9
				c-0.2,0-0.4,0-0.5,0c0,0.2,0,0.4-0.1,0.5c-0.1,0.4,0.5,0.5,0.6,0.1c0-0.2,0-0.4,0.1-0.7c0-0.3-0.4-0.4-0.5-0.1
				c-0.2,0.3-0.2,0.6-0.2,1c0,0.2,0.3,0.2,0.3,0C129.9,101.3,129.9,101.1,129.8,101C129.9,101,129.8,100.9,129.8,101L129.8,101z"/>
			<path fill="#FFFFFF" d="M130.1,100.5c0,0.2-0.1,0.4-0.2,0.6c0,0.1-0.1,0.2,0,0.3l0.1,0.1c0,0.1,0.1,0.1,0.2,0.1
				c0,0,0.1,0,0.1-0.1c0.1-0.1,0.2-0.2,0.1-0.3c-0.1-0.2-0.2-0.4-0.2-0.6C130.2,100.5,130.1,100.5,130.1,100.5L130.1,100.5z"/>
			<path fill="#FFFFFF" d="M130.3,100.6c0,0.2-0.1,0.4-0.1,0.5c-0.1,0.5,0.8,0.4,0.5-0.1C130.5,100.9,130.5,100.7,130.3,100.6
				L130.3,100.6L130.3,100.6z"/>
			<path fill="#FFFFFF" d="M130.2,100.6c0,0.1,0.1,0.2,0.1,0.3s0.1,0,0.1,0C130.3,100.8,130.3,100.7,130.2,100.6
				C130.2,100.5,130.1,100.5,130.2,100.6L130.2,100.6z"/>
			<path fill="#FFFFFF" d="M130.1,100.4c0,0.1,0.1,0.1,0.1,0.2c0.1,0.2,0.3,0,0.2-0.1c0-0.1-0.1-0.1-0.1-0.2
				C130.2,100.1,130,100.3,130.1,100.4L130.1,100.4z"/>
			<path fill="#FFFFFF" d="M130,100.3c-0.5,0.1-1,0.4-1.3,0.8c-0.3,0.5,0.6,0.9,0.8,0.3c0.1-0.4,0.4-0.7,0.7-0.9
				C130.2,100.5,130.1,100.3,130,100.3L130,100.3z"/>
			<path fill="#FFFFFF" d="M129.7,100.5c-0.3,0.4-0.7,0.8-1,1.2s-0.5,0.7-0.7,1.1c-0.1,0.2,0,0.4,0.1,0.5c0,0,0,0.1,0.1,0.1
				c0.1,0.1,0.3,0.2,0.5,0.1c0.4-0.3,0.3-0.7,0.4-1.1C129.2,101.9,129.4,101.1,129.7,100.5C129.8,100.6,129.7,100.5,129.7,100.5
				L129.7,100.5z"/>
			<path fill="#FFFFFF" d="M128.8,101.5c-0.3,0.2-0.6,0.4-0.8,0.8c-0.6,0.8,1.3,1.2,1,0.1c-0.1-0.3-0.1-0.5,0-0.8
				C129,101.5,128.9,101.5,128.8,101.5L128.8,101.5z"/>
			<path fill="#FFFFFF" d="M128.8,101.2c-0.3,0.5-0.6,0.9-0.7,1.4c-0.1,0.4,0.5,0.5,0.6,0.1c0-0.5,0.2-0.9,0.4-1.3
				C129.2,101.2,128.9,101,128.8,101.2L128.8,101.2z"/>
			<path fill="#FFFFFF" d="M128.7,101.5c-0.2,0.5-0.5,1-0.7,1.5c-0.3,0.7,1.2,1,1,0c-0.1-0.5-0.1-1-0.1-1.5
				C128.9,101.4,128.8,101.4,128.7,101.5L128.7,101.5z"/>
			<path fill="#FFFFFF" d="M129.4,101.3c-0.9,0.8-1.7,2-1.4,3.3c0.1,0.5,0.7,0.9,1.2,0.8c0.6-0.1,1-0.5,1-1.1s0-1.1-0.1-1.6
				s-0.3-0.9-0.5-1.3C129.5,101.2,129.4,101.2,129.4,101.3L129.4,101.3z"/>
			<path fill="#FFFFFF" d="M129.8,101.5c0,0.2,0,0.4-0.1,0.6c-0.2,0.6,0.7,0.5,0.5,0.1C130.1,101.9,130,101.7,129.8,101.5
				C129.9,101.4,129.8,101.4,129.8,101.5L129.8,101.5z"/>
			<path fill="#FFFFFF" d="M130,101.5c0,0.2-0.1,0.4-0.2,0.6c0,0.1,0,0.3,0.1,0.4l0.1,0.1c0.1,0.1,0.2,0.1,0.3,0l0.1-0.1
				c0.1-0.1,0.1-0.3,0.1-0.4c-0.1-0.2-0.2-0.4-0.3-0.6C130.1,101.4,130,101.4,130,101.5L130,101.5z"/>
			<path fill="#FFFFFF" d="M130.2,101.3c-0.1,0.2-0.1,0.3-0.2,0.5c-0.1,0.4,0.6,0.5,0.5,0C130.6,101.6,130.5,101.5,130.2,101.3
				C130.3,101.3,130.2,101.3,130.2,101.3L130.2,101.3z"/>
			<path fill="#FFFFFF" d="M130,101.3c-0.2,0.1-0.4,0.3-0.5,0.5c-0.1,0.1,0,0.3,0,0.4c0,0,0,0.1,0.1,0.1c0.1,0.1,0.2,0.1,0.2,0
				c0,0,0.1,0,0.1-0.1c0.1-0.1,0.2-0.2,0.1-0.4C130,101.7,130.1,101.6,130,101.3C130.1,101.3,130,101.3,130,101.3L130,101.3z"/>
			<path fill="#FFFFFF" d="M129.8,102.1c-0.2,0.5-0.3,0.9-0.5,1.4s-0.2,0.9-0.3,1.4c-0.1,0.6,0.8,0.9,0.9,0.3
				c0.1-0.5,0.2-1.1,0.1-1.6C130,103.1,129.9,102.6,129.8,102.1C129.8,102,129.8,102,129.8,102.1L129.8,102.1z"/>
			<path fill="#FFFFFF" d="M129.4,104.1c-0.3,0.6-0.8,1.3-0.6,1.9c0.2,0.4,0.7,0.5,0.9,0.1c0.4-0.6,0-1.4-0.2-2.1
				C129.6,104,129.5,104,129.4,104.1L129.4,104.1z"/>
			<path fill="#FFFFFF" d="M127.7,103.9c-0.2,0.1-0.4,0.3-0.5,0.5s-0.1,0.5,0.1,0.7c0.1,0.1,0.1,0.1,0.2,0.2c0.2,0.1,0.6,0,0.6-0.3
				l0,0c0.1-0.2,0.1-0.5-0.1-0.7c-0.1-0.1-0.1-0.2-0.2-0.3C127.8,103.8,127.7,103.8,127.7,103.9L127.7,103.9z"/>
			<g>
				<path fill="#FFFFFF" d="M127.8,102.6"/>
				<g>
					<path fill="#0EAA00" d="M127.8,102.7C127.9,102.7,127.9,102.6,127.8,102.7C127.7,102.6,127.7,102.7,127.8,102.7L127.8,102.7z"
						/>
				</g>
			</g>
			<path fill="#FFFFFF" d="M128.2,102.7c-0.1,0.3-0.2,0.5-0.3,0.9c0,0.1,0.2,0.2,0.2,0C128.1,103.3,128.2,103,128.2,102.7
				C128.3,102.7,128.3,102.7,128.2,102.7L128.2,102.7z"/>
			<path fill="#FFFFFF" d="M127.8,103.2c0.1-0.3,0.2-0.5,0.4-0.8c0.2-0.2-0.2-0.5-0.3-0.2C127.8,102.6,127.7,102.9,127.8,103.2
				C127.7,103.2,127.8,103.3,127.8,103.2L127.8,103.2z"/>
			<path fill="#FFFFFF" d="M120.2,115.5c-0.2,0.3-0.4,0.7-0.6,1c-0.2,0.4-0.2,0.8-0.3,1.2c-0.1,0.7,1,1.1,1.2,0.3
				c0.1-0.4,0.2-0.9,0.2-1.3c0-0.4-0.2-0.8-0.3-1.2C120.4,115.4,120.2,115.4,120.2,115.5L120.2,115.5z"/>
			<path fill="#FFFFFF" d="M120.4,115.6c-0.2,0.3-0.4,0.6-0.6,0.9c-0.1,0.3-0.2,0.8-0.2,1.1c-0.1,0.6-0.3,1.3,0.2,1.7
				c0.1,0.1,0.3,0.1,0.4,0.1c0.6-0.3,0.6-1,0.7-1.6c0-0.3,0.1-0.7,0.1-1.1c0-0.4-0.2-0.8-0.3-1.1
				C120.7,115.5,120.5,115.5,120.4,115.6L120.4,115.6z"/>
			<path fill="#FFFFFF" d="M118.7,116.5c-0.2,0.3-0.5,0.6-0.7,0.9c-0.3,0.4-0.6,0.7-0.6,1.2c0,0.4,0.5,0.8,0.9,0.5
				c0.7-0.5,0.7-1.6,0.9-2.4C119.2,116.5,118.9,116.2,118.7,116.5L118.7,116.5z"/>
			<path fill="#FFFFFF" d="M119.3,117.2h-0.1c-0.4,0.1,0.2,0.7,0.2,0.2L119.3,117.2C119.5,117.3,119.4,117.2,119.3,117.2
				L119.3,117.2z"/>
			<path fill="#FFFFFF" d="M121.9,112.1c-0.1,0.2-0.2,0.4-0.4,0.6c-0.3,0.3,0.3,0.6,0.4,0.2C122,112.6,122,112.4,121.9,112.1
				C122,112.1,121.9,112,121.9,112.1L121.9,112.1z"/>
			<path fill="#FFFFFF" d="M120,112c-1.3,1.7-15.4,18.2-19.4,19l0,0H90.2c-0.5,3.1-1.5,6.9-3.2,11.1c-1.6,3.9-3.4,7.1-5.1,9.6
				l22.2-20.2c1.5,0.1,3.3-0.1,4.1-0.1c3.1,0,9.4-0.6,9.4-0.6s4.6-15.1,5.2-18.1c1.6-0.2,5-0.2,6.9-0.2c2.2,0.1,4.2,0.4,5.6,0.8
				c0-0.6,1-1.4,1-2C136.5,111.4,120.2,111.7,120,112z M119.4,117.2L119.4,117.2L119.4,117.2L119.4,117.2z M119.5,116.5L119.5,116.5
				L119.5,116.5L119.5,116.5z"/>
			<path fill="#FFFFFF" d="M47.1,135.2c-0.9,0.7-1.7,1.2-2.5,2c-0.8,0.8-1.5,1.5-2.3,2.2c-1.6,1.4-3.2,2.8-4.9,4
				c-1.6,1.2-3.4,2.4-5.2,3.3c-0.8,0.4-1.7,0.7-2.6,0.5c-0.9-0.2-1.5-1-2.3-1.3c-0.9-0.4-2.2,0.6-2.1,1.6c0.3,2.4,2.9,3.4,5.1,3.3
				c2.6-0.2,5-1.8,7-3.4c2.1-1.6,4-3.4,5.8-5.3c0.8-0.9,1.6-1.9,2.4-2.9c0.9-1.2,1.4-2.3,2-3.7C47.5,135.2,47.3,135,47.1,135.2
				L47.1,135.2z"/>
			<path fill="#FFFFFF" d="M19.7,124.5c-1.7,1.2-3.4,2.5-5.1,3.8c-1.6,1.2-3.8,3-5.9,2.6c-2.3-0.4-2.6,3.1-0.4,3
				c2.7-0.1,4.4-1.9,6.3-3.6c1.9-1.8,3.8-3.6,5.3-5.7C20,124.6,19.8,124.4,19.7,124.5L19.7,124.5z"/>
			<path fill="#FFFFFF" d="M20.5,116.4c-1.5,1-2.8,2.4-4,3.7c-1.3,1.5-2.8,2.8-4.1,4.3c-1.2,1.3,0.6,3.1,2,2
				c1.5-1.3,2.7-2.9,3.9-4.5c1.1-1.5,2.3-3.1,3-4.8C21.5,116.5,20.9,116.1,20.5,116.4L20.5,116.4z"/>
			<path fill="#FFFFFF" d="M26.5,109.9c-0.7-1.2-2.4-1-3.6-0.8c-0.9,0.1-1.4,1.2-1.2,2s1.2,1.4,2,1.2c1-0.3,2.1-0.4,2.7-1.4
				C26.7,110.6,26.7,110.2,26.5,109.9L26.5,109.9z"/>
			<path fill="#FFFFFF" d="M40.9,93.8c-1.6,1.8-3.2,3.6-4.8,5.4c-1.5,1.7-3.4,4.2-6,3.7c-2.4-0.5-2.6,3.3-0.4,3.1
				c1.2-0.1,2.1-0.5,2.9-1.5c1-1.2,2.1-2.2,3.2-3.3c2.2-2.1,3.9-4.5,5.7-6.9C41.9,93.9,41.3,93.5,40.9,93.8L40.9,93.8z"/>
			<path fill="#FFFFFF" d="M42.5,88.1c-0.3-0.6-0.9-0.9-1.6-0.8c-0.6,0.1-1.1,0.6-1.4,1.1c-0.1,0.2-0.9,2.2-0.3,2.7
				c0.6,0.5,1.5,0.6,2.1,0c0.4-0.4,0.6-0.8,0.7-1.3C42.1,89.9,42.8,88.7,42.5,88.1z M42,89.9c0-0.1,0.1-0.1,0.1-0.2l0,0
				C42.1,89.8,42.1,89.8,42,89.9z"/>
			<path fill="#FFFFFF" d="M45.3,78.1c-0.6-1.2-2.3-2-3.4-2.7c-0.1,0-0.1-0.1-0.2-0.1c0,0-0.8-0.1-0.9,0c-0.4,0.2-3.9,8.8-6.1,12.4
				c-1.5,2.4-3.6,4.4-6.1,5.7c-1.2,0.6-2.6,1-3.9,1.3c-1.1,0.2-2.3,0.1-3,1c-0.6,0.7-0.7,1.8,0,2.5c0.3,0.3,0.6,0.4,1,0.6
				c0.7,0.1,1.4,0.4,2.1,0.4c0.9,0.1,1.7,0.1,2.6,0.1c0.4,0,0.8,0,1.2,0c1.1-0.1,2.3-0.2,3.3-0.6c2-0.7,3.1-3.1,3.9-4.9
				c1-2.3,1.7-4.8,3.1-7c1.6-2.3,4.1-3.7,5.9-5.9C45.3,80,45.8,79.2,45.3,78.1z M31.3,96.2c-0.8,0.5-2.2,0.5-3.2,0.6
				c-0.7,0.1-1.5,0.2-2.2,0.3c-0.4,0-0.6,0-0.8-0.1c0.9-0.2,1.8-0.4,2.7-0.7c2.4-1,4.4-2.5,6.1-4.4C33.3,93.4,32.6,95.4,31.3,96.2z"
				/>
			<path fill="#FFFFFF" d="M31.7,95.4c0.1,0,0.2-0.1,0.3-0.1c0.1-0.1,0.2-0.1,0.3-0.2c-0.1-0.1-0.2-0.3-0.3-0.4
				c-0.1,0.1-0.2,0.3-0.3,0.4c-0.1,0.2-0.2,0.4-0.1,0.6c0.1,0.2,0.3,0.3,0.5,0.1c0.1-0.1,0.1-0.3,0.2-0.4c0-0.1,0.1-0.2,0.2-0.4
				c0.2-0.2-0.2-0.5-0.4-0.3c-0.1,0.1-0.4,0.3-0.4,0.5C31.5,95.3,31.6,95.4,31.7,95.4L31.7,95.4z"/>
			<path fill="#FFFFFF" d="M47.5,176.2c1.6,0.2,7.8-2,8.1-2.4c0.2-0.3,0.1-0.6-0.1-0.8l-0.1-0.1c-0.1-0.1-0.3-0.1-0.4-0.1
				c-1,0.2-2.1,0.9-3,1.3c-1.5,0.8-2.9,1.4-4.6,1.9C47.4,176,47.4,176.2,47.5,176.2L47.5,176.2z"/>
			<path fill="#FFFFFF" d="M63.7,65.6c-1.6-0.7-3.5,0.7-4.9,1.4c-3.4,1.8-7.7,3.8-7.5,8.3c0.1,1.4,2,1.5,2.3,0.3
				c0.3,0.1,0.6,0,0.8-0.2c0.1,0,0.3,0.1,0.4,0.1c0.4,0,0.6-0.1,0.9-0.3c0.3-0.3,0.4-0.8,0.5-1.1c0.4-1,0.5-0.9,1.6-0.6
				c1.4,0.3,2.2-0.1,3-1.4c0.8-1.3,1.4-1.6,2.8-2.1c0.7-0.2,1.3-0.4,1.5-1.1C65.7,67.6,64.8,66.1,63.7,65.6z"/>
			<path fill="#EE192D" d="M96.7,57.9c-1.7-1.8-3.1-3.2-5.6-3.3c-3-0.1-6.1,0.3-9.1,0.1c-2.6-0.1-5.1-0.4-7.1,1.7
				c-0.1,0.1-0.2,0.2-0.3,0.4c-0.7,0.1-1.4,0.4-2,0.5c-0.5,0.1-1,0.3-1.4,0.6h-0.1c-0.8,1,0.2,3.5,0.9,4.4c0.7,1.1,1.7,0.7,1.9-0.5
				c0.1-0.8-0.1-1.7,0.6-2.3c0.8-0.7,1.5-0.4,2.3,0.1c1,0.5,1.8,0.8,3,0.7c2.5-0.2,5,0.2,7.5,0.1c2.7-0.1,5.1-0.6,7.7,0.6
				c1.1,0.5,1.9,0.7,3.9,1.4C100.7,63.2,97.5,58.9,96.7,57.9z M74.7,58.1L74.7,58.1L74.7,58.1L74.7,58.1z M94.7,59.4
				C94.8,59.4,94.8,59.4,94.7,59.4C94.8,59.4,94.8,59.4,94.7,59.4L94.7,59.4z"/>
			<path fill="#EE192D" d="M71.5,52.8c-0.3-4-3.5-6.2-6.4-8.5c-0.3-0.3-0.6-0.4-1-0.4H64c-3.2-0.6-6.2-1-9.3,0.4
				c-3.1,1.4-4.3,4.1-4.9,7.4c-0.3,1.5-0.3,3,0.1,4.5c0.2,0.7,0.6,1.3,0.9,2c0.5,1.2,0,1.7-0.6,2.8c-1.5,2.6-3.1,5.2-4.3,8
				c-0.3,0.5-0.5,1-0.6,1.6c-0.3,1,0.2,1.4,1.6,0.7c1.3-0.6,2.1-2.1,3.1-3.2c1-1.1,1.9-2.3,2.8-3.6c0.8-1.2,1.6-2.4,2.2-3.7
				s0.4-2.5-0.2-3.8c-0.6-1.4-1-3.1,0.2-4.2c0.9-0.8,1.7-2.2,2.8-2.8c1.1-0.6,2.4-0.6,3.5-1.3c0.3-0.2,1.1-1.1,1.7-1.6
				c1.9,1.5,4.9,3.3,5.1,5.8C68.2,55,71.6,55,71.5,52.8z"/>
			<path fill="#EE192D" d="M128.8,130.8c0.9-0.8,2.3-1,3.5-1.2c1.2-0.3,2.4-0.5,3.6-0.8c0.5-0.2,1.1-0.4,1.6-0.6
				c0.7-0.2,0.7-0.3,1.1,0.3c0.7,0.9,1.4,1.8,2.3,2.5c3.2,2.2,6.7-2.8,6-5.7c-0.1-0.4-0.3-0.8-0.6-1.2c-0.4-0.6-0.5-0.7-0.1-1.2
				c0.8-1.1,2.5-1.8,3.6-0.9c1.6,1.3,2.9,1.9,5,1.2c0.1,0,0.2,0,0.3,0c0.4,0,0.4,0,0-0.1c-0.1,0-0.2-0.1-0.2-0.1
				c0,0.2-0.1,0.5-0.1,0.7c-0.1,0.6-0.2,1.2-0.3,1.8c-0.2,1.2-0.6,2.3-1.2,3.3c-1,1.6-3.5,4.5-5.7,4.1c-1-0.2-1.9-1-2.7-1.6
				c-1-0.7-1.9-1.2-3.1-1.5c-2.8-0.7-5.9-1-8.8-1.4c-1.8-0.2-2.2,2.8-0.4,3.1c1.4,0.2,2.9,0.4,4.3,0.7c1.5,0.2,3.3,0.3,4.8,0.9
				c2.1,0.9,3.6,2.8,6.1,2.8s4.5-2.1,6-3.8c1.8-2.1,2.7-4.4,3.1-7.1c0.1-1,0.5-2.2,0-3.1c-0.5-0.9-1.4-1-2.3-0.8
				c-0.7,0.1-1.5,0.5-2.2,0.2c-0.5-0.2-0.9-0.7-1.3-1c-0.8-0.7-1.7-1.1-2.8-1c-1.8,0.2-4.9,2.1-5.1,4.1c-0.1,1.2,0.9,1.7,1.4,2.6
				c0.7,1.3-0.3,3.8-1.8,4.2c-1.2,0.3-2.1-0.7-2.8-1.5c-0.4-0.5-0.8-1.2-1.3-1.5c-0.9-0.6-1.8,0.2-2.7,0.6c-1.5,0.6-3.1,0.9-4.6,1.3
				c-1.2,0.3-2.4,0.6-3.3,1.5C127.9,130.6,128.4,131.1,128.8,130.8L128.8,130.8z"/>
			<path fill="#EE192D" d="M131.6,129.9c-0.7-0.5-1.6-0.4-2.4-0.2c-1.1,0.3-0.5,2,0.5,1.6c0.6-0.2,1.2-0.3,1.9-0.5
				C131.9,130.7,132,130.2,131.6,129.9L131.6,129.9z"/>
			<path fill="#EE192D" d="M131.7,129.8c0.4-0.1,0.9-0.2,1.3-0.3c0.4,0,0.7-0.1,1-0.3c0.1-0.1,0.1-0.3,0-0.3
				c-0.8-0.3-1.8,0.2-2.4,0.6C131.5,129.6,131.5,129.8,131.7,129.8L131.7,129.8z"/>
			<path fill="#EE192D" d="M136.2,128.5c0.2-0.1,0.4-0.1,0.6-0.1c0.1,0,0.3,0,0.3,0c0.1,0,0,0.1,0,0.2c0.1,0.3,0.3,0.5,0.6,0.5
				c0.4,0,0.5-0.6,0.2-0.8c-0.3-0.2-0.6-0.3-0.9-0.3c0,0.3,0,0.6,0,0.9c0.2,0,0.5,0,0.7,0c0.4,0.1,0.8-0.2,0.7-0.7
				c-0.1-0.2-0.2-0.3-0.3-0.5c-0.2,0.3-0.5,0.6-0.7,0.9c0.3,0.1,0.5,0.3,0.9,0.3c0-0.2,0-0.5,0-0.7c-0.2,0-0.4-0.3-0.6-0.3
				c-0.2-0.1-0.5-0.2-0.8-0.2c-0.5,0-1,0.1-1.3,0.5c-0.2,0.2-0.3,0.5-0.2,0.7c0.1,0.3,0.2,0.4,0.5,0.5c0.4,0.1,0.6-0.1,0.8-0.3
				c0.2-0.1,0.3-0.2,0.5-0.2s0.7-0.1,0.9,0c0.2,0.2,0.6-0.1,0.6-0.3c0-0.5-0.3-0.8-0.8-0.9c-0.6-0.2-1,0.8-0.4,1.1
				c0.1,0,0.1,0,0.1,0.1c0.1-0.3,0.3-0.6,0.4-0.9c-0.3,0-0.7,0.1-1,0.1c-0.5,0.1-0.4,0.9,0.1,0.9c0.2,0,0.3,0,0.5,0.1
				c0-0.3,0.1-0.5,0.1-0.8h-0.1c0.1,0,0.2,0,0.3,0c0,0-0.1-0.3-0.2-0.4c-0.1-0.1-0.3-0.2-0.5-0.2c-0.4,0-0.8,0.2-1.1,0.5
				C136.1,128.4,136.2,128.5,136.2,128.5L136.2,128.5z"/>
			<path fill="#EE192D" d="M148.4,121.8c-1-0.5-1.5,0.2-1.9,1.1c-0.2,0.6,0.7,0.9,1,0.4c0.2-0.3,0.4-0.7,0.6-1
				c0.3-0.5-0.5-1.2-0.9-0.7c-0.4,0.6-0.9,1.1-1.3,1.7c0.3,0.2,0.7,0.4,1,0.6c0.3-0.5,0.6-0.9,0.9-1.4c0.4-0.6-0.4-1.1-0.9-0.7
				c-0.4,0.3-0.6,0.6-0.9,1.1c-0.2,0.6,0.4,1.2,0.9,0.7s0.8-0.9,0.9-1.6c0.1-0.5-0.4-0.9-0.8-0.6c-0.6,0.4-0.9,0.7-1.2,1.3
				s0.3,1,0.8,0.8c0.8-0.4,1.4-0.8,1.9-1.5c-0.3-0.3-0.7-0.5-1-0.8c-0.4,0.6-0.8,1.2-1.1,1.9c-0.4,0.8,0.7,1.4,1.2,0.7
				s1-1.4,1.5-2.2c-0.4-0.2-0.8-0.4-1.3-0.5c-0.4,1.1-1,2.1-1.7,3.1c0.4,0.2,0.8,0.5,1.2,0.7c0.5-0.9,1-1.7,1.6-2.6
				c-0.4-0.2-0.8-0.3-1.2-0.5c-0.5,1.2-1.1,2.4-1.8,3.5c-0.4,0.6,0.5,1.2,1,0.8c1-0.9,1.6-2.3,2.2-3.5c-0.4-0.2-0.8-0.3-1.2-0.5
				c-0.5,1.4-1.2,2.8-1.9,4.1c-0.4,0.6,0.5,1.4,1,0.8c1.1-1.2,1.5-2.6,2.4-3.9c-0.4-0.2-0.8-0.4-1.1-0.7c-0.8,1.9-1.7,3.7-2.7,5.6
				c-0.4,0.8,0.7,1.4,1.2,0.7c0.9-1.6,1.8-3.1,2.9-4.6c-0.4-0.2-0.8-0.5-1.3-0.7c-1,2-2,3.9-3.2,5.8c-0.5,0.7,0.4,1.4,1.1,1.1
				c0.8-0.4,1.2-1.2,1.6-1.9c0.7-1.2,1.4-2.3,2.1-3.5c-0.5-0.3-1-0.6-1.5-0.9c-0.9,1.8-1.8,3.5-2.8,5.3c-0.5,0.9,0.9,1.8,1.4,0.8
				c1.1-1.8,2.2-3.7,3.3-5.5c-0.5-0.3-0.9-0.5-1.4-0.8c-0.9,1.8-1.8,3.5-2.4,5.4c-0.3,0.8,1,1.4,1.4,0.6c0.9-1.6,1.9-3.3,2.8-4.9
				c-0.4-0.3-0.9-0.5-1.3-0.8c-0.9,1.8-1.7,3.7-2.6,5.5c-0.4,0.9,0.8,1.6,1.4,0.8c1.3-1.9,2.2-4.1,3.6-6.1c-0.5-0.3-1-0.6-1.4-0.8
				c-0.6,1.3-1.2,2.6-1.7,3.9c-0.3,0.8-0.8,1.4-0.4,2.2c0.3,0.6,1.2,0.5,1.5,0c1.1-1.8,2.1-3.7,3.1-5.5c-0.5-0.2-0.9-0.4-1.4-0.6
				c-0.4,1.6-1.5,3.2-2.2,4.7c-0.4,0.9,0.7,1.5,1.3,0.7c1-1.5,1.8-3.1,2.5-4.8c-0.5-0.1-0.9-0.2-1.4-0.4c0.1,0.8-0.6,1.9-0.9,2.6
				c-0.4,0.9-0.7,1.8-1.1,2.7c-0.3,0.8,1,1.3,1.3,0.6c0.8-1.6,1.6-3.1,2.3-4.7c-0.4-0.2-0.9-0.4-1.3-0.5c-0.6,1.5-1.3,3-1.9,4.6
				c-0.3,0.8,1,1.3,1.3,0.6c0.8-1.6,1.5-3.2,2.3-4.8c-0.4-0.2-0.9-0.4-1.3-0.6c-0.4,1.5-1,3-1.6,4.5c-0.3,0.8,1.1,1.4,1.4,0.6
				c0.7-1.3,1.3-2.7,2-4c-0.6-0.2-1.1-0.5-1.7-0.7c-0.3,1.1-0.7,2.1-1,3.2c-0.3,1,1.2,1.6,1.6,0.7c0.6-1.1,1.2-2.3,1.8-3.4
				c-0.6-0.2-1.1-0.5-1.7-0.7c-0.3,0.9-0.6,1.9-1,2.8c-0.5,1.1,1.1,2,1.6,0.9c0.5-1.2,2-3.7,1-4.9c-0.4-0.5-0.9-0.4-1.5-0.5
				c-1.2-0.3-2.2-1.4-3.2-2.1c-1-0.6-1.9,0.2-2.1,1.2c-0.2,1.2,0.3,2.3,0.8,3.4c0.3,0.7,0.7,1.4,0.3,2.2c-0.2,0.5-0.6,1-0.9,1.5
				c-0.3,0.6-0.2,0.9-0.9,0.8c-0.4-0.1-0.6-0.3-1-0.3c-1,0-1.8,0.7-1.8,1.7c-0.1,1.8,2.5,2.5,3.9,2.1c0.4-0.1,0.7-0.4,1.1-0.7
				c0.5-0.4,0.9-0.7,1.5-1c1-0.6,1.9-1.3,2.7-2.3c-0.7-0.5-1.4-1-2-1.6c-0.5,1.1-1.3,2.8-2.5,3.3c-1.5,0.7-2.8-0.3-4-1.1
				c-1.5-1-2.8,1.4-1.4,2.3c1.8,1.3,3.7,2.4,6,1.4c1.9-0.8,3.3-2.9,4.1-4.7c0.5-1.2-1-2.8-2-1.6c-0.8,1.1-1.8,1.7-2.9,2.4
				c-0.4,0.2-0.8,0.8-1.2,1c0,0.2-0.2,0.2-0.4,0c-0.5-0.2-0.6,0.1-0.2,0.8c-0.4,0.2-0.8,0.5-1.2,0.7c-0.2,0,0.1,0.1,0.2,0.2
				c0.2,0.2,0.6,0.3,0.9,0.3c0.5,0.1,1.2,0,1.7-0.2c1.3-0.4,1.5-1.5,2.1-2.6c0.5-1.1,1.2-2,1.1-3.3c-0.1-1.5-1.4-2.9-1.1-4.3
				c-0.7,0.3-1.3,0.5-2,0.8c1,0.8,2.3,1.6,3.6,1.8c0.3,0,0.5,0,0.8,0.1c0.1,0,0.2,0,0.4,0s0.2,0-0.1,0.1c-0.2,0-0.3,0.1-0.3,0.3
				c-0.1,0.2-0.1,0.3-0.2,0.5c-0.2,0.5-0.4,1-0.6,1.5c0.5,0.3,1.1,0.6,1.6,0.9c0.4-1.1,0.8-2.1,1.2-3.2c0.3-1-1.2-1.6-1.7-0.7
				c-0.6,1.1-1.2,2.3-1.8,3.4c0.5,0.2,1.1,0.5,1.6,0.7c0.4-1,0.7-2.1,1.1-3.1c0.3-1-1.3-1.7-1.7-0.7c-0.6,1.4-1.2,2.8-1.7,4.1
				c0.5,0.2,1,0.4,1.4,0.6c0.5-1.5,1-3,1.5-4.6c0.2-0.8-1-1.3-1.3-0.6c-0.8,1.6-1.5,3.2-2.3,4.8c0.4,0.2,0.9,0.4,1.3,0.6
				c0.6-1.5,1.2-3.1,1.8-4.6c0.3-0.7-0.9-1.3-1.3-0.5c-0.8,1.6-1.6,3.1-2.4,4.7c0.4,0.2,0.9,0.4,1.3,0.6c0.4-1.1,0.9-2.1,1.3-3.2
				c0.3-0.8,0.9-1.7,0.8-2.5c-0.1-0.6-1-1.1-1.4-0.4c-0.7,1.7-1.5,3.3-2.5,4.8c0.4,0.2,0.9,0.5,1.3,0.7c0.8-1.6,2-3.3,2.4-5
				c0.2-0.8-1-1.4-1.4-0.6c-1,1.8-2.1,3.6-3.2,5.4c0.5,0,1,0,1.5,0c0.1,0.1,1-1.8,1-2c0.4-0.8,0.7-1.6,1.1-2.4
				c0.4-1-0.8-1.7-1.4-0.8c-1.4,1.9-2.2,4.2-3.5,6.1c0.5,0.3,0.9,0.5,1.4,0.8c0.8-1.8,1.7-3.7,2.5-5.5c0.4-0.9-0.8-1.6-1.3-0.8
				c-0.9,1.6-1.9,3.3-2.9,4.9c0.5,0.2,1,0.4,1.4,0.6c0.6-1.7,1.5-3.4,2.3-5c0.5-0.9-0.9-1.7-1.4-0.8c-1.1,1.8-2.2,3.7-3.3,5.5
				c0.5,0.3,1,0.6,1.4,0.8c1-1.7,1.9-3.5,2.8-5.2c0.5-1-0.9-1.8-1.5-0.9c-0.5,0.8-1,1.7-1.5,2.5c-0.4,0.7-0.9,2-1.6,2.3
				c0.4,0.4,0.7,0.7,1.1,1.1c1.1-1.9,2.2-3.9,3.1-5.9c0.4-0.8-0.7-1.5-1.3-0.7c-1,1.5-1.9,3.1-2.8,4.7c0.4,0.2,0.8,0.5,1.2,0.7
				c1-1.8,1.9-3.7,2.7-5.6c0.3-0.8-0.7-1.4-1.1-0.7c-0.8,1.2-1.2,2.6-2.2,3.7c0.3,0.3,0.7,0.5,1,0.8c0.8-1.4,1.5-2.9,2-4.4
				c0.3-0.7-0.8-1.1-1.2-0.5c-0.6,1-1.1,2.5-2,3.2c0.3,0.3,0.7,0.5,1,0.8c0.8-1.2,1.4-2.4,2-3.8c0.3-0.8-0.8-1.1-1.2-0.5
				c-0.6,0.8-1.1,1.7-1.6,2.6c-0.4,0.8,0.7,1.4,1.2,0.7c0.7-1.1,1.3-2.2,1.8-3.5c0.3-0.7-0.9-1.2-1.3-0.5c-0.5,0.7-0.9,1.5-1.5,2.2
				c0.4,0.2,0.8,0.5,1.2,0.7c0.3-0.7,0.7-1.3,1-1.9c0.5-0.7-0.7-1.4-1.1-0.7c-0.4,0.6-0.9,0.9-1.5,1.3c0.3,0.3,0.5,0.5,0.8,0.8
				c0.1-0.4,0.4-0.7,0.8-0.9c-0.3-0.2-0.6-0.4-0.8-0.6c0,0.4-0.2,0.8-0.6,1.1c0.3,0.2,0.6,0.5,0.9,0.7c0.1-0.4,0.3-0.7,0.7-0.9
				c-0.3-0.2-0.6-0.5-0.9-0.7c-0.3,0.5-0.6,0.9-0.9,1.3c-0.5,0.6,0.6,1.2,1,0.6c0.4-0.5,0.8-1.1,1.1-1.6c-0.3-0.2-0.7-0.4-1-0.6
				c-0.2,0.4-0.4,0.7-0.5,1.1c0.3,0.1,0.6,0.3,1,0.4c0.2-0.2,0.3-0.3,0.5-0.5C148.5,122.8,148.9,122,148.4,121.8L148.4,121.8z"/>
			<path fill="#EE192D" d="M139.4,128.7C139.4,128.6,139.4,128.6,139.4,128.7c-0.3-0.6-1.1-0.6-1.4-0.1c-0.3,0.5,0.1,1.2,0.7,1.2
				h0.1C139.4,129.8,139.7,129.1,139.4,128.7L139.4,128.7z"/>
			<path fill="#FFFFFF" d="M127.7,124.6c0.7,0.4,1.5,0.4,2.3,0.4c0.8-0.1,1.5,0,2.4,0.1c0.7,0.1,1.3-0.6,1.3-1.3
				c0-0.8-0.6-1.2-1.3-1.3c-1.5-0.2-3-0.2-4.5,0.3C127.2,123.1,126.9,124.2,127.7,124.6L127.7,124.6z"/>
			<path fill="#EE192D" d="M125.7,118.2c0.5,0.1,1.1,0.2,1.6,0.3c0.5,0,1.1,0,1.6,0.1c1.8,0.3,2.2-2.4,0.3-2.5
				c-1.2,0-2.4,0.2-3.6,0.5C125,116.8,124.9,118,125.7,118.2L125.7,118.2z"/>
			<path fill="#EE192D" d="M137.4,96.5c-1.9,1.7-3.2,3.5-3.6,6.1c-0.2,1.6-1.1,5.8,1.3,6.1c0.7,0.1,1.5,0,1.7-0.8
				c0.2-0.4,0.1-1,0.1-1.4c0.1-0.8,0.3-1.5,0.5-2.2c0.4-1.2,1.3-2,1.8-3.2c0.5-1.3,0.2-2.5-0.2-3.8c-0.4-1-1.6-1.2-2.2-0.3
				c-1.7,2.8-2.7,5.3-2.8,8.5c0,1.6,2.5,1.6,2.5,0c0.1-2.9,1-4.9,2.4-7.3c-0.7-0.1-1.5-0.2-2.2-0.3c0.4,1,0.7,1.9,0.2,2.9
				c-0.3,0.7-0.8,1.3-1.1,2.1s-0.5,1.6-0.7,2.4c-0.1,0.4,0,1.9-0.1,2.1c0.3-0.2,0.5-0.3,0.8-0.5c-0.5,0.1-0.4,0.3-0.4-0.7
				c0-0.4,0-0.9,0-1.3c0-0.9,0-1.8,0.1-2.7c0.2-2.1,1.6-3.4,2.6-5.1C138.4,96.6,137.8,96.2,137.4,96.5L137.4,96.5z"/>
			<path fill="#FFFFFF" d="M147.4,35.2c-2.2-2.2-10.1-9.2-22.1-9.4l0,0c-3.7-0.1-9.9-0.2-15.4,4.1c-6.6,5-8,12.7-8.3,17
				c0,0.1,0,0.1,0,0.2c-0.1,1.2-0.1,2,0,2.5l1,13.6h0.2l0,0c1.9,2.1,12.8,8.5,15.8,10.2c3.7,2.1,11.8,10.1,12.7,11.3
				c0.6,0.8,0.8,1.5,0.7,2.5c0,1.1,0,2.3,0.1,2.7c0.4,1.6,5.2,2.1,9.7,0.8c6.1-1.7,11.1-6.8,10.2-8.5c-0.2-0.3-0.5-0.5-0.9-0.6
				c0,0,0,0-0.1,0c-0.6,0.2-3,2.2-3.8,2.7c-1.4,0.7-2.8,0.8-4.3,0.8c-2.1,0-6.8-0.9-7-1.1c0,0-10.7-7-15.4-11.3
				c-4.8-4.4-9.1-9.3-12.7-14.7V47.1c0.2-0.3,0.3-0.6,0.5-0.8c0.2-0.1,0.5-0.2,0.8-0.2c0.5,0.6,1.1,1.2,1.7,1.7
				c2,2.5,4.7,5.3,8.3,7.5c0.4,0.3,0.9,0.6,1.3,0.8c1.1,0.6,2.4,1.2,3.7,1.7c7.6,2.9,17.6,2.7,24.2-0.5c3.3-1.5,5.5-3.7,6.4-6.2
				C156.6,45.4,150.3,38.1,147.4,35.2z"/>
			<path fill="#FFFFFF" d="M102.6,49c0-0.1,0-0.3,0-0.4l0,0C102.6,48.7,102.6,48.8,102.6,49z"/>
			<path fill="#FFFFFF" d="M133.6,84L133.6,84L133.6,84L133.6,84z"/>
			<path fill="#FFFFFF" d="M144.8,62.8c1.6-0.5,3.4-1.3,5.3-2.3c1.9-1,3.5-2,4.8-2.9c0,1.5,0,1.9,0,2.9c0,1.7-0.2,3.6-0.4,5.9
				c-0.4,4.4-1.2,7.4-2,10.7c-1.1,0.3-2.5,0.7-3.9,1.3c-1.5,0.6-2.8,1.4-3.8,2c0.4-3.1,0.7-6.8,0.6-10.7
				C145.3,66.9,145.1,65.2,144.8,62.8z"/>
			<path fill="#FFFFFF" d="M32.7,90.6c-0.8,1-1.6,2.5-2.8,2.9c-1.4,0.5-2.9,0.7-4.3,0.9c-2.2,0.4-1.3,3.7,0.9,3.3
				c1.7-0.3,3.5-0.6,5.1-1.2c1.6-0.6,2.5-2.2,3.6-3.5C36.5,91.3,34.1,88.9,32.7,90.6L32.7,90.6z"/>
			<path fill="#FFFFFF" d="M51,126.7C51,126.7,51.1,126.7,51,126.7C51.1,126.7,51.1,126.7,51,126.7C51.1,126.7,51,126.7,51,126.7
				L51,126.7L51,126.7z"/>
			<path fill="#FFFFFF" d="M87.3,129.2c-2.9-3-5.8-6.1-9-8.8c-3.3-2.8-7-4.8-9.7-8.1c-0.2-0.3-2.2-1-2.8-1.1
				c-4.2,0-8.5-0.1-12.7-0.1c-0.1,0-0.2,0-0.3,0c-0.7,0-1.5,0.3-1.8,0.6c-4.3,5-12.4,16-12.6,16.1c-1.3,1.1-2.4,2.4-3.7,3.5
				c1.1-3.7,3.1-7.5,4.2-9.7c3.9-7.3,8.6-13.2,17.4-14.8c0.6-0.1,3.4-1.5,3.8-2.3c0.2,0,0.5-1.6,0.6-2.1c0-0.3-0.1-0.9-0.1-0.9
				c0-0.2-0.1-0.5-0.1-0.6s0-0.1,0-0.2c0.6-10.9,8-19.7,14.6-27.8c0.4-0.4,0.3-0.9-0.1-1.2c-0.9-0.8-1.8-1.7-2.7-2.5
				c-0.2-0.2-6.8-10.4-6.8-10.4c-0.5,0.3-0.7,1.5-1.2,1.8c1.2,1,2.5,2.4,3.8,4.3c1.1,1.6,1.9,3,2.4,4.3c-0.2,0.1-0.5,0.3-0.6,0.4
				c-6.3,6.7-14.8,9.3-23.5,11.4c-1,0.2-1.2,1.6-1.2,1.7c0.2,4,0.2,8.1,0,12.1c-2.4,0.7-4,2.6-5.8,4.3c-3.6,3.5-7.5,6.8-9.7,11.3
				c-4.8,9.8-3.8,18.9-0.3,29.1c0.2,0.5,5.5-0.5,6-0.7c3.2-1.2,5-3.3,7.3-5.7c1.3-1.3,2.2-3.5,2.2-3.5l16-4.9
				c0,0,12.2,9.7,15.6,12.5c0.2,0.2,1,13,1,13s2.6-0.3,2.8-0.5c4.4-6,6.8-20,6.8-20S87.4,129.3,87.3,129.2z M44.8,129.3
				c-0.2-0.2-0.6-0.6-0.7-0.7c0.1,0,0.2,0,0.3,0C44.7,129.2,44.8,129.3,44.8,129.3z M62.6,114.3C62.6,114.2,62.7,114.2,62.6,114.3
				L62.6,114.3C62.7,114.3,62.7,114.3,62.6,114.3z"/>
		</g>
		<g>
			<rect x="52.3" y="90.4" transform="matrix(0.5774 -0.8165 0.8165 0.5774 -59.4656 85.0449)" width="0.3" height="19.1"/>
			<path d="M60.2,105.8l-0.1-0.1L44.4,94.6l0.3-0.4l0.1,0.1l15.7,11.1L60.2,105.8z M44.7,94.5l15.4,10.9l0,0L44.7,94.5L44.7,94.5z"
				/>
		</g>
		<g>
			<rect x="43" y="123.8" transform="matrix(0.6836 -0.7299 0.7299 0.6836 -79.4803 71.8298)" width="0.3" height="7.6"/>
			<path d="M45.8,130.5L45.8,130.5l-5.7-5.3l0.4-0.4l0.1,0.1l5.6,5.3L45.8,130.5z M40.4,125.1l5.3,5l0,0L40.4,125.1L40.4,125.1z"/>
		</g>
		<path fill="#FFFFFF" d="M367.4,88.4c0.3,5.3,0.5,10.6,0.5,15.9c0,2.5-0.1,5-0.2,7.5c-0.1,2.1-0.8,4.8,0.4,6.6
			c0.4,0.5,2.9-0.1,2.9-0.8c0.4-5.8,0.4-11.6-0.1-17.5c0-0.4-3,0.1-2.9,0.8c0.5,5.8,0.5,11.6,0.1,17.5c1-0.3,1.9-0.5,2.9-0.8
			c-1.1-1.6-0.5-3.8-0.4-5.6c0.1-2.8,0.2-5.6,0.2-8.4c0-5.3-0.2-10.6-0.5-15.9C370.3,87.2,367.4,87.7,367.4,88.4L367.4,88.4z"/>
		<path fill="#FFFFFF" d="M367.6,85.5c-0.1,7.5-0.5,15-1.2,22.5c-0.2,2.1-1.2,5.6-0.4,7.8c0.2,0.6,0.3,1.2,0.8,1.6
			c0.3,0.2,4.3,2.1,3.5-0.2c-0.9,0.4-1.7,0.7-2.6,1.1c3.5,1.3,5.8-0.8,6.1-4.3c0.8-8.5-0.4-17.8-0.6-26.4c0-1-2.8-0.4-2.9,0.6
			c-0.9,10.6,0,21.2,0.9,31.8c0.1,1,3,0.4,2.9-0.8c-0.9-10.5-1.8-20.9-0.9-31.4c-1,0.2-1.9,0.4-2.9,0.6c0.1,4.9,0.2,9.8,0.3,14.7
			c0,1.4,0.4,14.1-0.7,13.7c-0.6-0.2-3,0-2.6,1.1c1.4,4.2,7.5,2.5,5.4-0.7c-1.2-1.8-3.4-0.7-3.9-3.7c-0.4-2.8,0.5-6,0.7-8.8
			c0.6-6.5,0.9-13,1-19.6C370.6,83.9,367.6,84.5,367.6,85.5L367.6,85.5z"/>
		<path fill="#FFFFFF" d="M365.5,88.8c0.4,4-0.2,8.2,0.3,12.1c0.1,0.8,3,0.2,2.9-0.8c-0.6-3.9,0.1-8.1-0.3-12.1
			C368.3,87.2,365.4,87.8,365.5,88.8L365.5,88.8z"/>
	</g>
</g>
</svg>
