<svg xmlns="http://www.w3.org/2000/svg" width="10.156" height="10.125" viewBox="0 0 10.156 10.125">
  <path d="M785.214,554v-0.857h-0.857v-0.717l0.609-.609,1.574,1.574-0.609.609h-0.717Zm4.172-6.1-3.629,3.629a0.159,0.159,0,0,1-.114.047,0.13,0.13,0,0,1-.147-0.148,0.154,0.154,0,0,1,.046-0.113l3.63-3.63a0.155,0.155,0,0,1,.114-0.047,0.13,0.13,0,0,1,.147.148,0.159,0.159,0,0,1-.047.114h0Zm-5.886,4.171v2.786h2.786l5.571-5.571-2.786-2.786Zm9.9-5.538-1.573-1.567a0.835,0.835,0,0,0-.61-0.254,0.8,0.8,0,0,0-.6.254l-1.112,1.105,2.786,2.786,1.111-1.112a0.82,0.82,0,0,0,.248-0.6,0.86,0.86,0,0,0-.248-0.61h0Z" transform="translate(-783.5 -544.719)"/>
</svg>
