<svg xmlns="http://www.w3.org/2000/svg" width="18" height="18" viewBox="0 0 18 18">

  <path  d="M184.4,1115.89a0.362,0.362,0,0,1-.27.1h-2.251a0.353,0.353,0,0,1-.375-0.37v-2.25a0.362,0.362,0,0,1,.106-0.27,0.369,0.369,0,0,1,.269-0.11h2.251a0.369,0.369,0,0,1,.27.11,0.365,0.365,0,0,1,.1.27v2.25A0.365,0.365,0,0,1,184.4,1115.89Zm2.96-7.2a3.033,3.033,0,0,1-.328.71,2.759,2.759,0,0,1-.522.56,4.873,4.873,0,0,1-.539.41c-0.133.08-.324,0.2-0.575,0.34a1.876,1.876,0,0,0-.638.58,1.111,1.111,0,0,0-.253.58,0.352,0.352,0,0,1-.375.37h-2.251a0.353,0.353,0,0,1-.375-0.37v-0.43a2.176,2.176,0,0,1,.616-1.47,4.1,4.1,0,0,1,1.354-1.01,2.336,2.336,0,0,0,.8-0.53,1.051,1.051,0,0,0,.234-0.71,0.844,0.844,0,0,0-.439-0.69,1.861,1.861,0,0,0-2.011-.03,5.991,5.991,0,0,0-1.008,1.08,0.355,0.355,0,0,1-.293.14,0.316,0.316,0,0,1-.223-0.07l-1.547-1.17a0.333,0.333,0,0,1-.094-0.49,4.78,4.78,0,0,1,4.349-2.5,4.455,4.455,0,0,1,1.993.48,4.4,4.4,0,0,1,1.624,1.36,3.146,3.146,0,0,1,.651,1.91A2.965,2.965,0,0,1,187.359,1108.69Zm0.164-6.5a9.111,9.111,0,0,0-9.039,0,9.01,9.01,0,0,0-3.277,3.28,9.067,9.067,0,0,0,0,9.04,9.01,9.01,0,0,0,3.277,3.28,9.045,9.045,0,0,0,9.039,0,9,9,0,0,0,3.277-3.28,9.06,9.06,0,0,0,0-9.04A9,9,0,0,0,187.523,1102.19Z" transform="translate(-174 -1101)"/>
</svg>
