<svg xmlns="http://www.w3.org/2000/svg" width="15.969" height="16" viewBox="0 0 15.969 16">
  <path d="M920.761,48.075a4.31,4.31,0,1,1,3.04-1.262A4.145,4.145,0,0,1,920.761,48.075Zm8.864,2.824L926.331,47.6a6.575,6.575,0,0,0,1.191-3.832,6.65,6.65,0,0,0-.533-2.626,6.624,6.624,0,0,0-3.6-3.6,6.737,6.737,0,0,0-5.254,0,6.615,6.615,0,0,0-3.6,3.6,6.739,6.739,0,0,0,0,5.253,6.619,6.619,0,0,0,3.6,3.6,6.648,6.648,0,0,0,2.627.533,6.577,6.577,0,0,0,3.832-1.191l3.294,3.285a1.142,1.142,0,0,0,.864.365,1.229,1.229,0,0,0,.874-2.094h0Z" transform="translate(-914 -37)"/>
</svg>
