<svg xmlns="http://www.w3.org/2000/svg" width="20.969" height="25" viewBox="0 0 20.969 25">
  <path d="M473.677,46.449l1.907,0.961,1.431,1.923-1.431,6.73Zm4.292,2.884L479.4,47.41l1.907-.961L479.4,56.063Zm3.755-8.037a0.376,0.376,0,0,1-.111.1,0.263,0.263,0,0,0-.112.158,3.273,3.273,0,0,0-.112.308c-0.055.165-.089,0.268-0.1,0.308s-0.052.125-.112,0.255-0.1.215-.127,0.255-0.069.111-.134,0.21a0.668,0.668,0,0,1-.179.2c-0.054.035-.124,0.082-0.208,0.143a0.73,0.73,0,0,1-.261.12c-0.089.02-.191,0.04-0.305,0.06a2.085,2.085,0,0,1-.366.03,1.818,1.818,0,0,1-.879-0.188,1.152,1.152,0,0,1-.484-0.451,2.6,2.6,0,0,1-.216-0.518,2.482,2.482,0,0,0-.172-0.443,0.291,0.291,0,0,0-.261-0.187H477.4a0.29,0.29,0,0,0-.261.188,2.482,2.482,0,0,0-.172.443,2.718,2.718,0,0,1-.216.518,1.158,1.158,0,0,1-.484.451,1.821,1.821,0,0,1-.879.188,2.077,2.077,0,0,1-.366-0.03c-0.114-.02-0.216-0.04-0.3-0.06a0.715,0.715,0,0,1-.261-0.12c-0.084-.06-0.154-0.107-0.209-0.143a0.681,0.681,0,0,1-.178-0.2c-0.065-.1-0.11-0.171-0.135-0.21s-0.067-.125-0.126-0.255-0.1-.215-0.112-0.255-0.05-.143-0.1-0.308a3.273,3.273,0,0,0-.112-0.308,0.263,0.263,0,0,0-.112-0.158,0.382,0.382,0,0,1-.112-0.1c-0.02-.09-0.039-0.225-0.059-0.406a0.357,0.357,0,0,1,.059-0.09,4.108,4.108,0,0,1,1.431-.12,13.145,13.145,0,0,1,2.489.285,1.637,1.637,0,0,0,.626,0,13.137,13.137,0,0,1,2.489-.285,4.1,4.1,0,0,1,1.43.12,0.356,0.356,0,0,1,.06.09c-0.02.181-.04,0.316-0.06,0.406h0Zm6.141,10.568a16.283,16.283,0,0,0-.432-2.276,6.707,6.707,0,0,0-.977-2.156,4.509,4.509,0,0,0-1.6-1.45l1.222-3.38h-3.189a5.865,5.865,0,0,0,.3-2.4q2.892-.6,2.891-1.442t-3.129-1.487a12.187,12.187,0,0,0-.768-2.013,7.886,7.886,0,0,0-1.051-1.713A1.448,1.448,0,0,0,480,32.989a2.807,2.807,0,0,0-1.252.465,1.916,1.916,0,0,1-2.5,0,2.811,2.811,0,0,0-1.252-.465,1.447,1.447,0,0,0-1.132.556,7.886,7.886,0,0,0-1.051,1.713,12.187,12.187,0,0,0-.768,2.013q-3.129.631-3.13,1.487T471.8,40.2q-0.03.3-.03,0.481A5.911,5.911,0,0,0,472.1,42.6h-3.19l1.342,3.305a4.249,4.249,0,0,0-1.394,1.119,6.083,6.083,0,0,0-.946,1.555,10.4,10.4,0,0,0-.559,1.855,14.974,14.974,0,0,0-.283,1.885Q467,53.179,467,54.1a3.75,3.75,0,0,0,1.088,2.854,4.015,4.015,0,0,0,2.891,1.037h13.026a4.015,4.015,0,0,0,2.891-1.037,3.754,3.754,0,0,0,1.088-2.854A20.342,20.342,0,0,0,487.865,51.864Z" transform="translate(-467 -33)"/>
</svg>
