<svg xmlns="http://www.w3.org/2000/svg" width="20" height="14" viewBox="0 0 20 14">
  <path d="M833.557,254.306a0.335,0.335,0,0,1-.231.088h-2.681a0.335,0.335,0,0,1-.231-0.088,0.248,0.248,0,0,1-.088-0.219v-0.044l0.264-3.5a0.366,0.366,0,0,1,.12-0.246,0.358,0.358,0,0,1,.253-0.105h2.044a0.356,0.356,0,0,1,.253.105,0.372,0.372,0,0,1,.121.246l0.264,3.5v0.044A0.25,0.25,0,0,1,833.557,254.306Zm8.143,3.624-4.583-11.43a0.906,0.906,0,0,0-.286-0.362,0.672,0.672,0,0,0-.417-0.153h-3.726a0.357,0.357,0,0,1,.253.1,0.372,0.372,0,0,1,.121.246l0.165,2.1a0.309,0.309,0,0,1-.088.252,0.333,0.333,0,0,1-.242.1h-1.824a0.333,0.333,0,0,1-.242-0.1,0.309,0.309,0,0,1-.088-0.252l0.165-2.1a0.372,0.372,0,0,1,.121-0.246,0.359,0.359,0,0,1,.253-0.1h-3.725a0.672,0.672,0,0,0-.418.153,0.906,0.906,0,0,0-.286.362l-4.582,11.43a3.28,3.28,0,0,0-.286,1.27q0,0.8.506,0.8h7.736a0.323,0.323,0,0,1-.242-0.1,0.311,0.311,0,0,1-.088-0.247l0.22-2.8a0.37,0.37,0,0,1,.121-0.246,0.357,0.357,0,0,1,.253-0.1h2.989a0.357,0.357,0,0,1,.252.1,0.365,0.365,0,0,1,.121.246l0.22,2.8a0.311,0.311,0,0,1-.088.247,0.321,0.321,0,0,1-.242.1h7.737q0.505,0,.5-0.8a3.3,3.3,0,0,0-.285-1.27h0Z" transform="translate(-822 -246)"/>
</svg>
