<?xml version="1.0" encoding="utf-8"?>
<!-- Generator: Adobe Illustrator 23.0.1, SVG Export Plug-In . SVG Version: 6.00 Build 0)  -->
<svg version="1.1" id="Слой_1" xmlns="http://www.w3.org/2000/svg" xmlns:xlink="http://www.w3.org/1999/xlink" x="0px" y="0px"
	 viewBox="0 0 24 24" style="enable-background:new 0 0 24 24;" xml:space="preserve">
<style type="text/css">
	.st0{fill:none;}
</style>
<path class="st0" d="M0,0h24v24H0V0z"/>
<path d="M13.1,9.8L10,7.5v9l3.1-2.3L16,12L13.1,9.8z M13.1,9.8L10,7.5v9l3.1-2.3L16,12L13.1,9.8z M13.1,9.8L10,7.5v9l3.1-2.3L16,12
	L13.1,9.8z M11,4.1V2C9,2.3,7.2,3,5.7,4.3l1.4,1.4C8.2,4.8,9.5,4.3,11,4.1z M5.7,7.1L4.3,5.7C3,7.2,2.3,9,2,11h2
	C4.2,9.5,4.8,8.2,5.7,7.1z M4.1,13H2c0.2,2,1,3.8,2.2,5.3l1.4-1.4C4.8,15.8,4.3,14.5,4.1,13z M5.7,19.7C7.2,21,9,21.8,11,22v-2
	c-1.5-0.2-2.8-0.8-3.9-1.6C7.1,18.3,5.7,19.7,5.7,19.7z M22,12c0,5.2-3.9,9.4-8.9,10v-2C17,19.4,20,16,20,12s-3-7.4-6.9-7.9V2
	C18.1,2.6,22,6.8,22,12z"/>
</svg>
