<svg xmlns="http://www.w3.org/2000/svg" width="27" height="17.031" viewBox="0 0 27 17.031">

  <path d="M741.9,177.093a0.359,0.359,0,0,0-.267-0.106H727.174v-2.634a0.37,0.37,0,0,0-.626-0.271l-4.448,4.163a0.387,0.387,0,0,0-.116.282,0.378,0.378,0,0,0,.116.271l4.448,4.115a0.367,0.367,0,0,0,.4.059,0.34,0.34,0,0,0,.221-0.341V180h14.455a0.359,0.359,0,0,0,.267-0.106,0.369,0.369,0,0,0,.1-0.27v-2.258A0.369,0.369,0,0,0,741.9,177.093Zm-12.792,8a0.359,0.359,0,0,1,.266-0.105h14.456v-2.635a0.37,0.37,0,0,1,.626-0.27l4.447,4.163a0.385,0.385,0,0,1,.116.282,0.374,0.374,0,0,1-.116.271l-4.447,4.115a0.368,0.368,0,0,1-.406.059,0.341,0.341,0,0,1-.22-0.341V188H729.37a0.356,0.356,0,0,1-.266-0.106,0.369,0.369,0,0,1-.1-0.27v-2.258A0.373,0.373,0,0,1,729.1,185.092Z" transform="translate(-722 -173.969)"/>
</svg>
