<svg xmlns="http://www.w3.org/2000/svg" width="19.969" height="19.031" viewBox="0 0 19.969 19.031">

  <path d="M203.3,135.8l-6.027-.874-2.7-5.449a0.6,0.6,0,0,0-1.176,0l-2.7,5.449-6.027.874a0.625,0.625,0,0,0-.672.551,0.912,0.912,0,0,0,.3.575l4.37,4.239-1.033,5.987a1.948,1.948,0,0,0-.024.24,0.706,0.706,0,0,0,.126.425,0.44,0.44,0,0,0,.379.173,1.02,1.02,0,0,0,.48-0.144l5.39-2.825,5.39,2.825a0.971,0.971,0,0,0,.48.144,0.425,0.425,0,0,0,.366-0.173,0.706,0.706,0,0,0,.126-0.425,2.049,2.049,0,0,0-.011-0.24l-1.033-5.987,4.358-4.239a0.866,0.866,0,0,0,.312-0.575,0.625,0.625,0,0,0-.672-0.551h0Z" transform="translate(-184 -128.969)"/>
</svg>
