<svg xmlns="http://www.w3.org/2000/svg" width="12" height="14" viewBox="0 0 12 14">
  <metadata><?xpacket begin="﻿" id="W5M0MpCehiHzreSzNTczkc9d"?>
<x:xmpmeta xmlns:x="adobe:ns:meta/" x:xmptk="Adobe XMP Core 5.6-c142 79.160924, 2017/07/13-01:06:39        ">
   <rdf:RDF xmlns:rdf="http://www.w3.org/1999/02/22-rdf-syntax-ns#">
      <rdf:Description rdf:about=""/>
   </rdf:RDF>
</x:xmpmeta>
                                                                                                    
                                                                                                    
                                                                                                    
                                                                                                    
                                                                                                    
                                                                                                    
                                                                                                    
                                                                                                    
                                                                                                    
                                                                                                    
                                                                                                    
                                                                                                    
                                                                                                    
                                                                                                    
                                                                                                    
                                                                                                    
                                                                                                    
                                                                                                    
                                                                                                    
                                                                                                    
                           
<?xpacket end="w"?></metadata>
<defs>
    <style>
      .cls-1 {
        fill: #ffc107;
        fill-rule: evenodd;
      }
    </style>
  </defs>
  <path id="fa-user" class="cls-1" d="M506.959,220.69c-0.02-.306-0.06-0.637-0.119-0.991a8.232,8.232,0,0,0-.226-0.988,4.88,4.88,0,0,0-.366-0.887,3.165,3.165,0,0,0-.528-0.737,2.231,2.231,0,0,0-.728-0.487,2.418,2.418,0,0,0-.949-0.182,1.015,1.015,0,0,0-.358.2c-0.187.13-.4,0.276-0.634,0.437a3.937,3.937,0,0,1-.92.436,3.393,3.393,0,0,1-2.273,0,3.9,3.9,0,0,1-.92-0.436q-0.354-.242-0.634-0.437a1.033,1.033,0,0,0-.358-0.2,2.414,2.414,0,0,0-.949.182,2.21,2.21,0,0,0-.728.487,3.165,3.165,0,0,0-.528.737,4.81,4.81,0,0,0-.366.887,8.232,8.232,0,0,0-.226.988,9.761,9.761,0,0,0-.119.991q-0.03.461-.03,0.942a2.353,2.353,0,0,0,.622,1.725,2.211,2.211,0,0,0,1.651.632h7.442a2.213,2.213,0,0,0,1.652-.632,2.357,2.357,0,0,0,.622-1.725Q506.989,221.151,506.959,220.69Zm-5.965-10.678a3.049,3.049,0,0,0-2.311,1.024,3.664,3.664,0,0,0,0,4.941,3.121,3.121,0,0,0,4.623,0,3.664,3.664,0,0,0,0-4.941A3.051,3.051,0,0,0,500.994,210.012Z" transform="translate(-495 -210)"/>
</svg>
