<svg xmlns="http://www.w3.org/2000/svg" width="20.031" height="19" viewBox="0 0 20.031 19">

  <path d="M189.339,296.778a5.337,5.337,0,0,1,.052-0.7,4.117,4.117,0,0,1-1.387.244,3.606,3.606,0,0,1-1.241-.228,6.7,6.7,0,0,1-1.016-.451,1.976,1.976,0,0,0-.454-0.222q-1.293,0-1.293,3.742a1.46,1.46,0,0,0,.584,1.257,2.363,2.363,0,0,0,1.439.429h1.4a3.576,3.576,0,0,1,2.763-1.357,4.721,4.721,0,0,1-.844-2.714h0Zm11.976,8.371a11.169,11.169,0,0,0-.146-1.156,9.151,9.151,0,0,0-.276-1.15,5.524,5.524,0,0,0-.449-1.034,3.737,3.737,0,0,0-.646-0.859,2.714,2.714,0,0,0-.892-0.567,3.094,3.094,0,0,0-1.163-.212,1.22,1.22,0,0,0-.448.228q-0.343.228-.761,0.509a4.776,4.776,0,0,1-5.047,0q-0.417-.281-0.761-0.509a1.221,1.221,0,0,0-.449-0.228,3.089,3.089,0,0,0-1.162.212,2.7,2.7,0,0,0-.892.567,3.709,3.709,0,0,0-.646.859,5.459,5.459,0,0,0-.449,1.034,9.151,9.151,0,0,0-.276,1.15,10.9,10.9,0,0,0-.146,1.156q-0.037.535-.037,1.1a2.664,2.664,0,0,0,.762,2.009,2.78,2.78,0,0,0,2.023.737h9.113a2.782,2.782,0,0,0,2.023-.737,2.664,2.664,0,0,0,.761-2.009Q201.351,305.685,201.315,305.149ZM188,289.992a2.549,2.549,0,0,0-1.887.795,2.747,2.747,0,0,0,0,3.839,2.637,2.637,0,0,0,3.774,0,2.744,2.744,0,0,0,0-3.839A2.549,2.549,0,0,0,188,289.992Zm6.006,2.714a3.827,3.827,0,0,0-2.831,1.193,4.12,4.12,0,0,0,0,5.758,3.958,3.958,0,0,0,5.662,0,4.117,4.117,0,0,0,0-5.758A3.826,3.826,0,0,0,194.01,292.706Zm8.718,2.715a1.976,1.976,0,0,0-.454.222,6.7,6.7,0,0,1-1.016.451,3.611,3.611,0,0,1-1.241.228,4.117,4.117,0,0,1-1.387-.244,5.516,5.516,0,0,1,.052.7,4.722,4.722,0,0,1-.845,2.714,3.58,3.58,0,0,1,2.764,1.357H202a2.366,2.366,0,0,0,1.439-.429,1.463,1.463,0,0,0,.584-1.257q0-3.743-1.293-3.742h0Zm-2.711-5.429a2.553,2.553,0,0,0-1.888.795,2.747,2.747,0,0,0,0,3.839,2.638,2.638,0,0,0,3.775,0,2.747,2.747,0,0,0,0-3.839A2.551,2.551,0,0,0,200.017,289.992Z" transform="translate(-184 -290)"/>
</svg>
