<svg xmlns="http://www.w3.org/2000/svg" width="20" height="14" viewBox="0 0 20 14">

  <path d="M203.565,413.39a0.781,0.781,0,0,0-.279-0.055,0.674,0.674,0,0,0-.5.208l-4.5,4.4v-1.807a3.012,3.012,0,0,0-.943-2.228,3.126,3.126,0,0,0-2.272-.925h-7.857a3.126,3.126,0,0,0-2.271.925,3.008,3.008,0,0,0-.943,2.228v7.708a3.007,3.007,0,0,0,.943,2.228,3.126,3.126,0,0,0,2.271.925h7.857a3.126,3.126,0,0,0,2.272-.925,3.011,3.011,0,0,0,.943-2.228v-1.818l4.5,4.413a0.67,0.67,0,0,0,.5.208,0.781,0.781,0,0,0,.279-0.055,0.654,0.654,0,0,0,.435-0.646V414.036a0.654,0.654,0,0,0-.435-0.646h0Z" transform="translate(-184 -413)"/>
</svg>
