<?xml version="1.0" encoding="utf-8"?>
<!-- Generator: Adobe Illustrator 21.1.0, SVG Export Plug-In . SVG Version: 6.00 Build 0)  -->
<svg version="1.1" id="Слой_1" xmlns="http://www.w3.org/2000/svg" xmlns:xlink="http://www.w3.org/1999/xlink" x="0px" y="0px"
	 viewBox="0 0 69.9 45.2" enable-background="new 0 0 69.9 45.2" xml:space="preserve">
<g>
	<path d="M2.5,28.6c-1.2,0-1.7,0-2.5,0.1v6.7h1.5v-2.5c0.4,0,0.8,0.1,1.2,0.1c1.6,0,2.2-0.5,2.2-2.2
		C5,29.1,4.4,28.6,2.5,28.6z M2.5,31.8h-1v-2.1h1c0.8,0,1,0.2,1,1S3.3,31.8,2.5,31.8z"/>
	<path d="M7.4,33.6h2.3l0.5,1.7h1.5L9.8,29c-0.1-0.2-0.3-0.4-0.5-0.4H7.9c-0.2,0-0.5,0.1-0.5,0.4l-1.9,6.3H7
		L7.4,33.6z M8.3,30.4c0-0.2,0.1-0.4,0.1-0.6h0.3c0,0.2,0.1,0.4,0.1,0.6l0.6,2H7.7L8.3,30.4z"/>
	<path d="M17.1,33.7c0-1.1-0.3-1.7-1.3-1.8l0,0c0.8-0.1,1.1-0.6,1.1-1.5c0-1.4-0.6-1.7-2.3-1.7c-0.9,0-1.5,0-2.1,0.2
		l0.1,1.1c0.6-0.1,1.2-0.1,1.9-0.1c0.7,0,0.9,0.2,0.9,0.8s-0.2,0.8-0.9,0.8h-1.3v1h1.3c0.8,0,1,0.2,1,1c0,0.7-0.2,0.9-1,0.9
		c-0.7,0-1.4-0.1-2.2-0.2l-0.1,1c0.7,0.2,1.5,0.3,2.5,0.3C16.5,35.4,17.1,35.1,17.1,33.7z"/>
	<path d="M18.7,28.7v6.7h1.5v-2.5c0.4,0,0.8,0.1,1.2,0.1c1.6,0,2.2-0.5,2.2-2.2c0-1.7-0.6-2.2-2.4-2.2
		C20.1,28.6,19.5,28.6,18.7,28.7z M22.2,30.8c0,0.8-0.2,1-1,1.1h-1v-2.1h1C22,29.7,22.2,30,22.2,30.8z"/>
	<path d="M28.9,35.4h1.5l-1.9-6.3c-0.1-0.2-0.3-0.4-0.5-0.4h-1.4c-0.2,0-0.5,0.1-0.5,0.4l-1.9,6.3h1.5l0.5-1.7h2.3
		L28.9,35.4z M26.4,32.5l0.6-2c0-0.2,0.1-0.4,0.1-0.6h0.3c0,0.2,0.1,0.4,0.1,0.6l0.6,2H26.4z"/>
	<path d="M36.5,33.4c0-1.5-0.6-2-2.5-2h-1v-1.6h2.9l0.1-1.1c-0.7,0-1.5-0.1-2.3-0.1c-0.7,0-1.5,0-2.3,0.1v6.7l0,0
		c0.8,0.1,1.6,0.1,2.4,0.1C35.6,35.4,36.5,35.2,36.5,33.4z M34,34.3h-1v-1.9h1c0.8,0,1,0.2,1,1C35,34.1,34.8,34.3,34,34.3z"/>
	<path d="M43.4,32c0-2.7-0.7-3.5-2.8-3.5s-2.8,0.8-2.8,3.5s0.7,3.5,2.8,3.5S43.4,34.7,43.4,32z M40.6,34.3
		c-1,0-1.3-0.5-1.3-2.3c0-1.8,0.3-2.3,1.3-2.3s1.3,0.5,1.3,2.3C41.9,33.8,41.6,34.3,40.6,34.3z"/>
	<polygon points="49.9,28.7 44.4,28.7 44.4,29.9 46.4,29.9 46.4,35.4 47.9,35.4 47.9,29.9 49.9,29.9 	"/>
	<path d="M54.3,29.1c-0.1-0.2-0.3-0.4-0.5-0.4h-1.4c-0.2,0-0.5,0.1-0.5,0.4L50,35.4h1.5l0.5-1.7h2.3l0.5,1.7h1.5
		L54.3,29.1z M52.3,32.5l0.6-2c0-0.2,0.1-0.4,0.1-0.6h0.3c0,0.2,0.1,0.4,0.1,0.6l0.6,2H52.3z"/>
	<polygon points="58.9,32.4 61.2,32.4 61.2,35.4 62.7,35.4 62.7,28.7 61.2,28.7 61.2,31.2 58.9,31.2 58.9,28.7 
		57.4,28.7 57.4,35.4 58.9,35.4 	"/>
	<path d="M67.1,28.6c-2.1,0-2.8,0.8-2.8,3.5s0.7,3.5,2.8,3.5s2.8-0.8,2.8-3.5C70,29.4,69.2,28.6,67.1,28.6z
		 M67.1,34.3c-1,0-1.3-0.5-1.3-2.3c0-1.8,0.3-2.3,1.3-2.3s1.3,0.5,1.3,2.3C68.4,33.8,68.1,34.3,67.1,34.3z"/>
	<path d="M9.6,43.1c-0.1,0.2-0.1,0.5-0.2,0.7H9.2c0-0.2-0.1-0.5-0.2-0.7l-1.2-4.8H6.3l1.8,6.2
		c0.1,0.2,0.3,0.4,0.5,0.4h1.3c0.3,0,0.5-0.2,0.5-0.4l1.8-6.2h-1.5L9.6,43.1z"/>
	<rect x="13.6" y="38.3" width="1.5" height="6.7"/>
	<path d="M23.6,38.3h-1.4c-0.3,0-0.5,0.2-0.6,0.5l-0.8,3.3c-0.1,0.3-0.1,0.6-0.2,0.9h-0.1c0-0.3-0.1-0.6-0.2-0.9
		l-0.8-3.3c-0.1-0.3-0.3-0.5-0.6-0.5h-1.4c-0.4,0-0.5,0.2-0.5,0.5L16.7,45h1.4l0.2-5.5h0.2l1,4.1c0.1,0.3,0.3,0.5,0.6,0.5h1
		c0.3,0,0.5-0.2,0.6-0.5l1-4.1h0.2l0.2,5.5h1.4l-0.3-6.1C24.1,38.5,23.9,38.3,23.6,38.3z"/>
	<path d="M31.8,41.2l-1.3-0.4c-0.5-0.2-0.7-0.3-0.7-0.8c0-0.6,0.3-0.6,1-0.6s1.5,0,2.1,0l0.1-1
		c-0.7-0.2-1.5-0.3-2.2-0.3c-1.7,0-2.4,0.3-2.4,1.8c0,1,0.4,1.6,1.4,1.9l1.3,0.5c0.4,0.1,0.6,0.3,0.6,0.7c0,0.5-0.2,0.6-1,0.6
		c-0.4,0-1,0-2.2,0l-0.1,1.1c1,0.2,1.9,0.3,2.3,0.3c1.8,0,2.5-0.4,2.5-1.9C33.2,42.2,32.9,41.6,31.8,41.2z"/>
	<polygon points="34.2,39.5 36.2,39.5 36.2,45 37.7,45 37.7,39.5 39.7,39.5 39.7,38.3 34.2,38.3 	"/>
	<path d="M44.8,42.3c0,1.2-0.3,1.6-1.2,1.6s-1.2-0.4-1.2-1.6v-4h-1.5v4c0,2,0.7,2.8,2.7,2.8c1.9,0,2.6-0.7,2.6-2.8
		v-4h-1.5v4H44.8z"/>
	<path d="M50.6,38.3c-1,0-1.8,0-2.6,0.1V45c0.8,0,1.6,0.1,2.6,0.1c2.1,0,2.8-0.8,2.8-3.4
		C53.4,39.1,52.7,38.3,50.6,38.3z M50.6,43.9c-0.4,0-0.8,0-1.1,0v-4.5h1.1c1,0,1.3,0.5,1.3,2.3C51.9,43.5,51.6,43.9,50.6,43.9z"/>
	<rect x="55" y="38.3" width="1.5" height="6.7"/>
	<path d="M60.9,38.2c-2.1,0-2.8,0.8-2.8,3.5s0.7,3.5,2.8,3.5c2.1,0,2.8-0.8,2.8-3.5C63.7,39,63,38.2,60.9,38.2z
		 M60.9,43.9c-1,0-1.3-0.5-1.3-2.3s0.3-2.3,1.3-2.3s1.3,0.5,1.3,2.3C62.2,43.4,61.9,43.9,60.9,43.9z"/>
	<polygon points="35.3,26 35.3,26 37.6,26 49.1,0 44.5,0.8 35.3,18.3 26.1,0.8 21.5,0 33,26 	"/>
	<polygon points="26.7,14.7 24,8.4 15.2,25.6 21.4,25.6 	"/>
	<polygon points="43.7,15.1 49,26 55.2,26 46.4,8.8 	"/>
	<polygon points="36.5,13.2 41.3,4.7 35.3,8.4 29.4,4.7 34.1,13.2 	"/>
</g>
</svg>
